<svg viewBox="0 0 96 96" xmlns="http://www.w3.org/2000/svg"><g id="Logo_Design" data-name="Logo Design"><g fill="#ff2c63"><path d="m1 86.95h7.83v7.83h-7.83z"/><path d="m1 .78h7.83v7.83h-7.83z"/><circle cx="48" cy="90.86" r="3.92"/><circle cx="48" cy="4.7" r="3.92"/><circle cx="4.92" cy="47.78" r="3.92"/><circle cx="91.08" cy="47.78" r="3.92"/><path d="m87.17 86.95h7.83v7.83h-7.83z"/><path d="m87.17.78h7.83v7.83h-7.83z"/></g><path d="m59 16.75h-8.14l28.19 62.06h8.16zm-13.53 16.83-10.66 23.49h8.19l6.58-14.51zm-15.47 34.02-5.07 11.21h8.17l5.08-11.21z" fill="#ff7342"/><path d="m50.85 16.74h-10.76l-28.19 62.08h13l5.1-11.22h30.9l5.1 11.22h13zm-16 40.33 10.66-23.5 10.67 23.5z" fill="#ffb942"/><path d="m14.71 72.61-2.81 6.21h13.03l2.81-6.21z" fill="#ff7342"/><path d="m63.2 72.61 2.82 6.21h13.03l-2.82-6.21z" fill="#ff7342"/><path d="m40.09 16.74-28.19 62.08h7.5l28.19-62.08z" fill="#ffe15b"/><path d="m34.92 56.95h21.15v5.42h-21.15z" fill="#ffe15b"/><path d="m95 9.83a1 1 0 0 0 1-1v-7.83a1 1 0 0 0 -1-1h-7.83a1 1 0 0 0 -1 1v2.92h-33.35a4.92 4.92 0 0 0 -9.64 0h-33.35v-2.92a1 1 0 0 0 -1-1h-7.83a1 1 0 0 0 -1 1v7.83a1 1 0 0 0 1 1h2.92v33.35a4.92 4.92 0 0 0 0 9.64v33.35h-2.92a1 1 0 0 0 -1 1v7.83a1 1 0 0 0 1 1h7.83a1 1 0 0 0 1-1v-2.92h33.35a4.92 4.92 0 0 0 9.64 0h33.35v2.92a1 1 0 0 0 1 1h7.83a1 1 0 0 0 1-1v-7.83a1 1 0 0 0 -1-1h-2.92v-33.35a4.92 4.92 0 0 0 0-9.64v-33.35zm-6.83-7.83h5.83v5.83h-5.83zm-40.17 0a2.92 2.92 0 1 1 -2.92 2.92 2.92 2.92 0 0 1 2.92-2.92zm-46 5.83v-5.83h5.83v5.83zm0 40.17a2.92 2.92 0 1 1 2.92 2.92 2.92 2.92 0 0 1 -2.92-2.92zm5.83 46h-5.83v-5.83h5.83zm40.17 0a2.92 2.92 0 1 1 2.92-2.92 2.92 2.92 0 0 1 -2.92 2.92zm46-5.83v5.83h-5.83v-5.83zm0-40.17a2.92 2.92 0 1 1 -2.92-2.92 2.92 2.92 0 0 1 2.92 2.92zm-3.92-4.82a4.93 4.93 0 0 0 0 9.64v33.35h-2.91a1 1 0 0 0 -1 1v2.91h-33.35a4.93 4.93 0 0 0 -9.64 0h-33.35v-2.91a1 1 0 0 0 -1-1h-2.91v-33.35a4.93 4.93 0 0 0 0-9.64v-33.35h2.91a1 1 0 0 0 1-1v-2.91h33.35a4.93 4.93 0 0 0 9.64 0h33.35v2.91a1 1 0 0 0 1 1h2.91z" fill="#302d3d"/><path d="m60.57 18h3.2a1 1 0 0 0 0-2h-4.11l-.95-2.09a1 1 0 0 0 -1.82.83l.58 1.26h-15.83l.73-1.61a1 1 0 1 0 -1.82-.83l-1.11 2.44h-4.72a1 1 0 0 0 0 2h3.81l-17.4 38.29h-3.42a1 1 0 0 0 0 2h2.51c0 .1.64-1.42-9 19.75h-2.39a1 1 0 1 0 0 2h1.51l-.86 1.96a1 1 0 1 0 1.82.82l1.24-2.82h24.57a1 1 0 0 0 0-2h-2.47l4.18-9.22h21.46l4.83 10.63a1 1 0 0 0 .89.59h20.56l.51 1.13a1 1 0 1 0 1.82-.83zm-28.11 60h-6l4.18-9.21h6zm34.21 0c-5.74-12.62-3.77-8.28-4.19-9.22h2a1 1 0 1 0 0-2h-38.48a1 1 0 1 0 0 2h2.48c-.42.94 1.54-3.39-4.18 9.22h-10.85c12.28-27 8.08-17.75 9-19.75h33.1l1.22 2.75a1 1 0 1 0 1.82-.82l-.84-1.86h2.14a1 1 0 0 0 0-2h-3l-12.12-26.6a1 1 0 0 0 -1.32-.5 1 1 0 0 0 -.5 1.32l1.45 3.19-10.24 22.56h-10.83l17.4-38.29h9.48l27.28 60zm-12.08-21.71h-10.07l5-11.09zm-6.14-13.51-6.12 13.51h-6l9.11-20.07zm31.24 35.22-27.28-60h6l27.24 60z" fill="#302d3d"/><path d="m55.85 78h-13a1 1 0 0 0 0 2h13a1 1 0 1 0 0-2z" fill="#302d3d"/></g></svg>