<svg id="Capa_1" enable-background="new 0 0 510.024 510.024" height="512" viewBox="0 0 510.024 510.024" width="512" xmlns="http://www.w3.org/2000/svg"><g><path d="m415.155 222.575-63.936 63.936 32.445 86.647 63.935-63.936z" fill="#7f94fd"/><path d="m362.752 36.53 10.273 42.366 45.048 12.952 44.952-27.952 46.78-63.78c-57.078 3.015-105.813 16.842-147.053 36.414z" fill="#7f94fd"/><path d="m418.073 91.848 22.952 39.048 32.14 16.039c19.658-41.233 33.629-89.906 36.86-146.832-.074.004-.146.009-.22.013z" fill="#6665ff"/><path d="m200.313 61.936-63.935 63.935 86.646 32.445 63.936-63.935z" fill="#98ccfe"/><path d="m362.752 36.53c-140.345 66.607-193.875 199.755-193.875 199.755l52.379 52.379 105.768-71.768 91.048-125.048z" fill="#e6f8fc"/><path d="m221.256 288.665 52.586 52.586s132.513-54.181 199.322-194.315l-55.091-55.088z" fill="#d0e8ff"/><path d="m83.45 455.323h82.001v30h-82.001z" fill="#fcbe00" transform="matrix(.707 -.707 .707 .707 -296.117 225.753)"/><path d="m-1.402 370.47h82.001v30h-82.001z" fill="#ffdf40" transform="matrix(.707 -.707 .707 .707 -260.97 140.902)"/><path d="m154.615 288.758c-22.838 22.838-29.151 91.663-29.535 96.084l62.945-41.945 33.24-54.24c-18.443-18.33-48.251-18.299-66.65.101z" fill="#ff8756"/><path d="m125.06 385.068s72.711-5.955 96.31-29.555c18.434-18.434 18.434-48.322 0-66.756-.035-.035-.071-.066-.106-.101l-96.185 96.185c-.012.148-.019.227-.019.227z" fill="#ff641a"/><path d="m19.799 468.909 10.607 10.606 32.618-22.619 21.122-31.121-10.607-10.606z" fill="#ffdf40"/><path d="m24.579 450.449h76v15h-76z" fill="#fcbe00" transform="matrix(.707 -.707 .707 .707 -305.488 178.378)"/><path d="m341.812 146.896-21.213 21.213 10.606 10.607 11.819-3.82 9.394-17.393z" fill="#ffdf40"/><path d="m332.115 165.913h30v15h-30z" fill="#fcbe00" transform="matrix(.707 -.707 .707 .707 -20.955 296.234)"/><path d="m256.418 204.719 24.392 24.392 15.214-3.215 5.999-17.998-24.392-24.392z" fill="#3869ad"/><path d="m288.716 213.41h30v34.788h-30z" fill="#00447f" transform="matrix(.707 -.707 .707 .707 -74.247 282.361)"/></g></svg>