<svg width="79" height="93" viewBox="0 0 79 93" fill="none" xmlns="http://www.w3.org/2000/svg">
<path d="M6.56895 31.0146C3.35957 31.0146 0.757812 33.6163 0.757812 36.8257V63.9443C0.757812 67.1537 3.35957 69.7554 6.56895 69.7554C9.77833 69.7554 12.3801 67.1537 12.3801 63.9443V36.8257C12.3801 33.6163 9.77833 31.0146 6.56895 31.0146Z" fill="#A4C639"/>
<path d="M72.4283 31.0146C69.2189 31.0146 66.6172 33.6163 66.6172 36.8257V63.9443C66.6172 67.1537 69.2189 69.7554 72.4283 69.7554C75.6377 69.7554 78.2395 67.1537 78.2395 63.9443V36.8257C78.2395 33.6163 75.6379 31.0146 72.4283 31.0146Z" fill="#A4C639"/>
<path d="M60.8059 31.0146H18.191C17.1212 31.0146 16.2539 31.8819 16.2539 32.9517V63.9443C16.253 68.5475 19.492 72.5152 24.0022 73.4359V87.1889C24.0022 90.3982 26.6039 93 29.8133 93C33.0227 93 35.6244 90.3982 35.6244 87.1889V73.6295H43.3727V87.1889C43.3727 90.3982 45.9744 93 49.1838 93C52.3932 93 54.9949 90.3982 54.9949 87.1889V73.4359C59.5051 72.5152 62.7441 68.5475 62.7432 63.9443V32.9517C62.743 31.8819 61.8757 31.0146 60.8059 31.0146Z" fill="#A4C639"/>
<path d="M53.5811 8.04897L58.3036 3.33033C59.073 2.58704 59.0943 1.36089 58.3512 0.591282C57.6079 -0.178149 56.3817 -0.199396 55.6121 0.543703C55.5959 0.559321 55.5801 0.57512 55.5645 0.591282L50.0634 6.09261C43.3257 3.1658 35.6755 3.1658 28.9379 6.09261L23.4367 0.587468C22.6673 -0.155813 21.441 -0.134384 20.6977 0.635047C19.9728 1.38577 19.9728 2.57579 20.6977 3.32633L25.4163 8.04879C19.6639 11.8551 16.2186 18.3056 16.2542 25.2033C16.2542 26.2731 17.1215 27.1404 18.1913 27.1404H60.8064C61.8762 27.1404 62.7435 26.2731 62.7435 25.2033C62.7789 18.3058 59.3336 11.8553 53.5811 8.04897Z" fill="#A4C639"/>
</svg>
