<svg width="96" height="96" viewBox="0 0 96 96" fill="none" xmlns="http://www.w3.org/2000/svg">
<path d="M66.4768 0C66.7002 0 66.9236 0 67.1597 0C67.7077 6.77012 65.1236 11.8287 61.9831 15.492C58.9015 19.13 54.6818 22.6584 47.8569 22.123C47.4016 15.4499 49.9899 10.7664 53.1263 7.11158C56.035 3.70544 61.3676 0.674483 66.4768 0Z" fill="black"/>
<path d="M87.1364 70.4666C87.1364 70.534 87.1364 70.5931 87.1364 70.6563C85.2183 76.4653 82.4825 81.4438 79.1438 86.064C76.096 90.2585 72.361 95.903 65.6921 95.903C59.9295 95.903 56.1018 92.1976 50.1958 92.0964C43.9484 91.9953 40.5128 95.1948 34.8007 96C34.1473 96 33.4939 96 32.8532 96C28.6587 95.393 25.2737 92.0711 22.8076 89.0781C15.5358 80.234 9.91654 68.8099 8.87109 54.1905C8.87109 52.7572 8.87109 51.3282 8.87109 49.8949C9.31372 39.432 14.3976 30.925 21.1551 26.8023C24.7214 24.6102 29.6241 22.7427 35.0832 23.5774C37.4228 23.9399 39.813 24.7409 41.9081 25.5334C43.8936 26.2964 46.3766 27.6496 48.7288 27.5779C50.3223 27.5315 51.9073 26.7011 53.5134 26.1151C58.218 24.4163 62.8297 22.4687 68.9085 23.3835C76.214 24.4879 81.3991 27.7339 84.6029 32.7419C78.4229 36.675 73.5371 42.602 74.3718 52.7235C75.1138 61.9175 80.459 67.2965 87.1364 70.4666Z" fill="black"/>
</svg>
