<svg width="46" height="46" viewBox="0 0 46 46" fill="none" xmlns="http://www.w3.org/2000/svg">
<g clip-path="url(#clip0_399_1221)">
<path d="M10.1946 27.7982L8.59337 33.7757L2.74104 33.8995C0.992055 30.6555 0 26.944 0 22.9998C0 19.1859 0.927547 15.5893 2.57169 12.4224H2.57295L7.78316 13.3776L10.0656 18.5565C9.58785 19.9492 9.32749 21.4442 9.32749 22.9998C9.32767 24.6882 9.6335 26.3058 10.1946 27.7982Z" fill="#FBBB00"/>
<path d="M45.5964 18.7031C45.8605 20.0944 45.9983 21.5313 45.9983 22.9998C45.9983 24.6465 45.8251 26.2527 45.4953 27.8021C44.3757 33.0744 41.4501 37.6781 37.3973 40.936L37.3961 40.9348L30.8335 40.5999L29.9047 34.8019C32.5939 33.2247 34.6956 30.7567 35.8026 27.8021H23.5039V18.7031H35.982H45.5964Z" fill="#518EF8"/>
<path d="M37.3989 40.9348L37.4001 40.9361C33.4586 44.1043 28.4516 45.9999 23.0011 45.9999C14.2422 45.9999 6.62694 41.1042 2.74219 33.8996L10.1957 27.7983C12.138 32.9821 17.1387 36.6723 23.0011 36.6723C25.521 36.6723 27.8817 35.9911 29.9074 34.8019L37.3989 40.9348Z" fill="#28B446"/>
<path d="M37.6795 5.29503L30.2284 11.3951C28.1319 10.0846 25.6537 9.32758 22.9986 9.32758C17.0034 9.32758 11.9093 13.187 10.0643 18.5567L2.57157 12.4225H2.57031C6.3982 5.0423 14.1095 0 22.9986 0C28.5793 0 33.6961 1.98788 37.6795 5.29503Z" fill="#F14336"/>
</g>
<defs>
<clipPath id="clip0_399_1221">
<rect width="46" height="46" fill="white"/>
</clipPath>
</defs>
</svg>
