<?xml version="1.0" encoding="utf-8"?>
<!-- Generator: Adobe Illustrator 23.0.0, SVG Export Plug-In . SVG Version: 6.00 Build 0)  -->
<svg version="1.1" id="Capa_1" xmlns="http://www.w3.org/2000/svg" xmlns:xlink="http://www.w3.org/1999/xlink" x="0px" y="0px"
	 width="104.1px" height="34.3px" viewBox="0 0 104.1 34.3" style="enable-background:new 0 0 104.1 34.3;" xml:space="preserve">
<style type="text/css">
	.st0{fill:#FF4131;}
	.st1{fill:#FFBC00;}
	.st2{fill:#0085F7;}
	.st3{fill:#00A94B;}
</style>
<g>
	<path class="st0" d="M44.6,18c0,4.9-3.9,8.6-8.6,8.6S27.4,23,27.4,18c0-5,3.9-8.6,8.6-8.6S44.6,13.1,44.6,18z M40.8,18
		c0-3.1-2.2-5.2-4.8-5.2S31.1,15,31.1,18c0,3.1,2.2,5.2,4.8,5.2C38.6,23.2,40.8,21.1,40.8,18z"/>
	<path class="st1" d="M63.1,18c0,4.9-3.9,8.6-8.6,8.6S45.9,23,45.9,18c0-5,3.9-8.6,8.6-8.6C59.2,9.5,63.1,13.1,63.1,18z M59.3,18
		c0-3.1-2.2-5.2-4.8-5.2S49.7,15,49.7,18c0,3.1,2.2,5.2,4.8,5.2C57.1,23.2,59.3,21.1,59.3,18z"/>
	<path class="st2" d="M80.8,10v15.4c0,6.3-3.7,8.9-8.1,8.9c-4.2,0-6.6-2.8-7.6-5l3.3-1.4c0.6,1.4,2,3,4.3,3c2.8,0,4.6-1.7,4.6-5
		v-1.2h-0.1c-0.8,1-2.5,1.9-4.5,1.9c-4.3,0-8.2-3.7-8.2-8.5c0-4.8,3.9-8.6,8.2-8.6c2,0,3.7,0.9,4.5,1.9h0.1V10L80.8,10L80.8,10z
		 M77.5,18.1c0-3-2-5.2-4.6-5.2c-2.6,0-4.8,2.2-4.8,5.2c0,3,2.2,5.2,4.8,5.2C75.5,23.2,77.5,21,77.5,18.1z"/>
	<path class="st3" d="M86.7,1v25.1h-3.7V1H86.7z"/>
	<path class="st0" d="M101,20.9l2.9,1.9c-0.9,1.4-3.2,3.8-7.1,3.8c-4.9,0-8.5-3.8-8.5-8.6c0-5.1,3.7-8.6,8.1-8.6
		c4.4,0,6.6,3.5,7.3,5.4l0.4,1l-11.4,4.7c0.9,1.7,2.2,2.6,4.2,2.6C98.7,23.2,100.1,22.3,101,20.9L101,20.9z M92,17.8l7.7-3.2
		c-0.4-1.1-1.7-1.8-3.2-1.8C94.6,12.8,91.9,14.5,92,17.8z"/>
	<path class="st2" d="M13.5,15.8v-3.6h12.2c0.1,0.6,0.2,1.4,0.2,2.2c0,2.7-0.7,6.1-3.1,8.5c-2.3,2.4-5.3,3.7-9.3,3.7
		C6.2,26.6,0,20.6,0,13.3S6.2,0,13.5,0c4.1,0,6.9,1.6,9.1,3.7L20,6.2c-1.6-1.5-3.7-2.6-6.6-2.6c-5.4,0-9.5,4.3-9.5,9.7
		S8.1,23,13.5,23c3.5,0,5.4-1.4,6.7-2.7c1-1,1.7-2.5,2-4.5L13.5,15.8z"/>
</g>
</svg>
