<svg width="323" height="423" viewBox="0 0 323 423" fill="none" xmlns="http://www.w3.org/2000/svg">
<circle cx="303" cy="403" r="20" fill="#7952B3"/>
<path fill-rule="evenodd" clip-rule="evenodd" d="M295.896 393.484C294.551 393.484 293.556 394.667 293.6 395.949C293.643 397.18 293.587 398.776 293.188 400.077C292.786 401.381 292.108 402.208 291 402.314V403.512C292.108 403.618 292.786 404.445 293.188 405.749C293.587 407.05 293.643 408.646 293.6 409.877C293.556 411.159 294.551 412.342 295.896 412.342H309.677C311.022 412.342 312.017 411.159 311.973 409.877C311.93 408.646 311.986 407.05 312.385 405.749C312.787 404.445 313.463 403.618 314.571 403.512V402.314C313.463 402.208 312.787 401.381 312.385 400.077C311.986 398.776 311.93 397.18 311.973 395.949C312.017 394.667 311.022 393.484 309.677 393.484H295.896ZM306.981 405.092C306.981 406.858 305.669 407.928 303.493 407.928H299.789C299.683 407.928 299.582 407.886 299.507 407.811C299.432 407.735 299.39 407.633 299.39 407.527V398.299C299.39 398.193 299.432 398.091 299.507 398.015C299.582 397.94 299.683 397.898 299.789 397.898H303.472C305.287 397.898 306.478 398.885 306.478 400.4C306.478 401.464 305.676 402.416 304.656 402.583V402.638C306.045 402.791 306.981 403.758 306.981 405.092ZM303.09 399.17H300.978V402.166H302.756C304.132 402.166 304.89 401.609 304.89 400.615C304.89 399.684 304.238 399.17 303.09 399.17ZM300.978 403.354V406.656H303.167C304.599 406.656 305.357 406.079 305.357 404.995C305.357 403.91 304.578 403.354 303.075 403.354L300.978 403.354Z" fill="white"/>
<circle cx="148" cy="353" r="35" fill="#2F2C30"/>
<g clip-path="url(#clip0_2031_947)">
<path fill-rule="evenodd" clip-rule="evenodd" d="M142.637 333C140.43 333.002 138.644 334.792 138.645 336.999C138.644 339.206 140.431 340.997 142.638 340.998H146.631V337.001C146.632 334.794 144.845 333.003 142.637 333C142.638 333 142.638 333 142.637 333ZM142.637 343.667H131.993C129.786 343.668 127.998 345.459 128 347.666C127.997 349.873 129.784 351.663 131.991 351.667H142.637C144.843 351.665 146.631 349.874 146.629 347.667C146.631 345.459 144.843 343.668 142.637 343.667Z" fill="#36C5F0"/>
<path fill-rule="evenodd" clip-rule="evenodd" d="M167.92 347.666C167.922 345.459 166.134 343.668 163.928 343.667C161.721 343.668 159.933 345.459 159.935 347.666V351.667H163.928C166.134 351.665 167.922 349.874 167.92 347.666ZM157.275 347.666V336.999C157.276 334.794 155.49 333.003 153.284 333C151.077 333.002 149.289 334.792 149.291 336.999V347.666C149.288 349.873 151.075 351.663 153.282 351.667C155.489 351.665 157.276 349.874 157.275 347.666Z" fill="#2EB67D"/>
<path fill-rule="evenodd" clip-rule="evenodd" d="M153.282 373C155.488 372.999 157.276 371.208 157.274 369.001C157.276 366.794 155.488 365.004 153.282 365.002H149.289V369.001C149.287 371.206 151.075 372.997 153.282 373ZM153.282 362.332H163.927C166.134 362.33 167.921 360.54 167.92 358.333C167.923 356.126 166.136 354.335 163.929 354.332H153.283C151.077 354.334 149.289 356.124 149.291 358.331C149.289 360.54 151.075 362.33 153.282 362.332Z" fill="#ECB22E"/>
<path fill-rule="evenodd" clip-rule="evenodd" d="M128 358.331C127.998 360.538 129.786 362.329 131.993 362.33C134.199 362.329 135.987 360.538 135.985 358.331V354.332H131.993C129.786 354.334 127.998 356.124 128 358.331ZM138.645 358.331V368.998C138.642 371.205 140.43 372.995 142.636 372.999C144.843 372.997 146.631 371.206 146.629 369V358.334C146.632 356.128 144.845 354.337 142.638 354.334C140.43 354.334 138.644 356.124 138.645 358.331Z" fill="#E01E5A"/>
</g>
<circle cx="56" cy="260" r="29" fill="#0F0765"/>
<path d="M56.7256 263.882L40.8631 253.787C40.043 253.245 39.4688 252.402 39.2639 251.441C39.0591 250.479 39.2401 249.475 39.768 248.646C40.2958 247.817 41.1283 247.228 42.0862 247.006C43.0441 246.784 44.0507 246.948 44.8892 247.461L56.5267 254.866L66.9756 247.552C67.7908 246.999 68.7906 246.79 69.7591 246.968C70.7275 247.147 71.5869 247.699 72.1516 248.506C72.7162 249.313 72.9409 250.309 72.777 251.28C72.6131 252.251 72.0738 253.119 71.2756 253.696L56.7256 263.882Z" fill="#EA4435"/>
<path d="M70.375 273.125H65.375V250.625C65.375 249.63 65.7701 248.677 66.4733 247.973C67.1766 247.27 68.1304 246.875 69.125 246.875C70.1196 246.875 71.0734 247.27 71.7767 247.973C72.4799 248.677 72.875 249.63 72.875 250.625V270.625C72.875 271.288 72.6116 271.924 72.1428 272.393C71.6739 272.862 71.038 273.125 70.375 273.125Z" fill="#00AC47"/>
<path d="M72.8208 250.082C72.8098 250.007 72.8106 249.93 72.795 249.856C72.771 249.741 72.7264 249.635 72.6921 249.524C72.6589 249.397 72.619 249.272 72.5724 249.15C72.5474 249.091 72.5089 249.038 72.4805 248.981C72.4027 248.814 72.3127 248.653 72.2113 248.5C72.1613 248.427 72.0988 248.366 72.0435 248.297C71.9487 248.172 71.8462 248.053 71.7366 247.941C71.6535 247.86 71.5588 247.792 71.4684 247.719C71.3723 247.637 71.2722 247.559 71.1684 247.487C71.0693 247.422 70.9608 247.373 70.8559 247.317C70.7454 247.26 70.6371 247.197 70.5221 247.151C70.411 247.106 70.2925 247.078 70.1764 247.044C70.0603 247.009 69.9448 246.969 69.8255 246.946C69.6778 246.923 69.5288 246.908 69.3793 246.901C69.2844 246.895 69.1904 246.878 69.0951 246.879C68.9183 246.884 68.7421 246.902 68.5678 246.932C68.4974 246.943 68.4265 246.942 68.3566 246.956C68.1208 247.028 67.8856 247.102 67.651 247.179C67.5866 247.206 67.5303 247.247 67.4679 247.278C66.8331 247.574 66.2977 248.048 65.9264 248.642C65.5551 249.236 65.3637 249.925 65.3755 250.625V257.828L71.2755 253.697C71.8549 253.308 72.3092 252.76 72.5833 252.118C72.8575 251.477 72.9402 250.77 72.8208 250.082Z" fill="#FFBA00"/>
<path d="M42.875 246.875C43.8696 246.875 44.8234 247.27 45.5267 247.973C46.2299 248.677 46.625 249.63 46.625 250.625V273.125H41.625C40.962 273.125 40.3261 272.862 39.8572 272.393C39.3884 271.924 39.125 271.288 39.125 270.625V250.625C39.125 249.63 39.5201 248.677 40.2233 247.973C40.9266 247.27 41.8804 246.875 42.875 246.875Z" fill="#4285F4"/>
<path d="M39.1801 250.083C39.1911 250.008 39.1902 249.931 39.2058 249.856C39.2298 249.742 39.2745 249.636 39.3087 249.525C39.3419 249.398 39.3819 249.273 39.4285 249.151C39.4535 249.092 39.492 249.039 39.5205 248.982C39.5982 248.815 39.6882 248.654 39.7897 248.501C39.8397 248.428 39.9022 248.366 39.9575 248.298C40.0522 248.173 40.1547 248.054 40.2642 247.942C40.3473 247.861 40.4421 247.793 40.5326 247.72C40.6286 247.638 40.7287 247.56 40.8326 247.488C40.9317 247.423 41.0402 247.373 41.1451 247.318C41.2535 247.257 41.3648 247.201 41.4788 247.151C41.5901 247.106 41.7086 247.078 41.8246 247.044C41.9406 247.009 42.0562 246.969 42.1755 246.946C42.3232 246.923 42.4722 246.908 42.6217 246.901C42.7167 246.895 42.8106 246.878 42.9058 246.879C43.0827 246.884 43.2589 246.902 43.4332 246.932C43.5036 246.943 43.5745 246.942 43.6445 246.956C43.7654 246.987 43.8848 247.024 44.002 247.067C44.1198 247.099 44.236 247.136 44.3501 247.179C44.4143 247.206 44.4707 247.247 44.5332 247.278C44.6952 247.354 44.8516 247.442 45.001 247.541C45.5017 247.884 45.9113 248.345 46.1943 248.883C46.4773 249.42 46.6252 250.018 46.6252 250.626V257.828L40.7252 253.698C40.1459 253.309 39.6917 252.761 39.4175 252.119C39.1433 251.478 39.0608 250.77 39.1801 250.083Z" fill="#C52528"/>
<circle cx="173" cy="165" r="20" fill="#0062FF"/>
<g clip-path="url(#clip1_2031_947)">
<path d="M167.367 155.859L162 159.302L167.367 162.695L172.734 159.302L167.367 155.859ZM178.101 155.859L172.734 159.302L178.101 162.695L183.468 159.302L178.101 155.859ZM162 166.138L167.367 169.581L172.734 166.138L167.367 162.695L162 166.138ZM178.101 162.695L172.734 166.138L178.101 169.581L183.468 166.138L178.101 162.695ZM167.367 170.695L172.734 174.138L178.101 170.695L172.734 167.302L167.367 170.695Z" fill="white"/>
</g>
<g filter="url(#filter0_d_2031_947)">
<circle cx="40" cy="63" r="35" fill="#95BF46"/>
</g>
<path d="M52.6566 50.8536C52.629 50.6536 52.4538 50.5429 52.309 50.5307C52.1645 50.5186 49.1059 50.2919 49.1059 50.2919C49.1059 50.2919 46.9816 48.183 46.7485 47.9496C46.5152 47.7163 46.0596 47.7872 45.8827 47.8393C45.8567 47.847 45.4186 47.9822 44.694 48.2064C43.9844 46.1645 42.7321 44.2881 40.5289 44.2881C40.4681 44.2881 40.4055 44.2905 40.3429 44.2941C39.7163 43.4655 38.9401 43.1055 38.2697 43.1055C33.1375 43.1055 30.6856 49.5212 29.9169 52.7815C27.9226 53.3994 26.5059 53.8388 26.3249 53.8956C25.2118 54.2448 25.1766 54.2799 25.0304 55.3288C24.9204 56.1229 22.0078 78.6474 22.0078 78.6474L44.7034 82.8997L57.0007 80.2394C57.0007 80.2394 52.6837 51.0536 52.6566 50.8536ZM43.4396 48.5944L41.5192 49.1888C41.5199 49.0534 41.5206 48.9203 41.5206 48.7746C41.5206 47.5056 41.3444 46.4838 41.0618 45.6738C42.197 45.8163 42.953 47.1079 43.4396 48.5944ZM39.6536 45.9255C39.9692 46.7163 40.1744 47.8512 40.1744 49.3827C40.1744 49.4611 40.1737 49.5327 40.173 49.6052C38.9241 49.992 37.567 50.412 36.2069 50.8334C36.9706 47.886 38.4021 46.4625 39.6536 45.9255ZM38.1288 44.482C38.3503 44.482 38.5734 44.5572 38.787 44.7042C37.1422 45.4782 35.3792 47.4275 34.6347 51.3203L31.4996 52.2912C32.3716 49.322 34.4425 44.482 38.1288 44.482Z" fill="#5E8E3E"/>
<path d="M52.3076 50.5324C52.1631 50.5204 49.1045 50.2937 49.1045 50.2937C49.1045 50.2937 46.9802 48.1848 46.7471 47.9513C46.6598 47.8645 46.5422 47.82 46.4192 47.8008L44.7031 82.9012L56.9993 80.2412C56.9993 80.2412 52.6823 51.0553 52.6552 50.8553C52.6276 50.6553 52.4524 50.5446 52.3076 50.5324Z" fill="#72A94E"/>
<path d="M40.5286 57.3286L39.0123 61.839C39.0123 61.839 37.6838 61.13 36.0553 61.13C33.6679 61.13 33.5477 62.6282 33.5477 63.0057C33.5477 65.0657 38.9176 65.8551 38.9176 70.6803C38.9176 74.4766 36.5098 76.9211 33.2632 76.9211C29.3673 76.9211 27.375 74.4964 27.375 74.4964L28.4182 71.0499C28.4182 71.0499 30.4661 72.8081 32.1942 72.8081C33.3234 72.8081 33.7827 71.919 33.7827 71.2694C33.7827 68.5823 29.3772 68.4625 29.3772 64.047C29.3772 60.3307 32.0446 56.7344 37.429 56.7344C39.5036 56.7344 40.5286 57.3286 40.5286 57.3286Z" fill="white"/>
<circle cx="255.5" cy="27.5" r="27.5" fill="#DEE8E9"/>
<g clip-path="url(#clip2_2031_947)">
<mask id="mask0_2031_947" style="mask-type:luminance" maskUnits="userSpaceOnUse" x="241" y="13" width="30" height="30">
<path d="M271 13H241V43H271V13Z" fill="white"/>
</mask>
<g mask="url(#mask0_2031_947)">
<path d="M247.649 31.1293L246.604 35.0276L242.788 35.1084C241.647 32.9927 241 30.5722 241 27.9999C241 25.5125 241.605 23.1669 242.677 21.1016H242.678L246.076 21.7245L247.565 25.1021C247.253 26.0103 247.083 26.9853 247.083 27.9999C247.083 29.101 247.283 30.156 247.649 31.1293Z" fill="#FBBB00"/>
<path d="M270.736 25.1992C270.909 26.1066 270.998 27.0437 270.998 28.0014C270.998 29.0753 270.885 30.1229 270.67 31.1333C269.94 34.5718 268.032 37.5742 265.389 39.6989L265.388 39.6982L261.108 39.4797L260.503 35.6984C262.256 34.6698 263.627 33.0603 264.349 31.1333H256.328V25.1992H264.466H270.736Z" fill="#518EF8"/>
<path d="M265.391 39.6962L265.392 39.697C262.822 41.7633 259.556 42.9995 256.001 42.9995C250.289 42.9995 245.323 39.8067 242.789 35.108L247.65 31.1289C248.917 34.5096 252.178 36.9163 256.001 36.9163C257.645 36.9163 259.184 36.472 260.506 35.6965L265.391 39.6962Z" fill="#28B446"/>
<path d="M265.573 16.4533L260.714 20.4316C259.346 19.5769 257.73 19.0832 255.999 19.0832C252.089 19.0832 248.766 21.6002 247.563 25.1022L242.677 21.1016H242.676C245.172 16.2885 250.201 13 255.999 13C259.638 13 262.975 14.2964 265.573 16.4533Z" fill="#F14336"/>
</g>
</g>
<defs>
<filter id="filter0_d_2031_947" x="0" y="23" width="80" height="80" filterUnits="userSpaceOnUse" color-interpolation-filters="sRGB">
<feFlood flood-opacity="0" result="BackgroundImageFix"/>
<feColorMatrix in="SourceAlpha" type="matrix" values="0 0 0 0 0 0 0 0 0 0 0 0 0 0 0 0 0 0 127 0" result="hardAlpha"/>
<feOffset/>
<feGaussianBlur stdDeviation="2.5"/>
<feComposite in2="hardAlpha" operator="out"/>
<feColorMatrix type="matrix" values="0 0 0 0 0 0 0 0 0 0 0 0 0 0 0 0 0 0 0.1 0"/>
<feBlend mode="normal" in2="BackgroundImageFix" result="effect1_dropShadow_2031_947"/>
<feBlend mode="normal" in="SourceGraphic" in2="effect1_dropShadow_2031_947" result="shape"/>
</filter>
<clipPath id="clip0_2031_947">
<rect width="39.9201" height="40" fill="white" transform="translate(128 333)"/>
</clipPath>
<clipPath id="clip1_2031_947">
<rect width="21.4684" height="20" fill="white" transform="translate(162 155)"/>
</clipPath>
<clipPath id="clip2_2031_947">
<rect width="30" height="30" fill="white" transform="translate(241 13)"/>
</clipPath>
</defs>
</svg>
