<svg width="286" height="433" viewBox="0 0 286 433" fill="none" xmlns="http://www.w3.org/2000/svg">
<circle cx="26" cy="54" r="26" fill="#B4C8FB"/>
<g clip-path="url(#clip0_2031_948)">
<path d="M14.7715 68.9978L20.5421 59H43.6262L37.8551 68.9978H14.7715Z" fill="#3777E3"/>
<path d="M32.0835 58.9995H43.6251L32.0835 39.0039H20.541L32.0835 58.9995Z" fill="#FFCF63"/>
<path d="M9 58.9995L14.7714 68.9973L26.313 49.0017L20.5419 39.0039L9 58.9995Z" fill="#11A861"/>
</g>
<g clip-path="url(#clip1_2031_948)">
<path d="M261 234.414C274.484 234.414 285.414 223.484 285.414 210C285.414 196.516 274.484 185.586 261 185.586C247.516 185.586 236.586 196.516 236.586 210C236.586 223.484 247.516 234.414 261 234.414Z" fill="#5C6BC0"/>
<path d="M275.508 200.368C271.18 197.262 267.147 197.133 266.377 197.117L265.885 197.584C271.41 199.129 274.082 201.543 274.082 201.543C269.34 199.252 264.871 198.447 261 198.399C257.129 198.447 252.66 199.252 247.918 201.543C247.918 201.543 250.59 199.129 256.115 197.584L255.623 197.117C254.853 197.133 250.82 197.262 246.492 200.368C246.492 200.368 241.656 208.478 241.656 218.44C241.82 218.246 244.656 222.72 251.967 222.881C251.967 222.881 253.197 221.513 254.082 220.306C249.82 219.099 248.213 216.686 248.213 216.686C252.645 219.425 256.783 220.48 261 220.343C265.217 220.479 269.355 219.425 273.787 216.686C273.787 216.686 272.18 219.099 267.917 220.306C268.803 221.513 270.032 222.881 270.032 222.881C277.343 222.72 280.179 218.246 280.343 218.44C280.344 208.478 275.508 200.368 275.508 200.368ZM255.049 215.318C253.18 215.318 251.672 213.773 251.672 211.874C251.672 209.975 253.18 208.43 255.049 208.43V208.446C256.901 208.446 258.426 209.991 258.426 211.89C258.426 213.773 256.918 215.318 255.049 215.318H255.049ZM266.95 215.318C265.081 215.318 263.573 213.773 263.573 211.89C263.573 209.991 265.098 208.446 266.95 208.446V208.43C268.819 208.43 270.327 209.975 270.327 211.874C270.327 213.773 268.82 215.318 266.951 215.318H266.95Z" fill="white"/>
</g>
<circle cx="120.5" cy="198.5" r="36.5" fill="#0F0F10"/>
<g clip-path="url(#clip2_2031_948)">
<path d="M139.91 218.185C139.757 218.339 139.565 218.416 139.334 218.416C139.104 218.416 138.912 218.339 138.758 218.185C138.604 218.032 138.528 217.839 138.528 217.609C138.528 217.379 138.604 217.167 138.777 217.014C138.931 216.86 139.123 216.802 139.334 216.802C139.565 216.802 139.757 216.879 139.91 217.033C140.064 217.186 140.141 217.379 140.141 217.609C140.16 217.839 140.083 218.032 139.91 218.185ZM138.873 217.129C138.739 217.263 138.681 217.417 138.681 217.59C138.681 217.782 138.739 217.936 138.873 218.07C139.008 218.204 139.161 218.262 139.353 218.262C139.545 218.262 139.699 218.204 139.834 218.07C139.968 217.936 140.026 217.782 140.026 217.59C140.026 217.417 139.968 217.244 139.834 217.129C139.699 216.994 139.545 216.918 139.353 216.918C139.161 216.937 139.008 216.994 138.873 217.129ZM139.603 218.012C139.526 218.07 139.449 218.089 139.373 218.089C139.257 218.089 139.142 218.051 139.046 217.955C138.95 217.859 138.912 217.743 138.912 217.609C138.912 217.475 138.95 217.359 139.027 217.263C139.104 217.167 139.219 217.129 139.353 217.129C139.43 217.129 139.507 217.148 139.584 217.186C139.68 217.244 139.757 217.34 139.776 217.494H139.565C139.545 217.436 139.526 217.379 139.488 217.359C139.449 217.34 139.411 217.321 139.373 217.321C139.315 217.321 139.257 217.34 139.219 217.398C139.181 217.455 139.161 217.532 139.161 217.628C139.161 217.724 139.181 217.801 139.219 217.839C139.257 217.878 139.315 217.916 139.373 217.916C139.43 217.916 139.469 217.897 139.507 217.878L139.565 217.763H139.757C139.738 217.878 139.68 217.955 139.603 218.012ZM141.639 209.485C141.639 209.408 141.62 209.331 141.62 209.255C141.62 209.197 141.6 209.159 141.6 209.12C141.581 209.005 141.562 208.909 141.524 208.794C141.447 208.582 141.332 208.371 141.178 208.198C141.024 208.025 140.851 207.891 140.679 207.795C140.487 207.699 140.295 207.641 140.141 207.603C140.083 207.603 140.045 207.584 140.006 207.584C140.218 206.662 139.949 205.951 139.776 205.625L139.814 205.586C140.045 205.356 140.237 205.145 140.41 204.933L140.448 204.895C140.583 204.703 140.659 204.511 140.717 204.338C140.755 204.184 140.794 204.05 140.794 203.916V203.8V203.723V203.551C140.775 203.263 140.736 202.898 140.544 202.494C140.448 202.302 140.314 202.091 140.141 201.899C139.968 201.707 139.757 201.534 139.507 201.4C139.488 201.38 139.469 201.38 139.449 201.361C138.931 200.612 138.355 200.017 137.836 199.575C137.567 199.345 137.318 199.153 137.106 198.999C136.895 198.845 136.722 198.73 136.626 198.653C136.396 198.48 136.223 198.384 136.146 198.346C135.954 198.231 135.82 198.135 135.743 198.077C135.685 198.019 135.647 198 135.628 197.981C135.628 197.981 135.628 197.962 135.608 197.923C135.589 197.866 135.589 197.789 135.589 197.655C135.589 197.462 135.589 197.174 135.608 196.79C135.647 196.176 135.704 195.35 135.781 194.217C135.8 193.852 135.8 193.506 135.8 193.199C135.781 192.68 135.704 192.219 135.608 191.797C135.589 191.701 135.551 191.605 135.532 191.509C135.512 191.432 135.493 191.394 135.474 191.355C135.455 191.298 135.436 191.24 135.397 191.163C135.378 191.125 135.378 191.086 135.34 191.048C135.301 190.952 135.263 190.856 135.205 190.76L135.186 190.741L135.167 190.683L135.147 190.645C135.051 190.472 134.936 190.318 134.821 190.184C134.763 189.915 134.667 189.531 134.494 189.089C134.341 188.705 134.149 188.282 133.861 187.86C133.765 187.706 133.649 187.572 133.534 187.437L133.573 187.399C133.63 187.341 134.975 185.92 136.05 184.076C138.028 180.638 137.375 178.545 136.473 177.393L136.453 177.354L136.434 177.316C135.57 176.356 134.379 175.779 132.939 175.587C129.924 175.203 126.505 176.701 125.602 177.124L123.951 175.319C123.797 175.165 123.643 175.011 123.471 174.896C123.298 174.781 123.106 174.666 122.914 174.57C122.529 174.397 122.107 174.281 121.646 174.224C120.743 174.109 119.706 174.224 118.592 174.512C116.921 174.934 115.059 175.779 113.1 176.951C111.141 178.123 109.105 179.64 107.127 181.445C104.707 183.635 102.709 185.958 101.25 188.186C100.52 189.281 99.9246 190.356 99.4829 191.394C99.0412 192.411 98.7531 193.391 98.6378 194.274C98.561 194.927 98.561 195.542 98.6955 196.099C98.7531 196.349 98.8299 196.579 98.9451 196.809C99.0796 197.098 99.2524 197.366 99.4637 197.597L101.173 199.383L101.365 199.575L101.346 199.594L101.288 199.71C101.25 199.767 101.231 199.825 101.192 199.863L101.135 199.978C101.115 200.036 101.077 200.094 101.058 200.151L101 200.266C100.981 200.324 100.943 200.382 100.923 200.439C100.904 200.478 100.885 200.516 100.885 200.555L100.827 200.727C100.808 200.766 100.808 200.804 100.789 200.843C100.77 200.9 100.75 200.958 100.731 201.035C100.731 201.054 100.712 201.073 100.712 201.092C100.712 201.112 100.693 201.131 100.693 201.15C100.674 201.208 100.654 201.284 100.635 201.342C100.635 201.38 100.616 201.419 100.616 201.457C100.616 201.476 100.597 201.515 100.597 201.534C100.597 201.572 100.578 201.611 100.578 201.649C100.578 201.688 100.558 201.726 100.558 201.764C100.539 201.841 100.539 201.918 100.52 202.014C100.52 202.033 100.52 202.053 100.501 202.091V202.11C100.501 202.168 100.482 202.225 100.482 202.264C100.482 202.341 100.462 202.437 100.462 202.514V203.474C100.462 203.512 100.462 203.551 100.482 203.589C100.482 203.627 100.482 203.685 100.501 203.743V203.8C100.501 203.839 100.52 203.896 100.52 203.935C100.52 203.973 100.539 204.012 100.539 204.069C100.539 204.088 100.539 204.108 100.558 204.127C100.558 204.146 100.578 204.184 100.578 204.204V204.242C100.578 204.28 100.597 204.319 100.616 204.396C100.616 204.415 100.616 204.415 100.635 204.434C100.654 204.472 100.654 204.511 100.654 204.53L100.674 204.568C100.674 204.588 100.674 204.588 100.693 204.607L100.712 204.645V204.703C100.712 204.722 100.712 204.722 100.731 204.741L100.75 204.78C100.75 204.818 100.77 204.837 100.77 204.876C100.789 204.914 100.789 204.953 100.808 205.029C100.808 205.049 100.808 205.049 100.827 205.068C100.846 205.125 100.866 205.164 100.866 205.183C100.885 205.221 100.904 205.26 100.923 205.337L100.943 205.356C100.962 205.394 100.962 205.433 100.981 205.452L101 205.49C101 205.51 101.019 205.529 101.019 205.548C101.019 205.567 101.039 205.606 101.058 205.625L101.077 205.663C101.096 205.682 101.096 205.721 101.115 205.74C101.135 205.759 101.135 205.778 101.135 205.798C101.154 205.836 101.173 205.874 101.192 205.932L101.211 205.951C101.231 205.97 101.231 205.99 101.25 206.009C101.269 206.028 101.269 206.067 101.288 206.086C101.307 206.105 101.327 206.143 101.346 206.201L101.365 206.22C101.384 206.239 101.384 206.259 101.403 206.278C101.423 206.316 101.442 206.335 101.442 206.355C101.461 206.374 101.48 206.412 101.499 206.451V206.47C101.519 206.489 101.519 206.508 101.538 206.527C101.557 206.566 101.576 206.585 101.595 206.604C101.615 206.623 101.634 206.662 101.672 206.72C101.692 206.739 101.711 206.758 101.711 206.777C101.73 206.816 101.749 206.835 101.768 206.854C101.788 206.873 101.807 206.912 101.826 206.95C101.845 206.969 101.864 207.008 101.884 207.027C101.903 207.065 101.922 207.084 101.96 207.104L102.018 207.161L102.037 207.18C102.076 207.219 102.095 207.257 102.133 207.296L102.172 207.334L102.229 207.392L102.344 207.507L102.383 207.545L102.441 207.603L102.46 207.622C102.498 207.661 102.556 207.699 102.594 207.757L102.613 207.776C102.633 207.795 102.652 207.795 102.671 207.833C102.729 207.891 102.786 207.929 102.844 207.987L102.882 208.006L102.901 208.025L102.94 208.045C102.997 208.083 103.036 208.122 103.094 208.16L103.113 208.179C103.132 208.198 103.151 208.198 103.151 208.198L103.19 208.237C103.228 208.275 103.266 208.294 103.305 208.333L103.343 208.352L103.382 208.39L103.401 208.41C103.439 208.429 103.497 208.467 103.535 208.486C103.554 208.506 103.574 208.525 103.612 208.525L103.65 208.544L103.67 208.563H103.689C103.766 208.602 103.823 208.64 103.881 208.678L103.919 208.698L104.15 208.813H104.169L104.207 208.832L104.323 208.89C104.342 208.89 104.361 208.909 104.38 208.909C104.399 208.928 104.419 208.928 104.457 208.947H104.476C104.515 208.967 104.553 208.986 104.592 208.986H104.611C104.649 209.005 104.688 209.024 104.745 209.043H104.764L104.803 209.063C104.822 209.063 104.841 209.082 104.86 209.082H104.88C104.937 209.101 104.995 209.12 105.072 209.139H105.091C105.187 209.178 105.283 209.197 105.379 209.216H105.398C105.475 209.235 105.571 209.255 105.648 209.274H105.725C105.801 209.293 105.878 209.312 105.955 209.312H106.032C106.09 209.312 106.128 209.331 106.186 209.331C106.186 209.351 106.205 209.37 106.205 209.389C106.339 209.754 106.474 210.119 106.627 210.465C108.894 216.745 115.174 221.623 122.337 222.526C129.501 223.409 137.164 218.646 140.275 212.212C140.41 211.963 140.525 211.732 140.64 211.482C140.947 211.156 141.197 210.829 141.351 210.484C141.6 210.273 141.658 209.85 141.639 209.485Z" fill="#664F44"/>
<path d="M135.513 178.067C135.167 177.683 134.764 177.395 134.322 177.183C134.246 177.145 134.169 177.126 134.073 177.107C134.034 177.087 133.996 177.049 133.957 177.03C133.573 176.876 133.17 176.78 132.747 176.722C130.673 176.454 128.292 177.222 126.947 177.76C126.871 177.798 126.794 177.817 126.717 177.856C126.602 177.913 126.487 177.952 126.371 178.009C126.179 178.086 125.987 178.182 125.776 178.278C125.737 178.297 125.718 178.297 125.68 178.317L125.315 177.894L125.142 177.702L124.988 177.529L124.931 177.452L123.529 175.839L123.414 175.705L123.26 175.532H123.241L122.837 175.628L122.377 175.724C122.127 175.609 121.82 175.532 121.474 175.474C120.782 175.378 119.899 175.474 118.9 175.724C117.902 175.973 116.769 176.415 115.578 177.011C113.177 178.201 110.527 180.026 107.953 182.369C107.051 183.176 106.225 184.021 105.457 184.846C104.707 185.653 104.035 186.479 103.421 187.266C102.172 188.899 101.231 190.474 100.617 191.895C100.213 192.836 99.9637 193.7 99.8677 194.449C99.7909 194.987 99.8101 195.467 99.9061 195.851C99.9445 195.986 99.9829 196.082 100.021 196.197C100.117 196.427 100.233 196.619 100.386 196.792L101.942 198.425L102.115 198.598L102.134 198.578C102.172 198.521 102.23 198.463 102.288 198.425L102.307 198.405L102.364 198.348C102.403 198.29 102.46 198.252 102.499 198.194C102.537 198.156 102.556 198.137 102.595 198.117C102.633 198.098 102.653 198.06 102.691 198.041L102.729 198.002C102.768 197.983 102.787 197.945 102.825 197.925C102.864 197.887 102.921 197.849 102.96 197.81C102.979 197.791 103.017 197.772 103.037 197.752H103.056C103.113 197.714 103.152 197.676 103.209 197.637C103.248 197.618 103.267 197.599 103.305 197.56C103.363 197.522 103.402 197.484 103.459 197.445C103.498 197.426 103.517 197.407 103.555 197.388C103.613 197.349 103.67 197.311 103.728 197.292C103.766 197.272 103.786 197.253 103.824 197.234C103.882 197.196 103.939 197.176 103.997 197.138C104.035 197.119 104.055 197.099 104.093 197.08L104.131 197.061C104.189 197.042 104.227 197.003 104.285 196.984C104.304 196.965 104.343 196.965 104.362 196.946C104.4 196.927 104.439 196.907 104.496 196.888L104.611 196.831L104.65 196.811L104.938 196.696C104.976 196.677 104.996 196.677 105.034 196.658C105.072 196.639 105.092 196.639 105.13 196.619L105.168 196.6C105.188 196.6 105.207 196.581 105.226 196.581C105.264 196.562 105.303 196.562 105.36 196.543H105.399C105.457 196.523 105.495 196.523 105.553 196.504C105.591 196.485 105.649 196.485 105.687 196.466C105.745 196.447 105.802 196.447 105.86 196.427C105.879 196.427 105.898 196.408 105.937 196.408C105.956 196.408 105.994 196.408 106.013 196.389C106.071 196.37 106.129 196.37 106.186 196.37C106.244 196.37 106.282 196.35 106.34 196.35C106.378 196.35 106.417 196.331 106.455 196.331H106.609C106.801 196.331 107.031 196.331 107.262 196.35H107.3C107.531 196.37 107.8 196.408 108.068 196.466C108.126 196.485 108.203 196.485 108.261 196.504C108.28 196.485 108.28 196.447 108.299 196.427C108.453 196.178 108.587 195.909 108.741 195.659C109.605 194.219 110.527 192.951 111.468 191.837C111.794 191.453 112.121 191.107 112.447 190.762C113.811 189.34 115.174 188.246 116.404 187.401C116.673 187.209 116.961 187.036 117.21 186.863C117.575 186.633 117.921 186.44 118.247 186.248C118.516 186.095 118.766 185.96 119.016 185.845C119.419 185.634 119.784 185.461 120.11 185.327L120.398 185.211C120.533 185.154 120.667 185.096 120.782 185.058C120.686 185.038 120.571 185.038 120.475 185.038H120.091C119.995 185.038 119.88 185.038 119.784 185.058C119.592 185.077 119.38 185.096 119.169 185.115C119.092 185.134 119.035 185.134 118.958 185.154C119.477 184.885 119.995 184.693 120.475 184.539C120.802 184.443 121.128 184.366 121.435 184.309C121.858 184.232 122.261 184.174 122.626 184.155C122.876 184.136 123.106 184.136 123.318 184.136C123.529 184.136 123.74 184.155 123.913 184.155C124.547 184.193 124.931 184.289 124.931 184.289C124.835 184.155 124.72 184.059 124.604 183.963C124.374 183.79 124.124 183.675 123.894 183.579C123.798 183.54 123.721 183.521 123.644 183.483C123.586 183.464 123.529 183.444 123.49 183.444C123.606 183.425 123.702 183.406 123.798 183.406C123.913 183.387 124.009 183.387 124.124 183.368C125.027 183.291 125.834 183.368 126.429 183.464C127.139 183.598 127.581 183.771 127.581 183.771C127.485 183.579 127.332 183.406 127.159 183.252C127.043 183.156 126.909 183.06 126.794 182.983C127.043 183.041 127.255 183.099 127.485 183.176C128.061 183.348 128.541 183.56 128.926 183.732L129.271 183.905C129.31 183.925 129.329 183.944 129.348 183.944C129.694 184.136 129.886 184.27 129.886 184.27C129.828 184.059 129.713 183.867 129.559 183.694C129.521 183.656 129.483 183.598 129.444 183.56H129.463C129.483 183.56 129.502 183.579 129.54 183.579C129.559 183.579 129.598 183.598 129.636 183.617C129.79 183.675 130.02 183.771 130.289 183.905C130.308 183.905 130.308 183.925 130.328 183.925L130.443 183.982C130.539 184.04 130.635 184.078 130.731 184.155L131.019 184.328C131.077 184.366 131.115 184.385 131.173 184.424C131.269 184.501 131.384 184.578 131.48 184.674C131.595 184.77 131.691 184.866 131.787 184.962L131.845 185.019C131.922 185.096 131.998 185.173 132.056 185.25C132.191 185.403 132.306 185.576 132.421 185.749C132.555 185.96 132.651 186.21 132.747 186.46C132.747 186.479 132.747 186.498 132.767 186.498C132.824 186.44 132.94 186.325 133.074 186.172C134.188 184.866 137.53 180.64 135.513 178.067Z" fill="#132134"/>
<path d="M140.487 209.62C140.487 209.62 140.525 209.332 140.372 209.063C140.372 209.044 140.352 209.025 140.352 209.025L140.333 209.006L140.276 208.948C140.237 208.91 140.199 208.871 140.141 208.833C140.122 208.814 140.083 208.795 140.045 208.775C139.949 208.737 139.853 208.699 139.719 208.679C139.623 208.66 139.527 208.66 139.411 208.66H139.258V208.699C139.258 208.718 139.277 208.737 139.277 208.775C139.277 208.795 139.277 208.814 139.296 208.814C139.315 208.871 139.334 208.967 139.354 209.044C139.354 209.044 139.354 209.063 139.334 209.102V209.121C139.277 209.256 139.123 209.563 138.777 209.947C138.72 210.024 138.662 210.081 138.585 210.158C137.625 211.157 135.551 212.559 131.172 213.346C129.693 213.558 128.311 213.577 127.158 213.423C125.43 213.212 124.143 212.655 123.528 211.906C123.471 211.848 123.432 211.771 123.375 211.714C123.336 211.656 123.317 211.618 123.279 211.56C123.259 211.541 123.259 211.522 123.24 211.503C122.991 211.042 122.875 210.542 122.875 210.062C122.875 209.467 123.067 208.91 123.375 208.487C123.624 208.142 123.951 207.873 124.354 207.758C124.546 207.7 124.758 207.661 124.969 207.681C125.007 207.681 125.065 207.681 125.142 207.7C125.276 207.719 125.487 207.738 125.737 207.777C125.756 207.777 125.795 207.777 125.814 207.796C126.64 207.892 127.946 208.026 129.52 207.93C132.401 207.758 136.185 206.855 139.623 203.744V203.724C139.642 203.455 139.603 202.995 139.277 202.63C139.219 202.572 139.162 202.514 139.085 202.457C139.046 202.418 138.989 202.399 138.95 202.361C138.893 202.342 138.854 202.303 138.816 202.284L138.643 202.169V202.15C138.624 202.111 138.605 202.073 138.566 202.034C137.683 200.69 136.454 199.902 135.954 199.538C135.724 199.365 135.57 199.288 135.57 199.288C134.514 198.635 134.36 198.424 134.456 196.676C134.495 196.042 134.552 195.216 134.629 194.083C134.629 193.93 134.648 193.795 134.648 193.661V193.565V193.104C134.648 193.008 134.629 192.912 134.629 192.835C134.629 192.796 134.629 192.758 134.61 192.72C134.591 192.624 134.591 192.528 134.571 192.432C134.571 192.393 134.552 192.336 134.552 192.297C134.552 192.24 134.533 192.201 134.514 192.143C134.495 192.105 134.495 192.047 134.475 192.009C134.456 191.951 134.437 191.894 134.437 191.836C134.437 191.817 134.418 191.798 134.418 191.779C134.418 191.759 134.399 191.74 134.399 191.721V191.702L134.379 191.644C134.36 191.606 134.341 191.567 134.341 191.529V191.51L134.322 191.471L134.303 191.433C134.264 191.356 134.245 191.279 134.207 191.222L134.187 191.164C134.149 191.106 134.111 191.03 134.072 190.972L134.053 190.953L134.034 190.934C133.995 190.895 133.976 190.857 133.938 190.818L133.899 190.761C133.861 190.703 133.822 190.665 133.784 190.626V190.473C133.765 190.396 133.746 190.3 133.726 190.204C133.726 190.185 133.707 190.146 133.707 190.127V190.108C133.707 190.069 133.688 190.05 133.688 190.012C133.669 189.935 133.65 189.858 133.611 189.781C133.611 189.762 133.592 189.724 133.592 189.704L133.534 189.532C133.515 189.493 133.515 189.455 133.496 189.436C133.477 189.378 133.458 189.32 133.419 189.263L133.362 189.147C133.342 189.09 133.304 189.032 133.285 188.975L133.227 188.859C133.189 188.802 133.169 188.744 133.131 188.686L133.073 188.571C133.035 188.514 132.997 188.456 132.958 188.379C132.939 188.341 132.92 188.322 132.901 188.283C132.881 188.264 132.862 188.226 132.843 188.206C132.785 188.149 132.747 188.091 132.689 188.034L132.651 188.014C132.574 187.937 132.517 187.861 132.44 187.803L132.42 187.784C132.382 187.765 132.344 187.726 132.324 187.707H132.305C132.267 187.688 132.248 187.669 132.209 187.649L132.19 187.63C132.152 187.611 132.094 187.573 132.017 187.534C131.998 187.515 131.96 187.515 131.921 187.496C131.748 187.438 131.537 187.361 131.268 187.284C131.249 187.284 131.23 187.284 131.211 187.265C130.999 187.208 130.75 187.15 130.481 187.112C130.385 187.092 130.308 187.092 130.212 187.073C130.173 187.073 130.135 187.073 130.077 187.054H130.02C129.809 187.035 129.616 187.016 129.405 187.016H129.386C129.117 187.016 128.848 187.035 128.599 187.092C128.656 186.996 128.829 186.881 128.983 186.785C129.194 186.67 129.386 186.593 129.386 186.593C129.271 186.593 129.156 186.612 129.04 186.632C129.002 186.632 128.963 186.651 128.925 186.651C128.906 186.651 128.867 186.651 128.848 186.67H128.829C128.81 186.67 128.791 186.67 128.771 186.689C128.176 186.824 127.6 187.035 127.273 187.169L127.158 187.227H127.139C127.101 187.227 127.081 187.227 127.043 187.246C127.273 186.804 127.619 186.574 127.888 186.459C127.926 186.439 127.984 186.42 128.022 186.401C128.042 186.401 128.042 186.401 128.061 186.382C128.099 186.363 128.138 186.363 128.157 186.343C128.214 186.324 128.253 186.324 128.253 186.324H127.946C127.293 186.401 126.697 186.612 126.198 186.9C125.852 187.092 125.545 187.304 125.276 187.515C125.199 187.534 125.142 187.553 125.065 187.553C124.335 187.707 123.509 187.899 122.645 188.168C122.318 188.264 121.992 188.379 121.665 188.494C121.416 188.59 121.147 188.686 120.897 188.783C120.705 188.859 120.532 188.936 120.34 189.013C119.015 189.608 117.69 190.396 116.595 191.452L116.48 191.567L116.192 191.855L116.077 191.971C116.038 192.028 115.981 192.086 115.942 192.124C115.731 192.355 115.539 192.604 115.347 192.873C115.212 193.065 115.078 193.277 114.963 193.488L114.944 193.507C114.694 193.949 114.463 194.41 114.291 194.928C114.194 195.178 114.118 195.447 114.041 195.716C114.022 195.793 114.002 195.85 113.983 195.927L113.964 195.965C113.887 196.253 113.83 196.561 113.791 196.868C113.791 196.926 113.772 196.983 113.772 197.06C113.753 197.214 113.734 197.367 113.734 197.54C113.714 197.694 113.714 197.828 113.714 197.982V198.577C113.714 198.75 113.714 198.923 113.734 199.096V199.115C113.734 199.288 113.753 199.461 113.772 199.653C113.772 199.73 113.791 199.806 113.791 199.883V199.941C113.791 199.979 113.791 200.018 113.81 200.075C113.83 200.267 113.868 200.479 113.887 200.69C113.887 200.748 113.906 200.805 113.906 200.863C113.945 201.036 113.964 201.228 114.002 201.401C114.002 201.401 113.964 201.17 113.983 200.824C113.983 200.748 114.002 200.652 114.002 200.575C114.022 200.383 114.06 200.152 114.137 199.941L114.194 199.768C114.194 199.749 114.214 199.73 114.233 199.691C114.271 199.595 114.329 199.48 114.387 199.384C114.406 199.461 114.406 199.538 114.425 199.595V200.613C114.444 201.266 114.502 202.054 114.636 202.726C114.636 202.726 114.655 201.516 114.867 201.362C114.867 201.362 115.232 203.628 115.558 204.473C115.596 204.589 115.654 204.665 115.693 204.723V204.493L115.654 203.244V203.11C115.904 203.628 116.192 204.147 116.518 204.704C116.614 204.857 116.691 205.011 116.787 205.165C116.173 205.703 115.596 206.49 115.174 207.412C115.116 207.565 115.04 207.719 114.982 207.873C114.944 207.969 114.924 208.046 114.886 208.142C114.886 208.161 114.867 208.199 114.867 208.218C114.847 208.276 114.828 208.353 114.809 208.411C114.809 208.449 114.79 208.468 114.79 208.507C114.771 208.564 114.751 208.641 114.732 208.699C114.732 208.737 114.713 208.756 114.713 208.795L114.655 209.083C114.636 209.179 114.617 209.275 114.617 209.371C114.617 209.409 114.617 209.428 114.598 209.467C114.598 209.544 114.579 209.601 114.579 209.678C114.579 209.716 114.579 209.755 114.559 209.793C114.559 209.87 114.54 209.928 114.54 210.005V210.677C114.54 210.754 114.54 210.83 114.559 210.926V210.984C114.559 211.08 114.579 211.176 114.598 211.291C114.598 211.33 114.598 211.349 114.617 211.387C114.617 211.464 114.636 211.522 114.655 211.599C114.655 211.637 114.675 211.675 114.675 211.714C114.694 211.771 114.694 211.848 114.713 211.906C114.713 211.944 114.732 211.983 114.732 212.021C114.751 212.079 114.771 212.136 114.771 212.213C114.79 212.252 114.79 212.29 114.809 212.348C114.828 212.405 114.847 212.482 114.867 212.54C114.886 212.578 114.886 212.617 114.905 212.655C114.924 212.713 114.944 212.789 114.963 212.847C114.982 212.885 114.982 212.924 115.001 212.962C115.02 213.039 115.059 213.116 115.078 213.173C115.097 213.212 115.097 213.231 115.116 213.269L115.404 213.903C115.424 213.942 115.443 213.961 115.462 213.999L115.577 214.23C115.596 214.268 115.616 214.307 115.654 214.345C115.693 214.403 115.731 214.479 115.769 214.537C115.789 214.575 115.827 214.614 115.846 214.652C115.885 214.71 115.923 214.787 115.981 214.844C116.019 214.883 116.038 214.921 116.077 214.979C116.115 215.036 116.173 215.113 116.211 215.171C116.249 215.209 116.269 215.248 116.307 215.305C116.365 215.363 116.403 215.44 116.461 215.497C116.499 215.536 116.518 215.574 116.557 215.613C116.614 215.689 116.672 215.747 116.749 215.824L116.845 215.92C116.941 216.016 117.037 216.131 117.133 216.227C117.133 216.227 117.075 216.15 116.998 215.997C116.979 215.977 116.96 215.939 116.96 215.901L116.902 215.785C116.883 215.747 116.864 215.709 116.845 215.651C116.691 215.305 116.557 214.806 116.576 214.268L116.749 214.499C116.806 214.633 116.902 214.806 116.998 214.998C117.037 215.056 117.075 215.132 117.095 215.19C117.248 215.459 117.402 215.766 117.594 216.054C117.824 216.419 118.055 216.765 118.304 217.091C118.304 217.091 118.016 216.477 117.92 216.073C117.901 215.958 117.882 215.862 117.901 215.805C117.92 215.824 117.94 215.862 117.978 215.881C117.997 215.901 118.016 215.939 118.055 215.958C118.093 216.016 118.151 216.093 118.228 216.189L118.266 216.227C118.304 216.266 118.324 216.323 118.362 216.362C118.4 216.419 118.439 216.477 118.497 216.534C118.9 217.053 119.457 217.744 119.841 218.109C119.975 218.225 120.091 218.321 120.167 218.359L119.61 217.36C120.878 218.397 126.14 219.723 131.307 218.244C131.94 218.071 132.555 217.84 133.169 217.572C133.534 217.418 133.899 217.226 134.264 217.034L134.322 216.995C134.571 216.861 134.821 216.707 135.071 216.554C135.263 216.438 135.455 216.304 135.628 216.189C135.935 215.977 136.242 215.747 136.55 215.497C136.569 215.478 136.588 215.459 136.607 215.459C136.895 215.209 137.183 214.94 137.433 214.671C137.779 214.307 138.086 213.942 138.355 213.577L138.374 213.558C138.451 213.462 138.509 213.385 138.566 213.289L138.585 213.269C138.605 213.231 138.624 213.212 138.643 213.173C138.739 213.039 138.816 212.924 138.912 212.789C138.931 212.751 138.95 212.732 138.97 212.693C139.008 212.617 139.046 212.559 139.104 212.482C139.142 212.424 139.162 212.386 139.2 212.328C139.238 212.271 139.277 212.213 139.296 212.156C139.354 212.06 139.411 211.944 139.469 211.848L139.527 211.733L139.642 211.503L139.699 211.387L139.719 211.349C139.757 211.253 139.815 211.157 139.853 211.061V211.042C140.026 210.888 140.141 210.734 140.256 210.6C140.276 210.581 140.295 210.562 140.295 210.542C140.41 210.177 140.487 209.889 140.487 209.62ZM109.585 205.895C109.585 205.875 109.585 205.856 109.566 205.818C109.508 205.491 109.451 205.146 109.432 204.8V204.723C109.374 204.742 109.316 204.819 109.239 204.915C109.22 204.954 109.182 204.992 109.163 205.05C108.99 205.376 108.836 205.837 108.836 205.837C108.855 205.683 108.875 205.53 108.875 205.376V205.318C108.894 205.165 108.913 204.992 108.932 204.838V204.781C108.951 204.589 108.99 204.416 109.028 204.243C109.028 204.224 109.028 204.205 109.047 204.166V204.147C109.047 204.128 109.047 204.108 109.067 204.089C109.067 204.051 109.086 204.032 109.086 203.993C109.105 203.859 109.143 203.724 109.163 203.59C109.182 203.475 109.201 203.359 109.22 203.263V203.225C109.22 203.206 109.22 203.187 109.239 203.187V203.148C109.239 203.129 109.259 203.091 109.259 203.071C109.259 203.052 109.259 203.033 109.278 203.014C109.278 202.975 109.297 202.937 109.297 202.918C109.297 202.899 109.316 202.86 109.316 202.841C109.316 202.803 109.336 202.764 109.336 202.745C109.336 202.726 109.336 202.706 109.355 202.687C109.355 202.668 109.355 202.649 109.374 202.649C109.374 202.61 109.393 202.591 109.393 202.572V202.514L109.355 202.553C109.316 202.572 109.297 202.61 109.259 202.63L109.22 202.668C109.182 202.706 109.143 202.745 109.124 202.783L109.105 202.803L108.99 202.975L108.971 202.995C108.971 203.014 108.951 203.014 108.951 203.033L108.894 203.148V203.187C108.875 203.244 108.836 203.302 108.817 203.359C108.759 203.513 108.702 203.667 108.663 203.801C108.644 203.84 108.644 203.897 108.625 203.916C108.606 203.993 108.586 204.07 108.586 204.089C108.586 204.032 108.586 203.993 108.606 203.936C108.606 203.84 108.625 203.724 108.625 203.628C108.625 203.552 108.644 203.456 108.663 203.379C108.663 203.359 108.663 203.321 108.683 203.302C108.683 203.263 108.702 203.225 108.702 203.187C108.702 203.148 108.721 203.11 108.721 203.071V203.014C108.721 202.975 108.74 202.918 108.74 202.879V202.783V202.745C108.74 202.726 108.74 202.706 108.759 202.687C108.779 202.63 108.798 202.553 108.798 202.495V202.476C108.817 202.438 108.817 202.38 108.836 202.342V202.322C108.855 202.226 108.894 202.13 108.913 202.034V201.996C108.913 201.977 108.913 201.957 108.932 201.938C108.971 201.785 109.028 201.631 109.067 201.497V201.477C109.105 201.362 109.163 201.228 109.201 201.112V201.093C109.22 201.036 109.239 200.997 109.259 200.94C109.297 200.863 109.316 200.786 109.355 200.709C109.355 200.69 109.374 200.652 109.412 200.575C109.432 200.555 109.432 200.517 109.451 200.498C109.47 200.459 109.489 200.421 109.508 200.363L109.528 200.325L109.854 199.73C109.873 199.71 109.873 199.672 109.892 199.653V199.634L109.912 199.595C109.95 199.538 109.988 199.461 110.027 199.403C110.085 199.307 110.123 199.211 110.181 199.134C110.277 198.961 110.353 198.808 110.411 198.731C110.43 198.673 110.449 198.654 110.469 198.635C110.449 198.635 110.353 198.558 110.2 198.462C110.008 198.347 109.739 198.193 109.412 198.04C109.297 197.982 109.201 197.944 109.086 197.886C108.951 197.828 108.798 197.771 108.644 197.713C108.606 197.694 108.567 197.694 108.529 197.675C108.394 197.636 108.279 197.598 108.145 197.559C108.049 197.54 107.953 197.521 107.876 197.502C107.799 197.483 107.722 197.483 107.645 197.463C107.607 197.463 107.569 197.463 107.53 197.444C107.492 197.444 107.453 197.444 107.415 197.425C107.319 197.425 107.204 197.406 107.108 197.406H106.954C106.724 197.406 106.512 197.425 106.301 197.463H106.263C105.879 197.521 105.514 197.617 105.149 197.751C105.033 197.79 104.918 197.848 104.784 197.905C104.745 197.924 104.726 197.944 104.688 197.944L104.573 198.001C104.227 198.174 103.9 198.404 103.593 198.654H103.574C103.305 198.865 103.075 199.115 102.863 199.365L102.69 199.595C102.614 199.691 102.556 199.787 102.498 199.883C102.383 200.056 102.268 200.248 102.172 200.44C102.133 200.517 102.095 200.575 102.076 200.652C102.076 200.671 102.057 200.671 102.057 200.69C101.865 201.151 101.711 201.631 101.653 202.15C101.634 202.246 101.634 202.342 101.615 202.457V202.495C101.615 202.572 101.596 202.649 101.596 202.745V203.091C101.596 203.167 101.596 203.244 101.615 203.321V203.417C101.615 203.475 101.634 203.532 101.634 203.59V203.609C101.634 203.648 101.634 203.667 101.653 203.705C101.653 203.763 101.673 203.82 101.673 203.859C101.673 203.897 101.692 203.936 101.692 203.974C101.711 204.032 101.711 204.07 101.73 204.128C101.73 204.166 101.749 204.205 101.769 204.243V204.262L101.788 204.301V204.339L101.807 204.377C101.826 204.416 101.826 204.454 101.845 204.493C101.865 204.531 101.865 204.589 101.884 204.627C101.903 204.665 101.922 204.704 101.922 204.761L101.941 204.8C101.961 204.838 101.961 204.857 101.98 204.896C101.999 204.934 102.018 204.973 102.037 205.03L102.095 205.146C102.114 205.165 102.114 205.184 102.133 205.203C102.153 205.222 102.153 205.242 102.172 205.261L102.229 205.376C102.249 205.414 102.268 205.472 102.306 205.51C102.326 205.549 102.345 205.587 102.364 205.607C102.383 205.645 102.422 205.703 102.441 205.741C102.46 205.779 102.479 205.799 102.498 205.837C102.518 205.875 102.556 205.933 102.594 205.971C102.614 206.01 102.633 206.029 102.652 206.048C102.69 206.087 102.71 206.144 102.748 206.183C102.767 206.202 102.786 206.24 102.806 206.26C102.844 206.298 102.882 206.356 102.921 206.394C102.94 206.413 102.959 206.432 102.978 206.471C103.017 206.509 103.055 206.567 103.094 206.605L103.151 206.663C103.19 206.701 103.228 206.759 103.286 206.797L103.343 206.855L103.478 206.989C103.497 207.009 103.516 207.028 103.535 207.028C103.574 207.066 103.631 207.105 103.689 207.162C103.708 207.181 103.728 207.181 103.747 207.201C103.804 207.239 103.843 207.277 103.9 207.316C103.92 207.335 103.939 207.335 103.939 207.354L104.112 207.469L104.15 207.489L104.323 207.604L104.361 207.623C104.419 207.661 104.496 207.7 104.553 207.738L104.592 207.758C104.649 207.796 104.726 207.834 104.784 207.854L104.822 207.873C104.899 207.911 104.957 207.93 105.033 207.969L105.053 207.988C105.13 208.026 105.206 208.046 105.264 208.084H105.283C105.36 208.103 105.437 208.142 105.514 208.161H105.533C105.571 208.18 105.61 208.18 105.648 208.199C105.686 208.218 105.725 208.218 105.782 208.238H105.802C105.879 208.257 105.975 208.276 106.051 208.295C106.128 208.314 106.224 208.334 106.301 208.334C106.57 208.372 106.839 208.391 107.108 208.411H107.3C107.396 208.411 107.473 208.411 107.569 208.391C107.684 208.372 107.818 208.372 107.953 208.353C108.068 208.334 108.183 208.314 108.279 208.295C108.452 208.257 108.625 208.218 108.779 208.161C109.278 208.026 109.7 207.834 109.969 207.623C109.969 207.623 109.796 206.855 109.662 206.087C109.624 206.048 109.604 205.971 109.585 205.895Z" fill="#90694C"/>
<path d="M121.916 177.356L121.858 176.588L122.242 175.743L122.396 175.704C122.146 175.589 121.839 175.512 121.493 175.455C120.802 175.359 119.919 175.455 118.92 175.704C117.921 175.954 116.788 176.396 115.597 176.991C113.197 178.182 110.546 180.006 107.973 182.349C107.07 183.156 106.244 184.001 105.476 184.827C104.727 185.634 104.055 186.459 103.44 187.247C102.192 188.879 101.251 190.454 100.636 191.875C100.233 192.816 99.9833 193.681 99.8872 194.43C99.8104 194.967 99.8296 195.448 99.9257 195.832C99.9641 195.966 100.002 196.062 100.041 196.177C100.137 196.408 100.252 196.6 100.406 196.773L101.961 198.405L102.134 198.578L102.153 198.559C102.192 198.501 102.25 198.444 102.307 198.405L102.326 198.386L102.384 198.328C102.422 198.271 102.48 198.232 102.518 198.175C102.557 198.136 102.576 198.117 102.614 198.098C102.653 198.079 102.672 198.04 102.71 198.021L102.749 197.983C102.787 197.963 102.806 197.925 102.845 197.906C102.883 197.867 102.941 197.829 102.979 197.791C102.999 197.771 103.037 197.752 103.056 197.733H103.075C103.133 197.695 103.171 197.656 103.229 197.618C103.267 197.599 103.287 197.579 103.325 197.541C103.383 197.502 103.421 197.464 103.479 197.426C103.517 197.406 103.536 197.387 103.575 197.368C103.632 197.33 103.69 197.291 103.748 197.272C103.786 197.253 103.805 197.234 103.844 197.214C103.901 197.176 103.959 197.157 104.016 197.118C104.055 197.099 104.074 197.08 104.112 197.061L104.151 197.042C104.516 196.024 105.073 194.891 105.803 193.738C106.686 192.317 107.819 190.819 109.163 189.321C110.009 188.38 110.93 187.439 111.929 186.536C113.216 185.365 114.541 184.308 115.847 183.386C116.73 182.772 117.595 182.215 118.44 181.735C118.517 181.696 118.593 181.639 118.689 181.6C118.92 181.466 119.131 181.351 119.362 181.235C119.842 180.986 120.322 180.755 120.783 180.563L120.552 180.294L120.514 180.256L120.226 179.929L118.632 178.009L118.651 176.626L118.632 176.607L119.765 176.261L121.916 177.356Z" fill="#2F83C1"/>
<path d="M140.488 209.62C140.488 209.62 140.526 209.332 140.372 209.063C140.372 209.044 140.353 209.024 140.353 209.024L140.334 209.005L140.276 208.948C140.238 208.909 140.199 208.871 140.142 208.832C140.123 208.813 140.084 208.794 140.046 208.775C139.95 208.736 139.854 208.698 139.719 208.679C139.623 208.66 139.527 208.66 139.412 208.66H139.258V208.698C139.258 208.717 139.278 208.736 139.278 208.775C139.278 208.794 139.278 208.813 139.297 208.813C139.316 208.871 139.335 208.967 139.354 209.044C139.354 209.044 139.354 209.063 139.335 209.101V209.121C139.278 209.255 139.124 209.562 138.778 209.946C138.721 210.023 138.663 210.081 138.586 210.158C137.626 211.156 135.552 212.558 131.173 213.346C129.694 213.557 128.311 213.576 127.159 213.423C125.43 213.211 124.144 212.654 123.529 211.905C123.472 211.848 123.433 211.771 123.375 211.713C123.337 211.656 123.318 211.617 123.279 211.56C123.26 211.54 123.26 211.521 123.241 211.502C122.991 211.041 122.876 210.542 122.876 210.062C122.876 209.466 123.068 208.909 123.375 208.487C123.625 208.141 123.952 207.872 124.355 207.757C124.547 207.699 124.758 207.661 124.97 207.68C125.008 207.68 125.066 207.68 125.142 207.699C125.277 207.719 125.488 207.738 125.738 207.776C125.757 207.776 125.795 207.776 125.815 207.795C126.64 207.891 127.946 208.026 129.521 207.93C132.402 207.757 136.186 206.854 139.623 203.743V203.724C139.643 203.455 139.604 202.994 139.278 202.629C139.22 202.571 139.162 202.514 139.086 202.456C139.047 202.418 138.99 202.399 138.951 202.36C138.893 202.341 138.855 202.303 138.817 202.283L138.644 202.168V202.149C138.625 202.111 138.605 202.072 138.567 202.034C137.684 200.689 136.454 199.902 135.955 199.537C135.725 199.364 135.571 199.287 135.571 199.287C134.515 198.634 134.361 198.423 134.457 196.675C134.495 196.042 134.553 195.216 134.63 194.083C134.63 193.929 134.649 193.795 134.649 193.66V193.564V193.103C134.649 193.007 134.63 192.911 134.63 192.834C134.63 192.796 134.63 192.757 134.611 192.719C134.591 192.623 134.591 192.527 134.572 192.431C134.572 192.393 134.553 192.335 134.553 192.297C134.553 192.239 134.534 192.2 134.515 192.143C134.495 192.104 134.495 192.047 134.476 192.008C134.457 191.951 134.438 191.893 134.438 191.836C134.438 191.816 134.419 191.797 134.419 191.778C134.419 191.759 134.399 191.74 134.399 191.72V191.701L134.38 191.644C134.361 191.605 134.342 191.567 134.342 191.528V191.509L134.323 191.471L134.303 191.432C134.265 191.355 134.246 191.279 134.207 191.221L134.188 191.163C134.15 191.106 134.111 191.029 134.073 190.971L134.054 190.952L134.035 190.933C133.996 190.895 133.977 190.856 133.938 190.818L133.9 190.76C133.862 190.702 133.823 190.664 133.785 190.626L133.631 190.472C133.574 190.434 133.516 190.395 133.458 190.376C133.439 190.357 133.42 190.357 133.401 190.357L133.285 190.299C133.266 190.299 133.247 190.28 133.228 190.28C133.189 190.261 133.151 190.261 133.132 190.242C133.113 190.242 133.093 190.222 133.055 190.222C133.017 190.222 132.997 190.203 132.959 190.203H132.536C132.517 190.203 132.498 190.203 132.479 190.222C132.46 190.222 132.44 190.222 132.421 190.242C132.383 190.242 132.344 190.261 132.287 190.28H132.248C132.133 190.318 132.037 190.357 131.922 190.395L131.883 190.414C131.845 190.434 131.807 190.453 131.749 190.472L131.691 190.491L131.576 190.549L131.519 190.587L131.403 190.645L131.346 190.683C131.307 190.702 131.269 190.741 131.231 190.76L131.192 190.779C131.154 190.818 131.096 190.837 131.058 190.875L131.038 190.895C130.981 190.933 130.942 190.971 130.885 190.991C130.789 191.048 130.693 191.125 130.597 191.183C130.52 191.24 130.443 191.298 130.347 191.355L130.309 191.375C130.232 191.432 130.136 191.49 130.059 191.528L130.021 191.548C129.944 191.605 129.848 191.644 129.771 191.701L129.732 191.72C129.656 191.778 129.56 191.816 129.464 191.855L129.425 191.874C129.329 191.912 129.252 191.951 129.156 191.989L129.118 192.008C129.022 192.047 128.926 192.066 128.83 192.104H128.811C128.715 192.124 128.599 192.143 128.503 192.162C128.33 192.181 128.138 192.2 127.966 192.2C127.677 192.2 127.389 192.181 127.082 192.143L126.794 192.085C126.756 192.085 126.717 192.066 126.698 192.066C126.448 192.008 126.179 191.951 125.93 191.893C125.815 191.874 125.719 191.836 125.603 191.816C125.43 191.778 125.258 191.74 125.066 191.701C125.027 191.701 124.989 191.682 124.97 191.682C124.95 191.682 124.912 191.663 124.893 191.663C124.854 191.663 124.816 191.644 124.777 191.644C124.739 191.644 124.701 191.624 124.662 191.624H124.624C124.585 191.624 124.547 191.605 124.528 191.605C124.451 191.586 124.374 191.567 124.278 191.567C124.259 191.567 124.221 191.567 124.201 191.548C124.144 191.548 124.086 191.528 124.028 191.528C123.99 191.528 123.971 191.528 123.932 191.509C123.875 191.509 123.836 191.49 123.779 191.49H122.895C122.799 191.49 122.722 191.509 122.626 191.509H122.55C122.492 191.509 122.434 191.528 122.377 191.528H122.358C122.319 191.528 122.3 191.548 122.262 191.548C122.204 191.567 122.146 191.567 122.089 191.586C122.05 191.586 122.012 191.605 121.993 191.605C121.935 191.624 121.877 191.644 121.82 191.644C121.781 191.644 121.762 191.663 121.724 191.682C121.666 191.701 121.589 191.72 121.532 191.74C121.493 191.759 121.474 191.759 121.455 191.778C121.359 191.816 121.263 191.855 121.186 191.893C120.456 192.316 119.822 192.892 119.342 193.545C119.169 193.775 119.016 194.006 118.881 194.236C118.728 194.486 118.613 194.755 118.497 195.024C118.459 195.101 118.44 195.177 118.401 195.254C118.363 195.389 118.305 195.523 118.267 195.657C118.267 195.677 118.267 195.696 118.248 195.696C118.209 195.85 118.171 196.003 118.132 196.176C118.094 196.349 118.075 196.503 118.056 196.675C118.036 196.771 118.036 196.848 118.036 196.944C118.017 197.194 118.017 197.424 118.036 197.674V197.732C118.036 197.789 118.036 197.847 118.056 197.924C118.075 198.097 118.094 198.269 118.132 198.442C118.152 198.5 118.171 198.558 118.171 198.634C118.19 198.692 118.19 198.75 118.209 198.807C118.324 199.249 118.497 199.652 118.709 199.998C119.496 201.362 120.802 202.187 121.762 202.629C122.127 202.783 122.511 202.936 122.915 203.071L122.876 203.109C122.799 203.128 122.722 203.148 122.626 203.167C122.492 203.205 122.319 203.263 122.146 203.32C121.954 203.378 121.724 203.474 121.493 203.57C120.879 203.82 120.187 204.185 119.573 204.684C119.496 204.742 119.419 204.818 119.342 204.876C119.208 204.991 119.093 205.107 118.977 205.241L118.939 205.279L118.881 205.337C118.843 205.395 118.785 205.433 118.747 205.491L118.689 205.548C118.632 205.625 118.574 205.702 118.536 205.779C118.478 205.856 118.44 205.932 118.382 206.009C118.017 206.643 117.806 207.411 117.864 208.333V208.295C117.864 208.275 117.864 208.256 117.883 208.237V208.218C117.883 208.199 117.902 208.179 117.902 208.141V208.122C117.902 208.103 117.921 208.064 117.921 208.026C117.921 207.987 117.94 207.968 117.96 207.93V207.911C117.979 207.872 117.979 207.834 117.998 207.795V207.776C118.017 207.738 118.017 207.699 118.036 207.661V207.642C118.056 207.603 118.075 207.565 118.094 207.507L118.113 207.488C118.132 207.45 118.152 207.392 118.19 207.354C118.228 207.277 118.267 207.219 118.305 207.142C118.324 207.123 118.344 207.085 118.363 207.066L118.382 207.046L118.497 206.873C118.536 206.835 118.574 206.777 118.613 206.739L118.651 206.701C118.689 206.662 118.709 206.624 118.747 206.605L118.785 206.566C118.824 206.528 118.881 206.489 118.92 206.432C118.92 206.432 118.094 208.314 118.459 209.793V209.774V209.735V209.677V209.601V209.505C118.459 209.466 118.459 209.428 118.478 209.389C118.478 209.351 118.478 209.313 118.497 209.274V209.255C118.497 209.217 118.516 209.159 118.516 209.121V209.082C118.536 209.024 118.536 208.986 118.555 208.928V208.909C118.574 208.852 118.593 208.794 118.593 208.756C118.593 208.736 118.613 208.717 118.613 208.698L118.632 208.66C118.651 208.621 118.67 208.564 118.689 208.525C118.709 208.468 118.747 208.41 118.785 208.352C118.785 208.333 118.805 208.314 118.805 208.314L118.92 208.141C118.92 208.141 118.881 208.602 118.881 209.159C118.881 209.255 118.881 209.332 118.901 209.428C118.901 209.485 118.901 209.543 118.92 209.601C118.901 209.985 118.901 210.369 118.939 210.772C118.997 211.444 119.169 212.174 119.458 212.923C119.458 212.923 119.189 212.059 119.573 211.195L119.688 211.425C119.726 211.675 119.765 212.04 119.842 212.443C119.918 213.115 120.226 215.132 121.609 216.534C121.609 216.534 121.09 215.862 121.167 214.997C121.224 215.113 121.282 215.209 121.32 215.305C121.551 215.746 122.012 216.553 122.53 217.129C122.53 217.129 122.127 216.342 122.223 216.169C122.223 216.169 123.568 217.84 123.99 217.993L123.433 217.072L123.414 217.052C125.354 218.474 128.042 218.992 131.346 218.07C131.922 217.917 132.498 217.705 133.113 217.456C133.478 217.302 133.842 217.11 134.207 216.918L134.265 216.88C134.515 216.745 134.764 216.591 135.014 216.438C135.206 216.323 135.398 216.188 135.571 216.073C135.878 215.862 136.186 215.631 136.493 215.382C136.512 215.362 136.531 215.343 136.55 215.343C136.839 215.093 137.127 214.825 137.376 214.556C137.722 214.191 138.029 213.826 138.298 213.461L138.317 213.442C138.394 213.346 138.452 213.269 138.509 213.173L138.529 213.154C138.548 213.115 138.567 213.096 138.586 213.058C138.682 212.923 138.759 212.808 138.855 212.674C138.874 212.635 138.893 212.616 138.913 212.578C138.951 212.501 138.99 212.443 139.047 212.366C139.086 212.309 139.105 212.27 139.143 212.213C139.182 212.155 139.22 212.097 139.239 212.04C139.297 211.944 139.354 211.828 139.412 211.732L139.47 211.617L139.585 211.387L139.643 211.272L139.662 211.233C139.7 211.137 139.758 211.041 139.796 210.945V210.926C139.969 210.772 140.084 210.619 140.199 210.484C140.219 210.465 140.238 210.446 140.238 210.426C140.411 210.177 140.488 209.889 140.488 209.62ZM109.432 204.722C109.375 204.742 109.317 204.818 109.24 204.915C109.221 204.953 109.183 204.991 109.163 205.049C108.991 205.375 108.837 205.836 108.837 205.836C108.856 205.683 108.875 205.529 108.875 205.375V205.318C108.895 205.164 108.914 204.991 108.933 204.838V204.78C108.952 204.588 108.991 204.415 109.029 204.242C109.029 204.223 109.029 204.204 109.048 204.166V204.146C109.048 204.127 109.048 204.108 109.067 204.089C109.067 204.05 109.087 204.031 109.087 203.993C109.106 203.858 109.144 203.724 109.163 203.589C109.183 203.474 109.202 203.359 109.221 203.263V203.224C109.221 203.205 109.221 203.186 109.24 203.186V203.148C109.24 203.128 109.259 203.09 109.259 203.071C109.259 203.052 109.259 203.032 109.279 203.013C109.279 202.975 109.298 202.936 109.298 202.917C109.298 202.898 109.317 202.86 109.317 202.84C109.317 202.802 109.336 202.764 109.336 202.744C109.336 202.725 109.336 202.706 109.355 202.687C109.355 202.667 109.355 202.648 109.375 202.648C109.375 202.61 109.394 202.591 109.394 202.571V202.514L109.355 202.552C109.317 202.571 109.298 202.61 109.259 202.629L109.221 202.667C109.183 202.706 109.144 202.744 109.125 202.783L109.106 202.802L108.991 202.975L108.971 202.994C108.971 203.013 108.952 203.013 108.952 203.032L108.895 203.148V203.186C108.875 203.244 108.837 203.301 108.818 203.359C108.76 203.513 108.702 203.666 108.664 203.801C108.645 203.839 108.645 203.897 108.626 203.916C108.606 203.993 108.587 204.069 108.587 204.089C108.587 204.031 108.587 203.993 108.606 203.935C108.606 203.839 108.626 203.724 108.626 203.628C108.626 203.551 108.645 203.455 108.664 203.378C108.664 203.359 108.664 203.32 108.683 203.301C108.683 203.263 108.702 203.224 108.702 203.186C108.702 203.148 108.722 203.109 108.722 203.071V203.013C108.722 202.975 108.741 202.917 108.741 202.879V202.783V202.744C108.741 202.725 108.741 202.706 108.76 202.687C108.779 202.629 108.799 202.552 108.799 202.495V202.475C108.818 202.437 108.818 202.379 108.837 202.341V202.322C108.856 202.226 108.895 202.13 108.914 202.034V201.995C108.914 201.976 108.914 201.957 108.933 201.938C108.971 201.784 109.029 201.63 109.067 201.496V201.477C109.106 201.362 109.163 201.227 109.202 201.112V201.093C109.221 201.035 109.24 200.997 109.259 200.939C109.298 200.862 109.317 200.785 109.355 200.709C109.355 200.689 109.375 200.651 109.413 200.574C109.432 200.555 109.432 200.516 109.452 200.497C109.471 200.459 109.49 200.42 109.509 200.363L109.528 200.324C109.509 200.305 109.471 200.305 109.452 200.286H109.432L109.394 200.267C109.221 200.19 109.029 200.113 108.837 200.056H108.799C108.664 200.017 108.549 199.998 108.414 199.979C108.338 199.979 108.261 199.96 108.184 199.96H107.992C107.896 199.96 107.8 199.979 107.704 199.979C107.665 199.979 107.646 199.979 107.608 199.998C107.569 199.998 107.512 200.017 107.473 200.017C107.454 200.017 107.435 200.017 107.416 200.036C107.377 200.036 107.358 200.056 107.32 200.056C107.262 200.075 107.185 200.094 107.128 200.113C107.108 200.113 107.07 200.132 107.051 200.132C106.974 200.171 106.878 200.19 106.801 200.228C106.763 200.248 106.744 200.267 106.705 200.267L106.59 200.324L106.551 200.344C106.513 200.363 106.475 200.382 106.436 200.42C106.398 200.44 106.359 200.459 106.321 200.497C106.283 200.516 106.244 200.555 106.206 200.574C106.187 200.593 106.148 200.612 106.129 200.632C106.071 200.689 105.995 200.747 105.937 200.805L105.841 200.901C105.783 200.958 105.745 201.016 105.687 201.073L105.668 201.093C105.649 201.131 105.61 201.15 105.591 201.189L105.534 201.246C105.438 201.381 105.342 201.534 105.265 201.688C105.246 201.707 105.246 201.726 105.226 201.746C105.188 201.822 105.169 201.899 105.13 201.976C105.111 202.014 105.111 202.034 105.092 202.072C105.073 202.149 105.034 202.226 105.015 202.322V202.399C104.996 202.456 104.996 202.514 104.977 202.571C104.977 202.61 104.977 202.629 104.957 202.667C104.957 202.706 104.957 202.725 104.938 202.764V202.84C104.938 202.936 104.919 203.032 104.938 203.128C104.938 203.205 104.938 203.282 104.957 203.359V203.397C104.957 203.436 104.977 203.474 104.977 203.513C104.996 203.666 105.034 203.801 105.073 203.954C105.111 204.069 105.149 204.166 105.188 204.262C105.265 204.454 105.361 204.626 105.476 204.799C105.706 205.145 106.014 205.452 106.379 205.683C106.571 205.817 106.801 205.913 107.032 205.99C107.243 206.067 107.473 206.124 107.723 206.144C107.781 206.144 107.838 206.163 107.877 206.163H108.126C108.203 206.163 108.28 206.144 108.357 206.144C108.395 206.144 108.453 206.144 108.491 206.124C108.606 206.105 108.702 206.086 108.818 206.067H108.837C108.875 206.048 108.914 206.048 108.971 206.028C109.106 205.99 109.24 205.932 109.355 205.875L109.375 205.856C109.413 205.836 109.452 205.817 109.471 205.817C109.413 205.491 109.355 205.145 109.336 204.799C109.432 204.761 109.432 204.742 109.432 204.722Z" fill="#FCE9CD"/>
<path d="M139.316 208.834C139.316 208.815 139.316 208.796 139.296 208.796C139.277 208.757 139.277 208.738 139.277 208.719C139.181 208.411 139.066 208.181 138.951 208.008C138.816 207.797 138.701 207.682 138.701 207.682L138.759 207.451C138.778 207.355 138.797 207.259 138.797 207.163C138.874 206.472 138.701 205.934 138.547 205.627C138.528 205.569 138.509 205.531 138.49 205.492C138.374 205.569 138.278 205.646 138.163 205.723C136.089 207.125 133.765 208.027 131.249 208.411C129.521 208.68 127.696 208.7 125.795 208.469L125.833 208.488C125.833 208.488 124.681 208.642 124.374 209.737L124.393 209.756L124.297 210.486C124.335 211.484 124.777 212.099 125.296 212.425C125.833 212.637 126.486 212.79 127.216 212.886C128.464 213.04 129.924 213.002 131.384 212.771C133.343 212.502 136.108 211.465 138.086 210.121C138.528 209.813 138.951 209.487 139.296 209.16L139.316 209.141L139.335 209.122C139.335 208.988 139.316 208.911 139.316 208.834Z" fill="white"/>
<path d="M135.571 199.345C134.515 198.692 134.361 198.481 134.457 196.733C134.496 196.099 134.553 195.273 134.63 194.14C134.63 193.987 134.649 193.852 134.649 193.718V193.622V193.161C134.649 193.065 134.63 192.969 134.63 192.892C134.63 192.853 134.63 192.815 134.611 192.777C134.592 192.681 134.592 192.585 134.572 192.489C134.572 192.45 134.553 192.393 134.553 192.354C134.553 192.297 134.534 192.258 134.515 192.201C134.496 192.162 134.496 192.104 134.476 192.066C134.323 191.836 134.15 191.644 133.939 191.471L133.9 191.432L133.862 191.413H133.843C133.804 191.394 133.785 191.375 133.746 191.355C133.708 191.336 133.67 191.317 133.65 191.298C133.343 191.106 132.978 190.991 132.613 190.933C132.402 190.895 132.191 190.895 131.98 190.895C131.884 190.895 131.768 190.914 131.672 190.914C131.403 190.952 131.135 191.01 130.846 191.087C130.75 191.144 130.654 191.221 130.558 191.279C130.482 191.336 130.405 191.394 130.309 191.451L130.27 191.471C130.193 191.528 130.097 191.586 130.021 191.624L129.982 191.644C129.905 191.701 129.809 191.74 129.733 191.797L129.694 191.816C129.617 191.874 129.521 191.912 129.425 191.951L129.387 191.97C129.291 192.008 129.214 192.047 129.118 192.085L129.08 192.104C128.984 192.143 128.888 192.162 128.791 192.201H128.772C128.676 192.22 128.561 192.239 128.465 192.258C128.292 192.277 128.1 192.297 127.927 192.297C127.639 192.297 127.351 192.277 127.044 192.239L126.756 192.181C126.717 192.181 126.679 192.162 126.66 192.162C126.41 192.104 126.141 192.047 125.891 191.989C125.776 191.97 125.68 191.932 125.565 191.912C125.392 191.874 125.219 191.836 125.027 191.797C124.989 191.797 124.95 191.778 124.931 191.778C124.778 191.778 124.624 191.797 124.489 191.816H124.451C124.009 191.874 123.587 191.97 123.145 192.124C123.126 192.124 123.107 192.143 123.068 192.143C122.991 192.162 122.934 192.201 122.857 192.22C122.761 192.258 122.684 192.297 122.588 192.335C121.954 192.604 121.359 192.988 120.783 193.468C120.552 193.66 120.341 193.871 120.13 194.083C119.823 194.409 119.554 194.755 119.304 195.12C119.285 195.139 119.285 195.158 119.266 195.177C119.131 195.369 119.016 195.581 118.92 195.773C118.881 195.85 118.843 195.926 118.805 195.984V196.003C118.689 196.253 118.593 196.483 118.517 196.733C118.517 196.752 118.517 196.771 118.497 196.771C118.478 196.81 118.478 196.848 118.459 196.887C118.421 197.002 118.382 197.117 118.363 197.232C118.325 197.348 118.305 197.463 118.286 197.597C118.286 197.616 118.267 197.655 118.267 197.674C118.248 197.751 118.248 197.828 118.228 197.885C118.19 198.154 118.171 198.423 118.152 198.692V198.884C118.267 199.326 118.44 199.729 118.651 200.075C119.438 201.438 120.744 202.264 121.705 202.706C122.07 202.86 122.454 203.013 122.857 203.148L122.876 203.167L122.895 203.148C122.953 203.109 122.991 203.071 123.049 203.032C123.068 203.013 123.087 203.013 123.107 202.994L123.28 202.879C123.299 202.86 123.318 202.86 123.337 202.84L123.51 202.725C123.529 202.706 123.548 202.706 123.568 202.687C123.625 202.648 123.683 202.61 123.76 202.571C123.779 202.552 123.798 202.552 123.817 202.533C123.875 202.495 123.952 202.456 124.009 202.418C124.029 202.399 124.048 202.399 124.067 202.379C124.125 202.341 124.201 202.303 124.259 202.264C124.278 202.245 124.317 202.245 124.336 202.226C124.393 202.187 124.47 202.149 124.528 202.111C124.547 202.091 124.585 202.072 124.605 202.072C124.662 202.034 124.739 201.995 124.816 201.957C124.854 201.938 124.874 201.918 124.912 201.918C124.989 201.88 125.046 201.842 125.123 201.822C125.162 201.803 125.181 201.784 125.219 201.784C125.296 201.746 125.354 201.726 125.431 201.688L125.546 201.63C125.623 201.592 125.68 201.573 125.757 201.534C125.795 201.515 125.834 201.496 125.891 201.477C125.968 201.458 126.026 201.419 126.103 201.4C126.141 201.381 126.199 201.362 126.237 201.342C126.314 201.323 126.372 201.285 126.448 201.265C126.506 201.246 126.544 201.227 126.602 201.208C126.679 201.189 126.736 201.15 126.813 201.131L126.986 201.073C127.044 201.054 127.121 201.035 127.178 200.997C127.236 200.977 127.313 200.958 127.37 200.939C127.428 200.92 127.505 200.901 127.562 200.881C127.639 200.862 127.716 200.843 127.774 200.824C127.831 200.805 127.889 200.785 127.966 200.766C128.042 200.747 128.119 200.728 128.215 200.689C128.254 200.67 128.292 200.67 128.331 200.651C128.638 199.863 129.579 197.905 131.173 197.693C131.346 197.674 131.499 197.655 131.653 197.655H131.768C131.749 197.54 131.73 197.424 131.73 197.29C131.672 196.445 131.941 195.734 132.306 195.715C132.594 195.696 132.825 196.118 132.863 196.253C132.978 196.503 133.055 196.829 133.074 197.194C133.094 197.52 133.055 197.828 132.997 198.097C133.036 198.135 133.055 198.173 133.094 198.193C133.458 198.654 133.516 199.268 133.497 199.729C133.631 199.71 133.785 199.71 133.939 199.691C133.977 199.691 134.015 199.691 134.054 199.671H134.131C134.303 199.652 134.496 199.633 134.688 199.633C135.11 199.595 135.533 199.575 135.974 199.556C135.725 199.422 135.571 199.345 135.571 199.345ZM139.585 211.176C138.894 211.79 138.164 212.289 137.434 212.693C137.069 212.885 136.704 213.058 136.358 213.211C135.571 213.557 134.822 213.787 134.15 213.96C132.671 214.325 131.653 214.325 131.653 214.325C132.46 214.767 133.478 214.767 134.169 214.709C134.649 214.671 134.976 214.575 134.976 214.575C134.956 214.863 134.918 215.132 134.88 215.401C134.822 215.689 134.745 215.938 134.649 216.169V216.188C134.534 216.476 134.38 216.726 134.227 216.956C134.207 216.976 134.188 217.014 134.169 217.033L134.227 216.995C134.476 216.86 134.726 216.707 134.976 216.553C135.168 216.438 135.36 216.303 135.533 216.188C135.84 215.977 136.147 215.746 136.454 215.497C136.474 215.478 136.493 215.458 136.512 215.458C136.8 215.209 137.088 214.94 137.338 214.671C137.684 214.306 137.991 213.941 138.26 213.576L138.279 213.557C138.356 213.461 138.413 213.384 138.471 213.288L138.49 213.269C138.509 213.23 138.529 213.211 138.548 213.173C138.644 213.038 138.721 212.923 138.817 212.789C138.836 212.75 138.855 212.731 138.874 212.693C138.913 212.616 138.951 212.558 139.009 212.481C139.047 212.424 139.066 212.385 139.105 212.328C139.143 212.27 139.182 212.213 139.201 212.155C139.258 212.059 139.316 211.944 139.374 211.848L139.431 211.732L139.547 211.502L139.604 211.387L139.623 211.348C139.662 211.252 139.719 211.156 139.758 211.06C139.681 211.079 139.643 211.118 139.585 211.176ZM122.07 203.436C121.878 203.493 121.647 203.589 121.417 203.685C120.802 203.935 120.111 204.3 119.496 204.799C119.419 204.857 119.342 204.934 119.266 204.991C119.131 205.107 119.016 205.222 118.901 205.356L118.862 205.395L118.805 205.452C118.766 205.51 118.709 205.548 118.67 205.606L118.613 205.664C118.555 205.74 118.497 205.817 118.459 205.894C118.401 205.971 118.363 206.048 118.305 206.124C117.94 206.758 117.729 207.526 117.787 208.448V208.41C117.787 208.391 117.787 208.372 117.806 208.352V208.333C117.806 208.314 117.825 208.295 117.825 208.256V208.237C117.825 208.218 117.844 208.179 117.844 208.141C117.844 208.103 117.864 208.083 117.883 208.045V208.026C117.902 207.987 117.902 207.949 117.921 207.911V207.891C117.94 207.853 117.94 207.815 117.96 207.776V207.757C117.979 207.719 117.998 207.68 118.017 207.622L118.036 207.603C118.056 207.565 118.075 207.507 118.113 207.469C118.152 207.392 118.19 207.334 118.228 207.258C118.248 207.238 118.267 207.2 118.286 207.181L118.305 207.162L118.421 206.989C118.459 206.95 118.497 206.893 118.536 206.854L118.574 206.816C118.613 206.777 118.632 206.739 118.67 206.72L118.709 206.681C118.747 206.643 118.805 206.605 118.843 206.547C118.843 206.547 118.017 208.429 118.382 209.908V209.889V209.85V209.793V209.716V209.62C118.382 209.581 118.382 209.543 118.401 209.505C118.401 209.466 118.401 209.428 118.421 209.389V209.37C118.421 209.332 118.44 209.274 118.44 209.236V209.197C118.459 209.14 118.459 209.101 118.478 209.044V209.024C118.497 208.967 118.517 208.909 118.517 208.871C118.517 208.852 118.536 208.832 118.536 208.813L118.555 208.775C118.574 208.736 118.593 208.679 118.613 208.64C118.632 208.583 118.67 208.525 118.709 208.468C118.709 208.448 118.728 208.429 118.728 208.429L118.843 208.256C118.843 208.256 118.805 208.717 118.805 209.274C118.805 209.37 118.805 209.447 118.824 209.543C118.824 209.601 118.824 209.658 118.843 209.716C118.881 209.121 118.997 208.564 119.15 208.045C119.189 207.911 119.246 207.757 119.285 207.622C119.285 207.603 119.304 207.584 119.304 207.565C119.362 207.43 119.4 207.315 119.458 207.181C119.477 207.162 119.477 207.142 119.496 207.104C119.554 206.989 119.611 206.854 119.669 206.739C119.688 206.72 119.688 206.701 119.688 206.681C119.823 206.432 119.957 206.201 120.091 205.99C120.111 205.971 120.111 205.952 120.13 205.932C120.187 205.856 120.245 205.779 120.303 205.683C120.322 205.664 120.322 205.644 120.341 205.625C120.36 205.606 120.36 205.587 120.379 205.568C120.456 205.471 120.514 205.375 120.591 205.279C120.61 205.26 120.61 205.241 120.629 205.241C120.706 205.145 120.783 205.049 120.86 204.972C120.956 204.857 121.052 204.761 121.148 204.646C121.225 204.569 121.282 204.492 121.359 204.434L121.436 204.358C121.589 204.204 121.743 204.05 121.897 203.916C122.319 203.532 122.665 203.282 122.78 203.205C122.703 203.224 122.627 203.244 122.531 203.263C122.415 203.32 122.262 203.378 122.07 203.436Z" fill="#F2D2AC"/>
<path d="M133.132 199.267C133.132 199.267 133.132 199.229 133.113 199.152C133.036 198.883 132.767 198.23 131.711 198.326C130.597 198.441 130.213 199.344 130.117 199.651C130.098 199.709 130.098 199.747 130.098 199.747L130.136 199.766C130.27 199.651 130.539 199.651 130.789 199.824C130.904 199.901 130.981 199.978 131.058 200.074C131.154 200.227 131.173 200.381 131.116 200.496L131.058 200.554C131.058 200.554 131.096 200.573 131.173 200.592C131.48 200.688 132.345 200.861 132.806 200.266C132.825 200.227 132.844 200.208 132.863 200.17C132.767 200.131 132.729 199.997 132.729 199.824C132.729 199.747 132.748 199.67 132.767 199.574C132.825 199.344 132.998 199.209 133.132 199.267ZM127.582 207.487C126.852 207.641 126.218 207.756 125.738 207.833C125.757 207.833 125.796 207.833 125.815 207.852C126.641 207.948 127.947 208.082 129.521 207.986C132.402 207.813 136.186 206.911 139.624 203.8V203.78C139.643 203.511 139.604 203.051 139.278 202.686C139.22 202.628 139.163 202.57 139.086 202.513C139.067 202.513 139.067 202.494 139.047 202.494C138.951 202.436 138.875 202.398 138.798 202.34L138.625 202.225V202.205C138.414 202.513 138.164 202.801 137.895 203.07C137.799 203.166 137.703 203.262 137.588 203.358C136.647 204.203 135.418 204.933 134.092 205.509C131.903 206.469 129.445 207.103 127.582 207.487ZM109.375 202.474C109.337 202.494 109.317 202.532 109.279 202.551L109.241 202.59C109.202 202.628 109.164 202.666 109.144 202.705L109.125 202.724L109.01 202.897L108.991 202.916C108.991 202.935 108.972 202.935 108.972 202.954L108.914 203.07V203.108C108.895 203.166 108.856 203.223 108.837 203.281C108.78 203.435 108.722 203.588 108.684 203.723C108.664 203.761 108.664 203.819 108.645 203.838C108.626 203.915 108.607 203.992 108.607 204.011C108.607 203.953 108.607 203.915 108.626 203.857C108.626 203.761 108.645 203.646 108.645 203.55C108.645 203.473 108.664 203.377 108.684 203.3C108.684 203.281 108.684 203.243 108.703 203.223C108.703 203.185 108.722 203.147 108.722 203.108C108.722 203.07 108.741 203.031 108.741 202.993V202.935C108.741 202.897 108.76 202.839 108.76 202.801V202.705V202.666C108.76 202.647 108.76 202.628 108.78 202.609C108.799 202.551 108.818 202.474 108.818 202.417V202.398C108.837 202.359 108.837 202.301 108.856 202.263V202.244C108.876 202.148 108.914 202.052 108.933 201.956V201.917C108.933 201.898 108.933 201.879 108.952 201.86C108.991 201.706 109.048 201.552 109.087 201.418V201.399C109.125 201.284 109.183 201.149 109.221 201.034V201.015C109.241 200.957 109.26 200.919 109.279 200.861C109.317 200.784 109.337 200.707 109.375 200.631C109.375 200.611 109.394 200.573 109.433 200.496C109.452 200.477 109.452 200.439 109.471 200.419C109.49 200.381 109.509 200.343 109.529 200.285L109.548 200.247C109.529 200.227 109.49 200.227 109.471 200.208H109.452L109.413 200.189C109.241 200.112 109.048 200.035 108.856 199.978H108.818C108.684 199.939 108.568 199.92 108.434 199.901C108.357 199.901 108.28 199.882 108.203 199.882H108.011C107.915 199.882 107.819 199.901 107.723 199.901C107.685 199.901 107.666 199.901 107.627 199.92C107.589 199.92 107.531 199.939 107.493 199.939C107.474 199.939 107.454 199.939 107.435 199.958C107.397 199.958 107.378 199.978 107.339 199.978C107.282 199.997 107.205 200.016 107.147 200.035C107.128 200.035 107.089 200.054 107.07 200.054C106.993 200.093 106.897 200.112 106.821 200.15C106.782 200.17 106.763 200.189 106.725 200.189L106.609 200.247L106.571 200.266C106.533 200.285 106.494 200.304 106.456 200.343C106.417 200.362 106.379 200.381 106.34 200.419C106.302 200.439 106.264 200.477 106.225 200.496C106.206 200.515 106.168 200.535 106.148 200.554C106.091 200.611 106.014 200.669 105.956 200.727L105.86 200.823C105.803 200.88 105.764 200.938 105.707 200.996L105.687 201.015C105.668 201.053 105.63 201.072 105.611 201.111L105.553 201.168C105.457 201.303 105.361 201.456 105.284 201.61C105.265 201.629 105.265 201.649 105.246 201.668C105.207 201.745 105.188 201.821 105.15 201.898C105.131 201.937 105.131 201.956 105.111 201.994C105.111 202.013 105.131 202.033 105.131 202.052C105.15 202.129 105.169 202.186 105.188 202.263V202.301C105.207 202.359 105.246 202.436 105.265 202.494C105.342 202.686 105.419 202.858 105.515 203.012C105.534 203.031 105.534 203.051 105.553 203.07V203.089L105.572 203.108C105.63 203.223 105.687 203.319 105.745 203.396C105.841 203.531 105.918 203.627 105.976 203.703L106.014 203.742C106.014 203.761 106.033 203.761 106.033 203.761L106.072 203.8C106.072 203.761 106.052 203.723 106.052 203.703C105.995 203.454 105.976 203.223 105.976 202.974V202.935C105.976 202.782 105.976 202.628 105.995 202.494L106.052 202.666C106.072 202.743 106.11 202.82 106.129 202.897V202.935C106.244 203.262 106.379 203.531 106.513 203.742C106.667 204.011 106.801 204.184 106.897 204.299C106.917 204.318 106.936 204.337 106.936 204.356L106.974 204.395C106.917 204.126 106.878 203.876 106.878 203.627V203.377C106.878 203.262 106.878 203.166 106.897 203.07C106.936 203.243 106.993 203.415 107.051 203.569V203.588C107.262 204.145 107.512 204.549 107.685 204.798L107.704 204.817C107.742 204.856 107.762 204.894 107.781 204.933C107.8 204.952 107.819 204.971 107.819 204.99L107.858 205.029L107.877 205.048V205.009C107.877 204.971 107.858 204.933 107.858 204.894C107.839 204.76 107.819 204.625 107.8 204.51C107.8 204.433 107.781 204.337 107.781 204.26V204.03V203.992V203.838C107.781 203.742 107.8 203.627 107.8 203.531C107.819 203.588 107.839 203.665 107.858 203.723C107.877 203.761 107.896 203.819 107.915 203.857V203.876L107.935 203.896C107.954 203.953 107.973 204.011 107.992 204.049C108.031 204.145 108.069 204.241 108.127 204.318C108.184 204.433 108.223 204.529 108.28 204.606C108.319 204.664 108.338 204.702 108.357 204.741C108.395 204.798 108.434 204.856 108.453 204.894C108.491 204.933 108.511 204.971 108.53 205.009L108.549 205.029C108.568 205.067 108.607 205.086 108.626 205.125C108.645 205.144 108.664 205.163 108.664 205.182C108.703 205.221 108.722 205.259 108.741 205.259L108.76 205.278V205.221C108.78 205.067 108.799 204.894 108.818 204.741V204.683C108.837 204.491 108.876 204.318 108.914 204.145C108.914 204.126 108.914 204.107 108.933 204.068V204.049C108.933 204.03 108.933 204.011 108.952 203.992C108.952 203.953 108.972 203.934 108.972 203.896C108.991 203.761 109.029 203.627 109.048 203.492C109.068 203.377 109.087 203.262 109.106 203.166V203.127C109.106 203.108 109.106 203.089 109.125 203.089V203.051C109.125 203.031 109.144 202.993 109.144 202.974C109.144 202.954 109.144 202.935 109.164 202.916C109.164 202.878 109.183 202.839 109.183 202.82C109.183 202.801 109.202 202.762 109.202 202.743C109.202 202.705 109.221 202.666 109.221 202.647C109.221 202.628 109.221 202.609 109.241 202.59C109.241 202.57 109.241 202.551 109.26 202.551C109.26 202.513 109.279 202.494 109.279 202.474V202.417L109.375 202.474ZM132.652 210.502C132.921 210.406 133.151 210.329 133.343 210.253C133.708 210.099 133.9 209.984 133.9 209.945C133.881 209.907 133.67 209.926 133.286 210.022C133.094 210.061 132.863 210.099 132.575 210.176C132.441 210.214 132.287 210.233 132.133 210.253C131.98 210.272 131.807 210.31 131.634 210.329C131.288 210.387 130.904 210.425 130.482 210.464L129.848 210.521C129.637 210.541 129.406 210.541 129.176 210.56C128.254 210.579 127.236 210.541 126.199 210.349C125.661 210.253 124.912 210.003 124.394 209.715L124.374 209.696C124.682 208.601 125.834 208.447 125.834 208.447L125.796 208.428H125.738C125.565 208.409 125.431 208.39 125.296 208.37C125.2 208.351 125.123 208.351 125.066 208.332C125.008 208.332 124.951 208.313 124.931 208.313C124.24 208.274 123.856 208.851 123.741 209.1L123.683 209.215C123.587 209.446 123.51 209.696 123.491 209.984C123.453 210.502 123.587 211.059 123.99 211.539C124.259 211.866 124.72 212.154 125.315 212.384C124.797 212.058 124.336 211.424 124.317 210.445C124.912 210.694 125.584 210.848 126.103 210.944C127.198 211.155 128.273 211.174 129.214 211.117C129.445 211.098 129.694 211.078 129.906 211.059C130.136 211.021 130.347 211.002 130.559 210.982C130.981 210.906 131.346 210.848 131.711 210.771C131.884 210.733 132.057 210.694 132.21 210.637C132.383 210.598 132.518 210.56 132.652 210.502Z" fill="#F2D2AC"/>
<path d="M131.75 197.675C132.326 197.694 132.71 197.867 132.979 198.136C133.037 197.886 133.075 197.579 133.056 197.233C133.037 196.868 132.96 196.542 132.845 196.292C132.806 196.139 132.576 195.735 132.288 195.755C131.923 195.774 131.654 196.484 131.711 197.329C131.711 197.445 131.731 197.56 131.75 197.675ZM132.71 199.845C132.71 199.999 132.768 200.133 132.845 200.191C132.979 200.268 133.152 200.114 133.229 199.865C133.229 199.845 133.248 199.826 133.248 199.807C133.306 199.576 133.248 199.346 133.113 199.288C132.979 199.212 132.806 199.365 132.729 199.615C132.729 199.692 132.71 199.769 132.71 199.845ZM130.098 200.268C130.156 200.364 130.252 200.46 130.367 200.537C130.617 200.69 130.886 200.71 131.039 200.575L131.097 200.518C131.155 200.402 131.135 200.249 131.039 200.095C130.982 199.999 130.886 199.903 130.77 199.845C130.521 199.692 130.252 199.672 130.117 199.788C130.098 199.807 130.079 199.826 130.06 199.865C130.002 199.961 130.021 200.114 130.098 200.268ZM139.643 203.782C139.624 203.782 139.624 203.782 139.643 203.782ZM139.336 209.102C138.971 209.448 138.568 209.775 138.107 210.082C136.129 211.426 133.363 212.483 131.404 212.732C129.925 212.963 128.485 213.001 127.237 212.847C126.507 212.751 125.873 212.598 125.316 212.387C124.721 212.156 124.26 211.868 123.991 211.541C123.588 211.061 123.472 210.485 123.492 209.986C123.511 209.717 123.568 209.448 123.684 209.218L123.741 209.102C123.876 208.853 124.241 208.257 124.932 208.315C124.951 208.315 125.009 208.315 125.066 208.334C125.124 208.334 125.22 208.353 125.297 208.373C125.431 208.392 125.566 208.411 125.739 208.43H125.796C127.698 208.661 129.522 208.641 131.251 208.373C133.766 207.988 136.09 207.086 138.165 205.684C138.28 205.607 138.376 205.53 138.491 205.453L139.624 203.763C136.186 206.894 132.403 207.796 129.522 207.969C127.947 208.065 126.641 207.95 125.815 207.835C125.777 207.835 125.758 207.835 125.739 207.816C125.489 207.777 125.297 207.758 125.143 207.739C125.066 207.739 125.009 207.72 124.97 207.72C124.759 207.7 124.548 207.739 124.356 207.796C123.972 207.912 123.626 208.181 123.376 208.526C123.069 208.949 122.877 209.525 122.877 210.101C122.877 210.581 122.992 211.081 123.242 211.541C123.261 211.561 123.261 211.58 123.28 211.599C123.319 211.657 123.338 211.695 123.376 211.753C123.415 211.81 123.472 211.887 123.53 211.945C124.125 212.694 125.431 213.232 127.16 213.462C128.331 213.616 129.695 213.596 131.174 213.385C135.553 212.598 137.627 211.177 138.587 210.197C138.664 210.12 138.721 210.063 138.779 209.986C139.125 209.583 139.278 209.275 139.336 209.16V209.141C139.355 209.102 139.355 209.083 139.355 209.083L139.336 209.102Z" fill="#664F44"/>
<path d="M125.41 193.931C125.276 193.854 125.122 193.797 124.969 193.758C124.873 193.739 124.777 193.72 124.661 193.701C124.623 193.701 124.585 193.701 124.546 193.682C124.028 193.643 123.586 193.72 123.586 193.72C123.49 193.739 123.394 193.758 123.317 193.797C122.626 194.008 122.145 194.373 121.8 194.796C121.531 195.141 121.339 195.506 121.243 195.871C121.224 195.909 121.224 195.929 121.224 195.967C121.204 196.063 121.166 196.159 121.147 196.236C121.089 196.543 121.051 196.812 121.051 197.043C121.051 197.35 121.07 197.542 121.07 197.542C121.185 197.273 121.32 197.043 121.454 196.812C121.781 196.255 122.126 195.794 122.491 195.429C123.183 194.719 123.893 194.335 124.431 194.143C125.007 193.95 125.41 193.931 125.41 193.931ZM133.726 192.952L133.707 192.913C133.63 192.817 133.534 192.721 133.419 192.644C133.15 192.472 132.785 192.376 132.286 192.472C132.286 192.472 131.691 192.606 131.345 193.009C131.345 193.009 132.382 192.568 133.496 193.355C133.592 193.432 133.707 193.509 133.803 193.605C133.899 193.701 134.014 193.797 134.111 193.931C134.111 193.931 134.072 193.451 133.784 193.029C133.765 192.99 133.746 192.971 133.726 192.952Z" fill="#E9B784"/>
<path d="M125.545 200.595C125.948 200.48 126.371 200.364 126.851 200.249C126.928 199.884 126.947 199.442 126.889 198.962C126.755 197.848 126.256 196.984 125.756 197.042C125.257 197.099 124.969 198.06 125.103 199.174C125.18 199.75 125.334 200.249 125.545 200.595Z" fill="#664F44"/>
<path d="M123.26 175.492L122.223 175.723L122.434 177.605L119.688 176.203L118.555 176.548L118.574 176.568L121.916 180.37L121.954 180.351L121.992 180.332C122.088 180.274 122.204 180.198 122.3 180.14C122.338 180.121 122.377 180.102 122.415 180.063C122.569 179.967 122.722 179.871 122.876 179.794L121.455 178.162L123.74 179.276C123.817 179.237 123.875 179.199 123.951 179.16L123.74 177.528L124.777 178.738H124.796C124.892 178.7 124.969 178.642 125.065 178.603L125.104 178.584L125.142 178.565C125.161 178.565 125.181 178.546 125.181 178.546L125.296 178.488C125.296 178.488 125.315 178.488 125.315 178.469C125.43 178.411 125.565 178.354 125.68 178.296L123.26 175.492Z" fill="#FFD250"/>
<path d="M122.243 175.723L122.397 175.685C122.147 175.57 121.84 175.493 121.494 175.435C120.803 175.339 119.919 175.435 118.92 175.685C117.922 175.934 116.789 176.376 115.598 176.972C113.197 178.162 110.547 179.987 107.973 182.33C107.071 183.136 106.245 183.982 105.477 184.807L108.588 188.648C109.433 187.727 110.336 186.805 111.334 185.902C112.659 184.692 114.004 183.617 115.329 182.695C116.616 181.792 117.903 181.024 119.112 180.409L118.575 177.951L118.594 176.568L118.575 176.549L119.708 176.203L121.916 177.336L121.859 176.568L122.243 175.723Z" fill="#4D9ED7"/>
<path d="M122.243 175.723L121.858 176.568L121.916 177.355L122.454 177.624L122.243 175.723ZM121.455 178.162L123.76 179.295L122.876 179.794L121.455 178.162ZM123.76 177.528L123.971 179.16L124.797 178.738L123.76 177.528Z" fill="#132134"/>
<path d="M132.441 176.935H132.864C133.248 176.935 133.613 176.992 133.958 177.069C133.978 177.069 133.997 177.069 134.016 177.088H134.035L134.074 177.108H134.112C134.074 177.088 134.035 177.05 133.997 177.031C133.613 176.877 133.209 176.781 132.787 176.723C130.713 176.455 128.331 177.223 126.987 177.76C126.91 177.799 126.833 177.818 126.756 177.857C126.641 177.914 126.526 177.953 126.411 178.01C126.219 178.087 126.026 178.183 125.815 178.279C125.777 178.298 125.758 178.298 125.719 178.317C125.604 178.375 125.47 178.433 125.354 178.49C125.354 178.49 125.335 178.49 125.335 178.51L125.22 178.567C125.201 178.567 125.181 178.586 125.181 178.586H125.105L125.085 178.606C124.989 178.644 124.913 178.682 124.817 178.74H124.797C124.778 178.759 124.759 178.759 124.74 178.778H124.721C124.701 178.778 124.682 178.798 124.682 178.798C124.548 178.874 124.413 178.932 124.279 179.009C124.183 179.066 124.087 179.105 123.991 179.162H123.971C123.895 179.201 123.837 179.239 123.76 179.278C123.53 179.393 123.319 179.527 123.088 179.662C123.069 179.681 123.05 179.681 123.011 179.7C122.992 179.719 122.973 179.719 122.954 179.739C122.934 179.758 122.915 179.758 122.896 179.777L122.877 179.796C122.723 179.892 122.569 179.969 122.416 180.065C122.377 180.084 122.339 180.104 122.301 180.142C122.205 180.2 122.089 180.276 121.993 180.334L121.955 180.353L121.917 180.372L121.052 180.949C120.572 181.275 120.111 181.602 119.65 181.947C119.593 181.986 119.535 182.043 119.477 182.082C118.267 182.984 117.115 183.964 116.001 184.963C114.83 186.038 113.697 187.133 112.64 188.247C112.064 188.823 111.565 189.341 111.181 189.764C110.374 190.628 109.932 191.166 109.951 191.185C109.951 191.185 110.028 191.128 110.163 190.993C110.067 191.108 109.951 191.243 109.855 191.358C111.622 189.476 113.562 187.555 115.656 185.75C116.923 184.655 118.248 183.599 119.612 182.619C120.207 182.197 120.822 181.774 121.436 181.371C121.628 181.237 121.84 181.121 122.032 180.987C122.128 180.929 122.224 180.872 122.339 180.814C122.397 180.776 122.454 180.737 122.512 180.718C122.627 180.661 122.723 180.584 122.838 180.526C122.934 180.468 123.05 180.411 123.146 180.334C123.203 180.296 123.261 180.276 123.319 180.238L123.722 180.008C123.799 179.969 123.875 179.912 123.952 179.873C124.202 179.739 124.452 179.604 124.721 179.47C124.74 179.451 124.759 179.451 124.778 179.431L124.893 179.374C124.951 179.355 124.989 179.316 125.047 179.297C125.066 179.278 125.085 179.278 125.105 179.259L125.22 179.201C125.22 179.201 125.239 179.201 125.239 179.182H125.258C125.373 179.124 125.489 179.066 125.585 179.028C125.604 179.028 125.623 179.009 125.642 178.99L125.758 178.932C125.892 178.874 126.007 178.817 126.142 178.759C126.18 178.74 126.219 178.721 126.238 178.702C126.257 178.702 126.276 178.682 126.295 178.682C126.334 178.663 126.372 178.644 126.411 178.644C126.564 178.586 126.699 178.51 126.852 178.452C126.987 178.394 127.102 178.337 127.236 178.279C127.966 177.972 128.638 177.722 129.272 177.511C130.463 177.184 131.519 176.973 132.441 176.935Z" fill="white"/>
</g>
<circle cx="208" cy="30" r="30" fill="#FF4500"/>
<path d="M225.259 30.2245C225.264 30.5717 225.221 30.9183 225.13 31.2535C225.039 31.5887 224.901 31.9099 224.72 32.2064C224.539 32.5029 224.317 32.7728 224.061 33.0079C223.805 33.243 223.518 33.4407 223.207 33.5953C223.214 33.6878 223.219 33.7809 223.222 33.874C223.23 34.0598 223.23 34.2458 223.222 34.4316C223.219 34.5247 223.214 34.6179 223.207 34.7104C223.207 40.3874 216.592 45 208.431 45C200.27 45 193.656 40.3874 193.656 34.7104C193.649 34.6179 193.643 34.5247 193.64 34.4316C193.632 34.2458 193.632 34.0598 193.64 33.874C193.643 33.7809 193.649 33.6878 193.656 33.5953C193.168 33.3712 192.735 33.044 192.387 32.6361C192.038 32.2283 191.783 31.7496 191.638 31.2332C191.493 30.7166 191.462 30.1746 191.547 29.6449C191.632 29.1151 191.832 28.6103 192.132 28.1653C192.431 27.7204 192.824 27.346 193.283 27.0681C193.742 26.7902 194.255 26.6155 194.788 26.556C195.322 26.4962 195.861 26.5531 196.37 26.7227C196.879 26.8923 197.345 27.1705 197.736 27.5381C198.461 27.0464 199.221 26.6079 200.01 26.2259C200.799 25.8445 201.614 25.5201 202.45 25.2565C203.286 24.9929 204.14 24.7908 205.005 24.6508C205.869 24.5107 206.744 24.4341 207.62 24.4208L209.496 15.6264C209.516 15.5244 209.558 15.4281 209.617 15.342C209.675 15.2564 209.75 15.1829 209.837 15.1265C209.924 15.0701 210.022 15.0315 210.125 15.0125C210.227 14.9941 210.332 14.996 210.433 15.0182L216.642 16.26C217.269 15.1836 218.584 14.7223 219.746 15.1709C220.907 15.6195 221.571 16.8455 221.311 18.0633C221.052 19.281 219.946 20.1301 218.703 20.0661C217.459 20.0021 216.446 19.0441 216.313 17.806L210.889 16.6655L209.242 24.5728C210.108 24.5912 210.971 24.6723 211.825 24.8149C213.536 25.1 215.196 25.6305 216.755 26.39C217.533 26.7689 218.283 27.2034 218.999 27.6901C219.514 27.1958 220.161 26.8611 220.862 26.7264C221.563 26.5913 222.288 26.6619 222.95 26.9298C223.612 27.1976 224.182 27.6511 224.592 28.2357C225.001 28.8203 225.233 29.511 225.259 30.2245ZM200.108 33.7289C200.236 34.0362 200.422 34.3157 200.658 34.5507C200.893 34.7864 201.173 34.9727 201.48 35.1007C201.787 35.2279 202.117 35.2933 202.45 35.2933C203.475 35.2933 204.399 34.6755 204.792 33.7289C205.184 32.7817 204.967 31.6919 204.242 30.9671C203.517 30.2423 202.427 30.0249 201.48 30.4171C200.533 30.81 199.916 31.7337 199.916 32.7589C199.916 33.0915 199.981 33.421 200.108 33.7289ZM214.624 39.8127C214.754 39.686 214.828 39.513 214.83 39.3318C214.833 39.15 214.763 38.9751 214.636 38.8452C214.509 38.7153 214.336 38.6412 214.155 38.6387C213.973 38.6361 213.798 38.7065 213.652 38.8161C213.271 39.0894 212.867 39.33 212.446 39.5352C212.024 39.7405 211.585 39.9099 211.135 40.0415C210.685 40.1726 210.225 40.2658 209.759 40.3196C209.293 40.3735 208.823 40.3874 208.355 40.3621C207.887 40.383 207.419 40.364 206.954 40.3057C206.49 40.248 206.031 40.1505 205.583 40.0142C205.134 39.8786 204.699 39.705 204.28 39.4959C203.862 39.2869 203.461 39.0423 203.084 38.7654C202.952 38.6577 202.786 38.6026 202.616 38.6108C202.446 38.619 202.286 38.6906 202.165 38.8104C202.046 38.9308 201.974 39.0911 201.966 39.2609C201.958 39.4307 202.013 39.5973 202.12 39.7285C202.566 40.0643 203.039 40.3608 203.535 40.6155C204.031 40.8702 204.549 41.0812 205.081 41.2472C205.613 41.4132 206.159 41.533 206.712 41.6058C207.265 41.678 207.823 41.7028 208.38 41.6799C208.937 41.7028 209.496 41.678 210.049 41.6058C211.157 41.4601 212.231 41.1251 213.226 40.6155C213.722 40.3608 214.195 40.0643 214.64 39.7285L214.624 39.8127ZM214.159 35.496C214.502 35.4998 214.843 35.4333 215.161 35.3015C215.478 35.1691 215.765 34.974 216.004 34.7275C216.244 34.481 216.43 34.1883 216.553 33.8671C216.676 33.5462 216.732 33.2036 216.719 32.8603C216.719 31.8351 216.101 30.9113 215.154 30.5185C214.207 30.1263 213.117 30.3436 212.392 31.0685C211.667 31.7933 211.45 32.8831 211.842 33.8303C212.235 34.7769 213.159 35.3947 214.184 35.3947L214.159 35.496Z" fill="white"/>
<g clip-path="url(#clip3_2031_948)">
<path d="M72 433C89.6731 433 104 418.673 104 401C104 383.327 89.6731 369 72 369C54.3269 369 40 383.327 40 401C40 418.673 54.3269 433 72 433Z" fill="#4353FF"/>
<path d="M81.4009 397.2L78.5009 406.34C78.5009 405.64 76.5009 390.48 76.5009 390.48C71.9009 390.48 69.4609 393.74 68.1809 397.2L64.6409 406.36C64.6409 405.7 64.1409 397.28 64.1409 397.28C63.9701 395.458 63.1368 393.761 61.7988 392.511C60.4608 391.262 58.711 390.546 56.8809 390.5L60.6409 413.46C65.4409 413.46 68.0409 410.2 69.3809 406.74L72.3809 398.94C72.3809 399.26 74.3809 413.46 74.3809 413.46C76.3436 413.458 78.2546 412.83 79.8368 411.669C81.4191 410.507 82.5903 408.872 83.1809 407L89.9809 390.48C85.1809 390.48 82.6609 393.74 81.3809 397.2H81.4009Z" fill="white"/>
</g>
<path d="M207.5 390C219.926 390 230 379.926 230 367.5C230 355.074 219.926 345 207.5 345C195.074 345 185 355.074 185 367.5C185 379.926 195.074 390 207.5 390Z" fill="#334C8C"/>
<path d="M213.203 365.371L212.83 368.504C212.814 368.649 212.744 368.783 212.635 368.881C212.526 368.978 212.384 369.031 212.238 369.031H208.981V378.327C208.982 378.438 208.939 378.544 208.861 378.624C208.783 378.703 208.678 378.748 208.567 378.75H205.248C205.193 378.749 205.138 378.738 205.087 378.716C205.037 378.694 204.991 378.662 204.952 378.623C204.914 378.583 204.884 378.536 204.863 378.485C204.843 378.434 204.833 378.379 204.833 378.324L204.851 369.031H202.385C202.228 369.031 202.077 368.968 201.966 368.857C201.855 368.746 201.793 368.596 201.793 368.438V365.306C201.793 365.149 201.855 364.999 201.966 364.888C202.077 364.777 202.228 364.714 202.385 364.714H204.836V361.677C204.836 358.163 206.927 356.25 209.988 356.25H212.495C212.652 356.25 212.803 356.312 212.914 356.423C213.025 356.534 213.087 356.685 213.087 356.842V359.48C213.087 359.637 213.025 359.788 212.914 359.899C212.803 360.01 212.652 360.072 212.495 360.072H210.959C209.295 360.099 208.981 360.895 208.981 362.085V364.705H212.626C212.709 364.707 212.791 364.726 212.866 364.761C212.941 364.796 213.008 364.847 213.063 364.909C213.117 364.972 213.158 365.046 213.182 365.126C213.206 365.205 213.213 365.289 213.203 365.371Z" fill="white"/>
<defs>
<clipPath id="clip0_2031_948">
<rect width="34.626" height="30" fill="white" transform="translate(9 39)"/>
</clipPath>
<clipPath id="clip1_2031_948">
<rect width="50" height="50" fill="white" transform="translate(236 185)"/>
</clipPath>
<clipPath id="clip2_2031_948">
<rect width="43.0408" height="48.6667" fill="white" transform="translate(98.5996 174.168)"/>
</clipPath>
<clipPath id="clip3_2031_948">
<rect width="64" height="64" fill="white" transform="translate(40 369)"/>
</clipPath>
</defs>
</svg>
