<svg width="1299" height="351" viewBox="0 0 1299 351" fill="none" xmlns="http://www.w3.org/2000/svg">
<path opacity="0.2" d="M955.5 149.996C955.5 154.67 953.428 159.275 949.401 163.77C945.37 168.268 939.403 172.631 931.676 176.803C916.224 185.147 893.831 192.677 866.117 199.006C810.698 211.663 734.112 219.496 649.5 219.496C564.888 219.496 488.302 211.663 432.883 199.006C405.169 192.677 382.776 185.147 367.324 176.803C359.597 172.631 353.63 168.268 349.599 163.77C345.572 159.275 343.5 154.67 343.5 149.996C343.5 145.322 345.572 140.718 349.599 136.222C353.63 131.724 359.597 127.361 367.324 123.189C382.776 114.845 405.169 107.315 432.883 100.986C488.302 88.3291 564.888 80.4961 649.5 80.4961C734.112 80.4961 810.698 88.3291 866.117 100.986C893.831 107.315 916.224 114.845 931.676 123.189C939.403 127.361 945.37 131.724 949.401 136.222C953.428 140.718 955.5 145.322 955.5 149.996Z" stroke="#7A7D7C"/>
<path opacity="0.2" d="M1298.5 211.996C1298.5 220.93 1294.05 229.707 1285.45 238.244C1276.86 246.782 1264.15 255.042 1247.74 262.926C1214.93 278.692 1167.42 292.904 1108.67 304.844C991.172 328.723 828.831 343.496 649.5 343.496C470.169 343.496 307.828 328.723 190.334 304.844C131.582 292.904 84.0699 278.692 51.2575 262.926C34.8501 255.042 22.1447 246.782 13.5479 238.244C4.95221 229.707 0.5 220.93 0.5 211.996C0.5 203.062 4.95221 194.285 13.5479 185.748C22.1447 177.21 34.8501 168.95 51.2575 161.066C84.0699 145.3 131.582 131.088 190.334 119.148C307.828 95.2691 470.169 80.4961 649.5 80.4961C828.831 80.4961 991.172 95.2691 1108.67 119.148C1167.42 131.088 1214.93 145.3 1247.74 161.066C1264.15 168.95 1276.86 177.21 1285.45 185.748C1294.05 194.285 1298.5 203.062 1298.5 211.996Z" stroke="#7A7D7C"/>
<g clip-path="url(#clip0_1582_553)">
<path d="M649.345 90.6901C674.388 90.6901 694.69 70.3885 694.69 45.3451C694.69 20.3017 674.388 0 649.345 0C624.302 0 604 20.3017 604 45.3451C604 70.3885 624.302 90.6901 649.345 90.6901Z" fill="#09B850"/>
<path d="M623.916 48.6503C625.9 48.6503 627.508 47.0422 627.508 45.0586C627.508 43.0749 625.9 41.4668 623.916 41.4668C621.932 41.4668 620.324 43.0749 620.324 45.0586C620.324 47.0422 621.932 48.6503 623.916 48.6503Z" fill="white"/>
<path d="M675.638 54.612H675.136C673.914 54.612 672.98 53.6781 672.98 52.457V37.659C672.98 36.4377 673.914 35.5039 675.136 35.5039H675.638C676.86 35.5039 677.793 36.4377 677.793 37.659V52.5288C677.793 53.6781 676.86 54.612 675.638 54.612Z" fill="white"/>
<path d="M666.084 64.2388H665.581C664.36 64.2388 663.426 63.305 663.426 62.0837V28.034C663.426 26.8127 664.36 25.8789 665.581 25.8789H666.084C667.305 25.8789 668.239 26.8127 668.239 28.034V62.0119C668.239 63.2331 667.233 64.2388 666.084 64.2388Z" fill="white"/>
<path d="M656.459 52.2419H655.956C654.735 52.2419 653.801 51.3081 653.801 50.0869V40.0301C653.801 38.8088 654.735 37.875 655.956 37.875H656.459C657.68 37.875 658.614 38.8088 658.614 40.0301V50.0869C658.614 51.3081 657.68 52.2419 656.459 52.2419Z" fill="white"/>
<path d="M629.877 45.4891C630.307 47.2851 631.385 48.2907 632.678 48.5062C633.396 48.6498 634.043 49.1527 634.33 49.7993L643.741 72.4273C644.1 73.2175 644.89 73.7203 645.752 73.7203H646.901C648.123 73.7203 649.056 72.7864 649.056 71.5653V18.4791C649.056 17.258 648.123 16.3242 646.901 16.3242H645.68C644.818 16.3242 644.028 16.827 643.669 17.6171L634.258 40.317C633.971 41.0354 633.325 41.4664 632.606 41.6101C631.313 41.8974 630.236 42.8313 629.805 44.6271C629.805 44.9144 629.805 45.2019 629.877 45.4891ZM637.85 44.1961L642.448 33.0617C642.807 32.1279 644.243 32.4151 644.243 33.4209V56.6236C644.243 57.6293 642.807 57.9166 642.448 56.9828L637.85 45.8484C637.635 45.3455 637.635 44.7708 637.85 44.1961Z" fill="white"/>
</g>
<g opacity="0.5" filter="url(#filter0_f_1582_553)">
<ellipse cx="652.806" cy="106.446" rx="37.2752" ry="2.68996" fill="#7A7D7C"/>
</g>
<line x1="126.5" y1="232.996" x2="126.5" y2="286.996" stroke="#DCE0E5" stroke-dasharray="2 2"/>
<line x1="522.5" y1="285.996" x2="522.5" y2="339.996" stroke="#DCE0E5" stroke-dasharray="2 2"/>
<line x1="291.5" y1="50.9961" x2="291.5" y2="104.996" stroke="#DCE0E5" stroke-dasharray="2 2"/>
<line x1="1043.5" y1="260.996" x2="1043.5" y2="314.996" stroke="#DCE0E5" stroke-dasharray="2 2"/>
<line x1="1194.5" y1="86.9961" x2="1194.5" y2="140.996" stroke="#DCE0E5" stroke-dasharray="2 2"/>
<line x1="878.5" y1="153.996" x2="878.5" y2="199.996" stroke="#DCE0E5" stroke-dasharray="2 2"/>
<line x1="431.5" y1="152.996" x2="431.5" y2="198.996" stroke="#DCE0E5" stroke-dasharray="2 2"/>
<g filter="url(#filter1_f_1582_553)">
<circle cx="291" cy="101.996" r="7" fill="white"/>
<circle cx="291" cy="101.996" r="7" fill="#DCE0E5" fill-opacity="0.5"/>
</g>
<g filter="url(#filter2_f_1582_553)">
<circle cx="100" cy="141.996" r="5" fill="white"/>
<circle cx="100" cy="141.996" r="5" fill="#09B850" fill-opacity="0.5"/>
</g>
<g filter="url(#filter3_f_1582_553)">
<circle cx="126" cy="287.996" r="7" fill="white"/>
<circle cx="126" cy="287.996" r="7" fill="#DCE0E5" fill-opacity="0.5"/>
</g>
<g filter="url(#filter4_f_1582_553)">
<circle cx="522" cy="339.996" r="7" fill="white"/>
<circle cx="522" cy="339.996" r="7" fill="#DCE0E5" fill-opacity="0.5"/>
</g>
<g filter="url(#filter5_f_1582_553)">
<circle cx="775" cy="340.996" r="5" fill="white"/>
<circle cx="775" cy="340.996" r="5" fill="#09B850" fill-opacity="0.5"/>
</g>
<g filter="url(#filter6_f_1582_553)">
<circle cx="1044" cy="315.996" r="7" fill="white"/>
<circle cx="1044" cy="315.996" r="7" fill="#DCE0E5" fill-opacity="0.5"/>
</g>
<g filter="url(#filter7_f_1582_553)">
<circle cx="1194" cy="138.996" r="7" fill="white"/>
<circle cx="1194" cy="138.996" r="7" fill="#DCE0E5" fill-opacity="0.5"/>
</g>
<g filter="url(#filter8_f_1582_553)">
<circle cx="978" cy="97.9961" r="5" fill="white"/>
<circle cx="978" cy="97.9961" r="5" fill="#09B850" fill-opacity="0.5"/>
</g>
<g filter="url(#filter9_f_1582_553)">
<circle cx="431" cy="196.996" r="7" fill="white"/>
<circle cx="431" cy="196.996" r="7" fill="#DCE0E5" fill-opacity="0.5"/>
</g>
<g filter="url(#filter10_f_1582_553)">
<circle cx="672" cy="217.996" r="5" fill="white"/>
<circle cx="672" cy="217.996" r="5" fill="#09B850" fill-opacity="0.5"/>
</g>
<g filter="url(#filter11_f_1582_553)">
<path d="M886 195.996C886 199.862 882.866 202.996 879 202.996C875.134 202.996 872 199.862 872 195.996C872 192.13 875.134 188.996 879 188.996C882.866 188.996 886 192.13 886 195.996Z" fill="white"/>
<path d="M886 195.996C886 199.862 882.866 202.996 879 202.996C875.134 202.996 872 199.862 872 195.996C872 192.13 875.134 188.996 879 188.996C882.866 188.996 886 192.13 886 195.996Z" fill="#DCE0E5" fill-opacity="0.5"/>
</g>
<circle cx="878" cy="141.996" r="20" fill="#7952B3"/>
<path fill-rule="evenodd" clip-rule="evenodd" d="M870.896 132.479C869.551 132.479 868.556 133.661 868.6 134.943C868.643 136.174 868.587 137.77 868.188 139.071C867.786 140.375 867.108 141.202 866 141.308V142.506C867.108 142.612 867.786 143.439 868.188 144.743C868.587 146.044 868.643 147.64 868.6 148.871C868.556 150.153 869.551 151.336 870.896 151.336H884.677C886.022 151.336 887.017 150.153 886.973 148.871C886.93 147.64 886.986 146.044 887.385 144.743C887.787 143.439 888.463 142.612 889.571 142.506V141.308C888.463 141.202 887.787 140.375 887.385 139.071C886.986 137.77 886.93 136.174 886.973 134.943C887.017 133.661 886.022 132.479 884.677 132.479H870.896ZM881.981 144.086C881.981 145.852 880.669 146.922 878.493 146.922H874.789C874.683 146.922 874.582 146.88 874.507 146.805C874.432 146.73 874.39 146.628 874.39 146.521V137.293C874.39 137.187 874.432 137.085 874.507 137.009C874.582 136.934 874.683 136.892 874.789 136.892H878.472C880.287 136.892 881.478 137.879 881.478 139.394C881.478 140.458 880.676 141.41 879.656 141.577V141.632C881.045 141.785 881.981 142.752 881.981 144.086ZM878.09 138.164H875.978V141.16H877.756C879.132 141.16 879.89 140.604 879.89 139.61C879.89 138.678 879.238 138.164 878.09 138.164ZM875.978 142.348V145.65H878.167C879.599 145.65 880.357 145.073 880.357 143.989C880.357 142.905 879.578 142.348 878.075 142.348L875.978 142.348Z" fill="white"/>
<circle cx="126.5" cy="215.496" r="27.5" fill="#DEE8E9"/>
<g clip-path="url(#clip1_1582_553)">
<mask id="mask0_1582_553" style="mask-type:luminance" maskUnits="userSpaceOnUse" x="112" y="200" width="30" height="31">
<path d="M142 200.996H112V230.996H142V200.996Z" fill="white"/>
</mask>
<g mask="url(#mask0_1582_553)">
<path d="M118.649 219.125L117.604 223.024L113.788 223.104C112.647 220.989 112 218.568 112 215.996C112 213.509 112.605 211.163 113.677 209.098H113.678L117.076 209.721L118.565 213.098C118.253 214.006 118.083 214.981 118.083 215.996C118.083 217.097 118.283 218.152 118.649 219.125Z" fill="#FBBB00"/>
<path d="M141.736 213.193C141.909 214.101 141.998 215.038 141.998 215.996C141.998 217.069 141.885 218.117 141.67 219.127C140.94 222.566 139.032 225.568 136.389 227.693L136.388 227.692L132.108 227.474L131.503 223.693C133.256 222.664 134.627 221.054 135.349 219.127H127.328V213.193H135.466H141.736Z" fill="#518EF8"/>
<path d="M136.391 227.692L136.392 227.693C133.822 229.759 130.556 230.996 127.001 230.996C121.289 230.996 116.323 227.803 113.789 223.104L118.65 219.125C119.917 222.506 123.178 224.912 127.001 224.912C128.645 224.912 130.184 224.468 131.506 223.693L136.391 227.692Z" fill="#28B446"/>
<path d="M136.573 204.449L131.714 208.428C130.346 207.573 128.73 207.079 126.999 207.079C123.089 207.079 119.766 209.596 118.563 213.098L113.677 209.098H113.676C116.172 204.285 121.201 200.996 126.999 200.996C130.638 200.996 133.975 202.293 136.573 204.449Z" fill="#F14336"/>
</g>
</g>
<circle cx="522" cy="266.996" r="35" fill="#2F2C30"/>
<g clip-path="url(#clip2_1582_553)">
<path fill-rule="evenodd" clip-rule="evenodd" d="M516.637 246.996C514.43 246.998 512.644 248.789 512.645 250.995C512.644 253.202 514.431 254.993 516.638 254.994H520.631V250.997C520.632 248.79 518.845 246.999 516.637 246.996C516.638 246.996 516.638 246.996 516.637 246.996ZM516.637 257.663H505.993C503.786 257.664 501.998 259.455 502 261.662C501.997 263.869 503.784 265.659 505.991 265.663H516.637C518.843 265.661 520.631 263.87 520.629 261.664C520.631 259.455 518.843 257.664 516.637 257.663Z" fill="#36C5F0"/>
<path fill-rule="evenodd" clip-rule="evenodd" d="M541.918 261.662C541.92 259.455 540.132 257.664 537.926 257.663C535.719 257.664 533.931 259.455 533.933 261.662V265.663H537.926C540.132 265.661 541.92 263.87 541.918 261.662ZM531.273 261.662V250.995C531.274 248.79 529.488 246.999 527.282 246.996C525.075 246.998 523.287 248.789 523.289 250.995V261.662C523.286 263.869 525.073 265.659 527.28 265.663C529.487 265.661 531.274 263.87 531.273 261.662Z" fill="#2EB67D"/>
<path fill-rule="evenodd" clip-rule="evenodd" d="M527.282 286.996C529.488 286.995 531.276 285.204 531.274 282.997C531.276 280.791 529.488 279 527.282 278.998H523.289V282.997C523.287 285.202 525.075 286.993 527.282 286.996ZM527.282 276.328H537.927C540.134 276.326 541.921 274.536 541.92 272.329C541.923 270.122 540.136 268.331 537.929 268.328H527.283C525.077 268.33 523.289 270.121 523.291 272.327C523.289 274.536 525.075 276.326 527.282 276.328Z" fill="#ECB22E"/>
<path fill-rule="evenodd" clip-rule="evenodd" d="M502 272.329C501.998 274.536 503.786 276.327 505.993 276.328C508.199 276.327 509.987 274.536 509.985 272.329V268.33H505.993C503.786 268.332 501.998 270.123 502 272.329ZM512.645 272.329V282.996C512.642 285.203 514.43 286.993 516.636 286.997C518.843 286.995 520.631 285.204 520.629 282.998V272.333C520.632 270.126 518.845 268.335 516.638 268.332C514.43 268.332 512.644 270.123 512.645 272.329Z" fill="#E01E5A"/>
</g>
<g filter="url(#filter12_d_1582_553)">
<circle cx="1043" cy="237.996" r="35" fill="#95BF46"/>
</g>
<g clip-path="url(#clip3_1582_553)">
<path d="M1055.66 225.852C1055.63 225.652 1055.45 225.541 1055.31 225.529C1055.16 225.517 1052.11 225.29 1052.11 225.29C1052.11 225.29 1049.98 223.181 1049.75 222.948C1049.52 222.714 1049.06 222.785 1048.88 222.837C1048.86 222.845 1048.42 222.98 1047.69 223.204C1046.98 221.163 1045.73 219.286 1043.53 219.286C1043.47 219.286 1043.41 219.289 1043.34 219.292C1042.72 218.464 1041.94 218.104 1041.27 218.104C1036.14 218.104 1033.69 224.519 1032.92 227.78C1030.92 228.397 1029.51 228.837 1029.32 228.894C1028.21 229.243 1028.18 229.278 1028.03 230.327C1027.92 231.121 1025.01 253.645 1025.01 253.645L1047.7 257.898L1060 255.237C1060 255.237 1055.68 226.052 1055.66 225.852ZM1046.44 223.592L1044.52 224.187C1044.52 224.051 1044.52 223.918 1044.52 223.773C1044.52 222.504 1044.34 221.482 1044.06 220.672C1045.2 220.814 1045.95 222.106 1046.44 223.592ZM1042.65 220.924C1042.97 221.714 1043.17 222.849 1043.17 224.381C1043.17 224.459 1043.17 224.531 1043.17 224.603C1041.92 224.99 1040.57 225.41 1039.21 225.831C1039.97 222.884 1041.4 221.461 1042.65 220.924ZM1041.13 219.48C1041.35 219.48 1041.57 219.555 1041.79 219.702C1040.14 220.476 1038.38 222.426 1037.63 226.318L1034.5 227.289C1035.37 224.32 1037.44 219.48 1041.13 219.48Z" fill="#5E8E3E"/>
<path d="M1055.31 225.529C1055.16 225.516 1052.1 225.29 1052.1 225.29C1052.1 225.29 1049.98 223.181 1049.75 222.947C1049.66 222.861 1049.54 222.816 1049.42 222.797L1047.7 257.897L1060 255.237C1060 255.237 1055.68 226.051 1055.66 225.851C1055.63 225.651 1055.45 225.541 1055.31 225.529Z" fill="#72A94E"/>
<path d="M1043.53 232.323L1042.01 236.833C1042.01 236.833 1040.68 236.124 1039.06 236.124C1036.67 236.124 1036.55 237.622 1036.55 238C1036.55 240.06 1041.92 240.849 1041.92 245.674C1041.92 249.471 1039.51 251.915 1036.26 251.915C1032.37 251.915 1030.38 249.491 1030.38 249.491L1031.42 246.044C1031.42 246.044 1033.47 247.802 1035.19 247.802C1036.32 247.802 1036.78 246.913 1036.78 246.264C1036.78 243.576 1032.38 243.457 1032.38 239.041C1032.38 235.325 1035.04 231.729 1040.43 231.729C1042.5 231.729 1043.53 232.323 1043.53 232.323Z" fill="white"/>
</g>
<circle cx="1195" cy="82.9961" r="20" fill="#0062FF"/>
<g clip-path="url(#clip4_1582_553)">
<path d="M1189.37 73.8574L1184 77.3005L1189.37 80.6929L1194.73 77.3005L1189.37 73.8574ZM1200.1 73.8574L1194.73 77.3005L1200.1 80.6929L1205.47 77.3005L1200.1 73.8574ZM1184 84.1359L1189.37 87.5789L1194.73 84.1359L1189.37 80.6929L1184 84.1359ZM1200.1 80.6929L1194.73 84.1359L1200.1 87.5789L1205.47 84.1359L1200.1 80.6929ZM1189.37 88.6929L1194.73 92.1359L1200.1 88.6929L1194.73 85.3005L1189.37 88.6929Z" fill="white"/>
</g>
<circle cx="291" cy="49.9961" r="20" fill="#FF4500"/>
<path d="M302.506 50.1458C302.51 50.3772 302.481 50.6083 302.42 50.8317C302.359 51.0552 302.267 51.2694 302.146 51.467C302.026 51.6647 301.878 51.8447 301.708 52.0014C301.537 52.1581 301.345 52.2899 301.138 52.3929C301.142 52.4546 301.146 52.5167 301.148 52.5788C301.153 52.7026 301.153 52.8266 301.148 52.9505C301.146 53.0126 301.142 53.0747 301.138 53.1363C301.138 56.921 296.728 59.9961 291.287 59.9961C285.847 59.9961 281.437 56.921 281.437 53.1363C281.432 53.0747 281.429 53.0126 281.427 52.9505C281.421 52.8266 281.421 52.7026 281.427 52.5788C281.429 52.5167 281.432 52.4546 281.437 52.3929C281.112 52.2436 280.824 52.0254 280.591 51.7535C280.359 51.4816 280.189 51.1625 280.092 50.8182C279.995 50.4738 279.975 50.1125 280.031 49.7593C280.088 49.4062 280.221 49.0696 280.421 48.773C280.621 48.4764 280.883 48.2268 281.189 48.0415C281.494 47.8563 281.837 47.7398 282.192 47.7001C282.548 47.6603 282.908 47.6982 283.247 47.8112C283.586 47.9243 283.897 48.1098 284.157 48.3548C284.641 48.027 285.148 47.7347 285.673 47.48C286.199 47.2257 286.743 47.0095 287.3 46.8337C287.857 46.658 288.426 46.5233 289.003 46.4299C289.58 46.3366 290.163 46.2855 290.747 46.2766L291.997 40.4137C292.011 40.3457 292.038 40.2815 292.078 40.2241C292.117 40.167 292.167 40.118 292.225 40.0805C292.283 40.0429 292.348 40.0171 292.416 40.0044C292.484 39.9922 292.555 39.9934 292.622 40.0082L296.762 40.8361C297.179 40.1185 298.056 39.811 298.831 40.11C299.605 40.4091 300.047 41.2264 299.874 42.0383C299.702 42.8501 298.964 43.4161 298.135 43.3735C297.306 43.3308 296.631 42.6921 296.542 41.8668L292.926 41.1065L291.828 46.378C292.405 46.3902 292.981 46.4443 293.55 46.5393C294.69 46.7294 295.797 47.0831 296.836 47.5894C297.355 47.842 297.856 48.1317 298.333 48.4562C298.676 48.1266 299.108 47.9035 299.575 47.8137C300.042 47.7236 300.526 47.7707 300.967 47.9493C301.408 48.1278 301.788 48.4302 302.061 48.8199C302.334 49.2096 302.489 49.6701 302.506 50.1458ZM285.739 52.4821C285.824 52.6869 285.948 52.8732 286.105 53.0299C286.262 53.187 286.448 53.3112 286.653 53.3965C286.858 53.4813 287.078 53.525 287.3 53.525C287.983 53.525 288.599 53.1131 288.861 52.4821C289.123 51.8506 288.978 51.124 288.494 50.6408C288.011 50.1576 287.285 50.0127 286.653 50.2742C286.022 50.5361 285.61 51.1519 285.61 51.8354C285.61 52.0571 285.654 52.2768 285.739 52.4821ZM295.416 56.5379C295.502 56.4534 295.552 56.3381 295.554 56.2173C295.555 56.0961 295.508 55.9795 295.424 55.8929C295.339 55.8063 295.224 55.7569 295.103 55.7552C294.982 55.7535 294.866 55.8004 294.768 55.8735C294.514 56.0557 294.245 56.2161 293.964 56.3529C293.683 56.4898 293.39 56.6027 293.09 56.6904C292.79 56.7778 292.483 56.8399 292.173 56.8758C291.862 56.9117 291.549 56.921 291.237 56.9041C290.925 56.9181 290.612 56.9054 290.303 56.8665C289.993 56.8281 289.687 56.7631 289.389 56.6722C289.09 56.5819 288.799 56.4661 288.52 56.3267C288.241 56.1873 287.974 56.0243 287.722 55.8397C287.635 55.7679 287.524 55.7311 287.411 55.7366C287.297 55.7421 287.191 55.7899 287.11 55.8697C287.03 55.9499 286.983 56.0568 286.977 56.17C286.972 56.2832 287.008 56.3943 287.08 56.4817C287.377 56.7056 287.693 56.9033 288.024 57.0731C288.354 57.2429 288.699 57.3836 289.054 57.4942C289.409 57.6049 289.773 57.6847 290.141 57.7333C290.51 57.7815 290.882 57.7979 291.254 57.7827C291.625 57.7979 291.997 57.7815 292.366 57.7333C293.104 57.6362 293.821 57.4128 294.484 57.0731C294.814 56.9033 295.13 56.7056 295.427 56.4817L295.416 56.5379ZM295.106 53.6601C295.335 53.6627 295.562 53.6183 295.774 53.5304C295.985 53.4422 296.177 53.3121 296.336 53.1478C296.496 52.9834 296.62 52.7883 296.702 52.5741C296.784 52.3602 296.822 52.1318 296.812 51.9029C296.812 51.2195 296.401 50.6037 295.769 50.3418C295.138 50.0803 294.411 50.2252 293.928 50.7084C293.445 51.1916 293.3 51.9182 293.562 52.5496C293.823 53.1807 294.439 53.5925 295.123 53.5925L295.106 53.6601Z" fill="white"/>
<circle cx="431" cy="140.996" r="15" fill="#0F0F10"/>
<g clip-path="url(#clip5_1582_553)">
<path d="M438.979 149.086C438.916 149.15 438.837 149.181 438.742 149.181C438.647 149.181 438.568 149.15 438.505 149.086C438.442 149.023 438.41 148.944 438.41 148.85C438.41 148.755 438.442 148.668 438.513 148.605C438.576 148.542 438.655 148.518 438.742 148.518C438.837 148.518 438.916 148.55 438.979 148.613C439.042 148.676 439.073 148.755 439.073 148.85C439.081 148.944 439.05 149.023 438.979 149.086ZM438.553 148.652C438.497 148.708 438.474 148.771 438.474 148.842C438.474 148.921 438.497 148.984 438.553 149.039C438.608 149.094 438.671 149.118 438.75 149.118C438.829 149.118 438.892 149.094 438.947 149.039C439.002 148.984 439.026 148.921 439.026 148.842C439.026 148.771 439.002 148.7 438.947 148.652C438.892 148.597 438.829 148.565 438.75 148.565C438.671 148.573 438.608 148.597 438.553 148.652ZM438.852 149.015C438.821 149.039 438.789 149.047 438.758 149.047C438.71 149.047 438.663 149.031 438.624 148.992C438.584 148.952 438.568 148.905 438.568 148.85C438.568 148.794 438.584 148.747 438.616 148.708C438.647 148.668 438.695 148.652 438.75 148.652C438.781 148.652 438.813 148.66 438.845 148.676C438.884 148.7 438.916 148.739 438.924 148.802H438.837C438.829 148.779 438.821 148.755 438.805 148.747C438.789 148.739 438.774 148.731 438.758 148.731C438.734 148.731 438.71 148.739 438.695 148.763C438.679 148.786 438.671 148.818 438.671 148.858C438.671 148.897 438.679 148.929 438.695 148.944C438.71 148.96 438.734 148.976 438.758 148.976C438.781 148.976 438.797 148.968 438.813 148.96L438.837 148.913H438.916C438.908 148.96 438.884 148.992 438.852 149.015ZM439.689 145.511C439.689 145.479 439.681 145.448 439.681 145.416C439.681 145.393 439.673 145.377 439.673 145.361C439.665 145.314 439.658 145.274 439.642 145.227C439.61 145.14 439.563 145.053 439.5 144.982C439.437 144.911 439.365 144.856 439.294 144.816C439.216 144.777 439.137 144.753 439.073 144.738C439.05 144.738 439.034 144.73 439.018 144.73C439.105 144.351 438.995 144.059 438.924 143.925L438.939 143.909C439.034 143.814 439.113 143.727 439.184 143.64L439.2 143.625C439.255 143.546 439.287 143.467 439.31 143.396C439.326 143.333 439.342 143.277 439.342 143.222V143.175V143.143V143.072C439.334 142.954 439.318 142.804 439.239 142.638C439.2 142.559 439.144 142.472 439.073 142.393C439.002 142.314 438.916 142.243 438.813 142.188C438.805 142.18 438.797 142.18 438.789 142.172C438.576 141.865 438.339 141.62 438.126 141.438C438.016 141.344 437.913 141.265 437.826 141.202C437.74 141.138 437.669 141.091 437.629 141.06C437.534 140.989 437.463 140.949 437.432 140.933C437.353 140.886 437.298 140.846 437.266 140.823C437.242 140.799 437.227 140.791 437.219 140.783C437.219 140.783 437.219 140.775 437.211 140.76C437.203 140.736 437.203 140.704 437.203 140.649C437.203 140.57 437.203 140.452 437.211 140.294C437.227 140.041 437.25 139.702 437.282 139.236C437.29 139.086 437.29 138.944 437.29 138.818C437.282 138.605 437.25 138.416 437.211 138.242C437.203 138.202 437.187 138.163 437.179 138.123C437.171 138.092 437.163 138.076 437.156 138.06C437.148 138.037 437.14 138.013 437.124 137.981C437.116 137.966 437.116 137.95 437.1 137.934C437.085 137.895 437.069 137.855 437.045 137.816L437.037 137.808L437.029 137.784L437.021 137.768C436.982 137.697 436.935 137.634 436.887 137.579C436.864 137.468 436.824 137.311 436.753 137.129C436.69 136.971 436.611 136.798 436.493 136.624C436.453 136.561 436.406 136.505 436.358 136.45L436.374 136.434C436.398 136.411 436.95 135.827 437.392 135.069C438.205 133.656 437.937 132.796 437.566 132.322L437.558 132.307L437.55 132.291C437.195 131.896 436.706 131.659 436.114 131.58C434.875 131.423 433.47 132.038 433.099 132.212L432.42 131.47C432.357 131.407 432.294 131.344 432.223 131.296C432.152 131.249 432.073 131.202 431.994 131.162C431.836 131.091 431.662 131.044 431.473 131.02C431.102 130.973 430.676 131.02 430.218 131.138C429.531 131.312 428.766 131.659 427.961 132.141C427.156 132.622 426.319 133.246 425.506 133.988C424.512 134.888 423.691 135.843 423.091 136.758C422.791 137.208 422.546 137.65 422.365 138.076C422.183 138.494 422.065 138.897 422.017 139.26C421.986 139.528 421.986 139.781 422.041 140.01C422.065 140.112 422.096 140.207 422.144 140.302C422.199 140.42 422.27 140.531 422.357 140.625L423.059 141.359L423.138 141.438L423.13 141.446L423.107 141.494C423.091 141.517 423.083 141.541 423.067 141.557L423.043 141.604C423.036 141.628 423.02 141.652 423.012 141.675L422.988 141.723C422.98 141.746 422.965 141.77 422.957 141.794C422.949 141.809 422.941 141.825 422.941 141.841L422.917 141.912C422.909 141.928 422.909 141.944 422.901 141.959C422.894 141.983 422.886 142.007 422.878 142.038C422.878 142.046 422.87 142.054 422.87 142.062C422.87 142.07 422.862 142.078 422.862 142.086C422.854 142.109 422.846 142.141 422.838 142.165C422.838 142.18 422.83 142.196 422.83 142.212C422.83 142.22 422.822 142.236 422.822 142.243C422.822 142.259 422.815 142.275 422.815 142.291C422.815 142.307 422.807 142.322 422.807 142.338C422.799 142.37 422.799 142.401 422.791 142.441C422.791 142.449 422.791 142.457 422.783 142.472V142.48C422.783 142.504 422.775 142.528 422.775 142.543C422.775 142.575 422.767 142.614 422.767 142.646V143.041C422.767 143.056 422.767 143.072 422.775 143.088C422.775 143.104 422.775 143.127 422.783 143.151V143.175C422.783 143.191 422.791 143.214 422.791 143.23C422.791 143.246 422.799 143.262 422.799 143.285C422.799 143.293 422.799 143.301 422.807 143.309C422.807 143.317 422.815 143.333 422.815 143.341V143.356C422.815 143.372 422.822 143.388 422.83 143.419C422.83 143.427 422.83 143.427 422.838 143.435C422.846 143.451 422.846 143.467 422.846 143.475L422.854 143.491C422.854 143.498 422.854 143.498 422.862 143.506L422.87 143.522V143.546C422.87 143.554 422.87 143.554 422.878 143.562L422.886 143.577C422.886 143.593 422.894 143.601 422.894 143.617C422.901 143.633 422.901 143.648 422.909 143.68C422.909 143.688 422.909 143.688 422.917 143.696C422.925 143.719 422.933 143.735 422.933 143.743C422.941 143.759 422.949 143.775 422.957 143.806L422.965 143.814C422.972 143.83 422.972 143.846 422.98 143.854L422.988 143.869C422.988 143.877 422.996 143.885 422.996 143.893C422.996 143.901 423.004 143.917 423.012 143.925L423.02 143.94C423.028 143.948 423.028 143.964 423.036 143.972C423.043 143.98 423.043 143.988 423.043 143.996C423.051 144.011 423.059 144.027 423.067 144.051L423.075 144.059C423.083 144.067 423.083 144.075 423.091 144.082C423.099 144.09 423.099 144.106 423.107 144.114C423.115 144.122 423.122 144.138 423.13 144.161L423.138 144.169C423.146 144.177 423.146 144.185 423.154 144.193C423.162 144.209 423.17 144.217 423.17 144.225C423.178 144.232 423.186 144.248 423.193 144.264V144.272C423.201 144.28 423.201 144.288 423.209 144.296C423.217 144.311 423.225 144.319 423.233 144.327C423.241 144.335 423.249 144.351 423.264 144.374C423.272 144.382 423.28 144.39 423.28 144.398C423.288 144.414 423.296 144.422 423.304 144.43C423.312 144.438 423.32 144.453 423.328 144.469C423.335 144.477 423.343 144.493 423.351 144.501C423.359 144.517 423.367 144.524 423.383 144.532L423.407 144.556L423.414 144.564C423.43 144.58 423.438 144.595 423.454 144.611L423.47 144.627L423.493 144.651L423.541 144.698L423.556 144.714L423.58 144.738L423.588 144.745C423.604 144.761 423.628 144.777 423.643 144.801L423.651 144.809C423.659 144.816 423.667 144.816 423.675 144.832C423.699 144.856 423.722 144.872 423.746 144.895L423.762 144.903L423.77 144.911L423.785 144.919C423.809 144.935 423.825 144.951 423.849 144.966L423.856 144.974C423.864 144.982 423.872 144.982 423.872 144.982L423.888 144.998C423.904 145.014 423.92 145.022 423.935 145.037L423.951 145.045L423.967 145.061L423.975 145.069C423.991 145.077 424.014 145.093 424.03 145.101C424.038 145.108 424.046 145.116 424.062 145.116L424.077 145.124L424.085 145.132H424.093C424.125 145.148 424.148 145.164 424.172 145.18L424.188 145.187L424.283 145.235H424.291L424.306 145.243L424.354 145.266C424.362 145.266 424.369 145.274 424.377 145.274C424.385 145.282 424.393 145.282 424.409 145.29H424.417C424.433 145.298 424.448 145.306 424.464 145.306H424.472C424.488 145.314 424.504 145.322 424.527 145.329H424.535L424.551 145.337C424.559 145.337 424.567 145.345 424.575 145.345H424.583C424.606 145.353 424.63 145.361 424.661 145.369H424.669C424.709 145.385 424.748 145.393 424.788 145.401H424.796C424.827 145.408 424.867 145.416 424.898 145.424H424.93C424.961 145.432 424.993 145.44 425.025 145.44H425.056C425.08 145.44 425.096 145.448 425.119 145.448C425.119 145.456 425.127 145.464 425.127 145.472C425.182 145.622 425.238 145.771 425.301 145.914C426.232 148.494 428.813 150.499 431.757 150.87C434.701 151.233 437.85 149.276 439.129 146.632C439.184 146.529 439.231 146.434 439.279 146.332C439.405 146.198 439.508 146.064 439.571 145.921C439.673 145.835 439.697 145.661 439.689 145.511Z" fill="#664F44"/>
<path d="M437.168 132.598C437.026 132.44 436.86 132.322 436.679 132.235C436.647 132.219 436.616 132.211 436.576 132.204C436.561 132.196 436.545 132.18 436.529 132.172C436.371 132.109 436.205 132.069 436.032 132.046C435.179 131.935 434.201 132.251 433.648 132.472C433.617 132.488 433.585 132.496 433.553 132.511C433.506 132.535 433.459 132.551 433.411 132.574C433.332 132.606 433.253 132.645 433.167 132.685C433.151 132.693 433.143 132.693 433.127 132.701L432.977 132.527L432.906 132.448L432.843 132.377L432.819 132.346L432.243 131.683L432.196 131.627L432.133 131.556H432.125L431.959 131.596L431.77 131.635C431.667 131.588 431.541 131.556 431.399 131.533C431.115 131.493 430.752 131.533 430.341 131.635C429.931 131.738 429.465 131.919 428.976 132.164C427.989 132.653 426.9 133.403 425.842 134.366C425.471 134.698 425.132 135.045 424.816 135.384C424.508 135.716 424.232 136.055 423.98 136.379C423.467 137.05 423.08 137.697 422.827 138.281C422.662 138.668 422.559 139.023 422.519 139.331C422.488 139.552 422.496 139.749 422.535 139.907C422.551 139.962 422.567 140.001 422.583 140.049C422.622 140.144 422.669 140.222 422.733 140.293L423.372 140.964L423.443 141.035L423.451 141.028C423.467 141.004 423.49 140.98 423.514 140.964L423.522 140.956L423.546 140.933C423.561 140.909 423.585 140.893 423.601 140.87C423.617 140.854 423.624 140.846 423.64 140.838C423.656 140.83 423.664 140.814 423.68 140.807L423.695 140.791C423.711 140.783 423.719 140.767 423.735 140.759C423.751 140.743 423.774 140.728 423.79 140.712C423.798 140.704 423.814 140.696 423.822 140.688H423.83C423.853 140.672 423.869 140.657 423.893 140.641C423.909 140.633 423.916 140.625 423.932 140.609C423.956 140.593 423.972 140.578 423.995 140.562C424.011 140.554 424.019 140.546 424.035 140.538C424.059 140.522 424.082 140.507 424.106 140.499C424.122 140.491 424.13 140.483 424.145 140.475C424.169 140.459 424.193 140.451 424.216 140.436C424.232 140.428 424.24 140.42 424.256 140.412L424.272 140.404C424.295 140.396 424.311 140.38 424.335 140.372C424.343 140.365 424.358 140.365 424.366 140.357C424.382 140.349 424.398 140.341 424.422 140.333L424.469 140.309L424.485 140.301L424.603 140.254C424.619 140.246 424.627 140.246 424.643 140.238C424.658 140.23 424.666 140.23 424.682 140.222L424.698 140.215C424.706 140.215 424.714 140.207 424.722 140.207C424.737 140.199 424.753 140.199 424.777 140.191H424.793C424.816 140.183 424.832 140.183 424.856 140.175C424.871 140.167 424.895 140.167 424.911 140.159C424.935 140.151 424.958 140.151 424.982 140.144C424.99 140.144 424.998 140.136 425.014 140.136C425.021 140.136 425.037 140.136 425.045 140.128C425.069 140.12 425.092 140.12 425.116 140.12C425.14 140.12 425.156 140.112 425.179 140.112C425.195 140.112 425.211 140.104 425.227 140.104H425.29C425.369 140.104 425.463 140.104 425.558 140.112H425.574C425.669 140.12 425.779 140.136 425.89 140.159C425.913 140.167 425.945 140.167 425.969 140.175C425.976 140.167 425.976 140.151 425.984 140.144C426.047 140.041 426.103 139.93 426.166 139.828C426.521 139.236 426.9 138.715 427.287 138.257C427.421 138.099 427.555 137.957 427.689 137.815C428.25 137.231 428.81 136.781 429.315 136.434C429.426 136.355 429.544 136.284 429.647 136.213C429.797 136.118 429.939 136.039 430.073 135.96C430.183 135.897 430.286 135.842 430.388 135.795C430.554 135.708 430.704 135.637 430.838 135.582L430.957 135.534C431.012 135.511 431.067 135.487 431.115 135.471C431.075 135.463 431.028 135.463 430.988 135.463H430.83C430.791 135.463 430.744 135.463 430.704 135.471C430.625 135.479 430.538 135.487 430.452 135.495C430.42 135.503 430.396 135.503 430.365 135.511C430.578 135.4 430.791 135.321 430.988 135.258C431.122 135.219 431.257 135.187 431.383 135.163C431.557 135.132 431.722 135.108 431.872 135.1C431.975 135.092 432.07 135.092 432.156 135.092C432.243 135.092 432.33 135.1 432.401 135.1C432.662 135.116 432.819 135.155 432.819 135.155C432.78 135.1 432.733 135.061 432.685 135.021C432.591 134.95 432.488 134.903 432.393 134.863C432.354 134.848 432.322 134.84 432.291 134.824C432.267 134.816 432.243 134.808 432.227 134.808C432.275 134.8 432.314 134.792 432.354 134.792C432.401 134.784 432.441 134.784 432.488 134.777C432.859 134.745 433.19 134.777 433.435 134.816C433.727 134.871 433.909 134.942 433.909 134.942C433.869 134.863 433.806 134.792 433.735 134.729C433.688 134.69 433.632 134.65 433.585 134.619C433.688 134.642 433.774 134.666 433.869 134.698C434.106 134.769 434.303 134.855 434.461 134.926L434.603 134.998C434.619 135.005 434.627 135.013 434.635 135.013C434.777 135.092 434.856 135.147 434.856 135.147C434.832 135.061 434.785 134.982 434.722 134.911C434.706 134.895 434.69 134.871 434.674 134.855H434.682C434.69 134.855 434.698 134.863 434.714 134.863C434.722 134.863 434.737 134.871 434.753 134.879C434.816 134.903 434.911 134.942 435.021 134.998C435.029 134.998 435.029 135.005 435.037 135.005L435.085 135.029C435.124 135.053 435.164 135.069 435.203 135.1L435.321 135.171C435.345 135.187 435.361 135.195 435.385 135.211C435.424 135.242 435.471 135.274 435.511 135.313C435.558 135.353 435.598 135.392 435.637 135.432L435.661 135.455C435.692 135.487 435.724 135.518 435.748 135.55C435.803 135.613 435.85 135.684 435.898 135.755C435.953 135.842 435.992 135.945 436.032 136.047C436.032 136.055 436.032 136.063 436.04 136.063C436.063 136.039 436.111 135.992 436.166 135.929C436.624 135.392 437.997 133.656 437.168 132.598Z" fill="#132134"/>
<path d="M439.213 145.566C439.213 145.566 439.229 145.448 439.166 145.337C439.166 145.329 439.158 145.321 439.158 145.321L439.15 145.313L439.126 145.29C439.111 145.274 439.095 145.258 439.071 145.242C439.063 145.234 439.047 145.227 439.032 145.219C438.992 145.203 438.953 145.187 438.897 145.179C438.858 145.171 438.818 145.171 438.771 145.171H438.708V145.187C438.708 145.195 438.716 145.203 438.716 145.219C438.716 145.227 438.716 145.234 438.724 145.234C438.732 145.258 438.74 145.298 438.747 145.329C438.747 145.329 438.747 145.337 438.74 145.353V145.361C438.716 145.416 438.653 145.542 438.511 145.7C438.487 145.732 438.463 145.755 438.432 145.787C438.037 146.197 437.185 146.774 435.385 147.097C434.777 147.184 434.209 147.192 433.736 147.129C433.025 147.042 432.496 146.813 432.244 146.505C432.22 146.482 432.204 146.45 432.181 146.426C432.165 146.403 432.157 146.387 432.141 146.363C432.133 146.355 432.133 146.347 432.125 146.339C432.023 146.15 431.976 145.945 431.976 145.748C431.976 145.503 432.054 145.274 432.181 145.1C432.283 144.958 432.418 144.848 432.583 144.8C432.662 144.777 432.749 144.761 432.836 144.769C432.852 144.769 432.875 144.769 432.907 144.777C432.962 144.785 433.049 144.793 433.152 144.808C433.159 144.808 433.175 144.808 433.183 144.816C433.522 144.856 434.059 144.911 434.706 144.871C435.89 144.8 437.445 144.429 438.858 143.151V143.143C438.866 143.032 438.85 142.843 438.716 142.693C438.692 142.669 438.669 142.646 438.637 142.622C438.621 142.606 438.597 142.598 438.582 142.583C438.558 142.575 438.542 142.559 438.526 142.551L438.455 142.504V142.496C438.448 142.48 438.44 142.464 438.424 142.448C438.061 141.896 437.556 141.572 437.35 141.422C437.256 141.351 437.193 141.32 437.193 141.32C436.758 141.051 436.695 140.965 436.735 140.246C436.751 139.986 436.774 139.646 436.806 139.181C436.806 139.118 436.814 139.062 436.814 139.007V138.968V138.778C436.814 138.739 436.806 138.699 436.806 138.668C436.806 138.652 436.806 138.636 436.798 138.62C436.79 138.581 436.79 138.542 436.782 138.502C436.782 138.486 436.774 138.463 436.774 138.447C436.774 138.423 436.766 138.407 436.758 138.384C436.751 138.368 436.751 138.344 436.743 138.328C436.735 138.305 436.727 138.281 436.727 138.257C436.727 138.249 436.719 138.242 436.719 138.234C436.719 138.226 436.711 138.218 436.711 138.21V138.202L436.703 138.178C436.695 138.163 436.687 138.147 436.687 138.131V138.123L436.68 138.107L436.672 138.092C436.656 138.06 436.648 138.028 436.632 138.005L436.624 137.981C436.609 137.957 436.593 137.926 436.577 137.902L436.569 137.894L436.561 137.886C436.545 137.871 436.537 137.855 436.522 137.839L436.506 137.815C436.49 137.792 436.474 137.776 436.459 137.76V137.697C436.451 137.665 436.443 137.626 436.435 137.587C436.435 137.579 436.427 137.563 436.427 137.555V137.547C436.427 137.531 436.419 137.523 436.419 137.508C436.411 137.476 436.403 137.444 436.388 137.413C436.388 137.405 436.38 137.389 436.38 137.381L436.356 137.31C436.348 137.294 436.348 137.279 436.34 137.271C436.332 137.247 436.324 137.223 436.309 137.2L436.285 137.152C436.277 137.129 436.261 137.105 436.253 137.081L436.23 137.034C436.214 137.01 436.206 136.987 436.19 136.963L436.167 136.916C436.151 136.892 436.135 136.868 436.119 136.837C436.111 136.821 436.103 136.813 436.096 136.797C436.088 136.789 436.08 136.774 436.072 136.766C436.048 136.742 436.032 136.718 436.009 136.695L435.993 136.687C435.961 136.655 435.938 136.624 435.906 136.6L435.898 136.592C435.882 136.584 435.867 136.568 435.859 136.56H435.851C435.835 136.553 435.827 136.545 435.811 136.537L435.803 136.529C435.788 136.521 435.764 136.505 435.732 136.489C435.725 136.482 435.709 136.482 435.693 136.474C435.622 136.45 435.535 136.418 435.425 136.387C435.417 136.387 435.409 136.387 435.401 136.379C435.314 136.355 435.212 136.332 435.101 136.316C435.062 136.308 435.03 136.308 434.991 136.3C434.975 136.3 434.959 136.3 434.935 136.292H434.912C434.825 136.284 434.746 136.276 434.659 136.276H434.651C434.541 136.276 434.43 136.284 434.328 136.308C434.351 136.268 434.422 136.221 434.485 136.182C434.572 136.134 434.651 136.103 434.651 136.103C434.604 136.103 434.556 136.111 434.509 136.118C434.493 136.118 434.478 136.126 434.462 136.126C434.454 136.126 434.438 136.126 434.43 136.134H434.422C434.414 136.134 434.406 136.134 434.399 136.142C434.154 136.197 433.917 136.284 433.783 136.339L433.736 136.363H433.728C433.712 136.363 433.704 136.363 433.688 136.371C433.783 136.19 433.925 136.095 434.036 136.047C434.051 136.04 434.075 136.032 434.091 136.024C434.099 136.024 434.099 136.024 434.107 136.016C434.122 136.008 434.138 136.008 434.146 136C434.17 135.992 434.185 135.992 434.185 135.992H434.059C433.791 136.024 433.546 136.111 433.341 136.229C433.199 136.308 433.073 136.395 432.962 136.482C432.931 136.489 432.907 136.497 432.875 136.497C432.575 136.56 432.236 136.639 431.881 136.75C431.747 136.789 431.612 136.837 431.478 136.884C431.376 136.924 431.265 136.963 431.163 137.002C431.084 137.034 431.013 137.066 430.934 137.097C430.389 137.342 429.845 137.665 429.395 138.1L429.347 138.147L429.229 138.265L429.182 138.313C429.166 138.336 429.142 138.36 429.126 138.376C429.039 138.47 428.961 138.573 428.882 138.684C428.826 138.763 428.771 138.849 428.724 138.936L428.716 138.944C428.613 139.126 428.519 139.315 428.448 139.528C428.408 139.631 428.376 139.741 428.345 139.852C428.337 139.883 428.329 139.907 428.321 139.939L428.313 139.954C428.282 140.073 428.258 140.199 428.242 140.325C428.242 140.349 428.234 140.373 428.234 140.404C428.227 140.467 428.219 140.53 428.219 140.602C428.211 140.665 428.211 140.72 428.211 140.783V141.028C428.211 141.099 428.211 141.17 428.219 141.241V141.249C428.219 141.32 428.227 141.391 428.234 141.47C428.234 141.501 428.242 141.533 428.242 141.564V141.588C428.242 141.604 428.242 141.62 428.25 141.643C428.258 141.722 428.274 141.809 428.282 141.896C428.282 141.92 428.29 141.943 428.29 141.967C428.305 142.038 428.313 142.117 428.329 142.188C428.329 142.188 428.313 142.093 428.321 141.951C428.321 141.92 428.329 141.88 428.329 141.849C428.337 141.77 428.353 141.675 428.384 141.588L428.408 141.517C428.408 141.509 428.416 141.501 428.424 141.485C428.44 141.446 428.463 141.399 428.487 141.359C428.495 141.391 428.495 141.422 428.503 141.446V141.864C428.511 142.133 428.534 142.456 428.59 142.733C428.59 142.733 428.597 142.235 428.684 142.172C428.684 142.172 428.834 143.103 428.968 143.451C428.984 143.498 429.008 143.53 429.024 143.553V143.459L429.008 142.946V142.89C429.111 143.103 429.229 143.317 429.363 143.545C429.403 143.609 429.434 143.672 429.474 143.735C429.221 143.956 428.984 144.279 428.811 144.658C428.787 144.721 428.755 144.785 428.732 144.848C428.716 144.887 428.708 144.919 428.692 144.958C428.692 144.966 428.684 144.982 428.684 144.99C428.676 145.013 428.669 145.045 428.661 145.069C428.661 145.085 428.653 145.092 428.653 145.108C428.645 145.132 428.637 145.163 428.629 145.187C428.629 145.203 428.621 145.211 428.621 145.227L428.597 145.345C428.59 145.384 428.582 145.424 428.582 145.463C428.582 145.479 428.582 145.487 428.574 145.503C428.574 145.534 428.566 145.558 428.566 145.59C428.566 145.605 428.566 145.621 428.558 145.637C428.558 145.669 428.55 145.692 428.55 145.724V146C428.55 146.032 428.55 146.063 428.558 146.103V146.126C428.558 146.166 428.566 146.205 428.574 146.253C428.574 146.268 428.574 146.276 428.582 146.292C428.582 146.324 428.59 146.347 428.597 146.379C428.597 146.395 428.605 146.41 428.605 146.426C428.613 146.45 428.613 146.482 428.621 146.505C428.621 146.521 428.629 146.537 428.629 146.553C428.637 146.576 428.645 146.6 428.645 146.631C428.653 146.647 428.653 146.663 428.661 146.687C428.669 146.71 428.676 146.742 428.684 146.766C428.692 146.781 428.692 146.797 428.7 146.813C428.708 146.837 428.716 146.868 428.724 146.892C428.732 146.908 428.732 146.924 428.74 146.939C428.747 146.971 428.763 147.002 428.771 147.026C428.779 147.042 428.779 147.05 428.787 147.066L428.905 147.326C428.913 147.342 428.921 147.35 428.929 147.366L428.976 147.46C428.984 147.476 428.992 147.492 429.008 147.508C429.024 147.531 429.039 147.563 429.055 147.587C429.063 147.602 429.079 147.618 429.087 147.634C429.103 147.658 429.118 147.689 429.142 147.713C429.158 147.729 429.166 147.744 429.182 147.768C429.197 147.792 429.221 147.823 429.237 147.847C429.253 147.863 429.26 147.879 429.276 147.902C429.3 147.926 429.316 147.957 429.339 147.981C429.355 147.997 429.363 148.013 429.379 148.028C429.403 148.06 429.426 148.084 429.458 148.115L429.497 148.155C429.537 148.194 429.576 148.242 429.616 148.281C429.616 148.281 429.592 148.249 429.56 148.186C429.552 148.178 429.545 148.163 429.545 148.147L429.521 148.1C429.513 148.084 429.505 148.068 429.497 148.044C429.434 147.902 429.379 147.697 429.387 147.476L429.458 147.571C429.481 147.626 429.521 147.697 429.56 147.776C429.576 147.8 429.592 147.831 429.6 147.855C429.663 147.965 429.726 148.092 429.805 148.21C429.9 148.36 429.994 148.502 430.097 148.636C430.097 148.636 429.979 148.384 429.939 148.218C429.931 148.171 429.923 148.131 429.931 148.107C429.939 148.115 429.947 148.131 429.963 148.139C429.971 148.147 429.979 148.163 429.994 148.171C430.01 148.194 430.034 148.226 430.066 148.265L430.081 148.281C430.097 148.297 430.105 148.321 430.121 148.336C430.137 148.36 430.152 148.384 430.176 148.407C430.342 148.62 430.571 148.905 430.728 149.055C430.784 149.102 430.831 149.141 430.863 149.157L430.634 148.747C431.155 149.173 433.317 149.718 435.44 149.11C435.701 149.039 435.953 148.944 436.206 148.834C436.356 148.77 436.506 148.691 436.656 148.613L436.68 148.597C436.782 148.542 436.885 148.478 436.987 148.415C437.066 148.368 437.145 148.313 437.216 148.265C437.343 148.178 437.469 148.084 437.595 147.981C437.603 147.973 437.611 147.965 437.619 147.965C437.737 147.863 437.856 147.752 437.958 147.642C438.1 147.492 438.227 147.342 438.337 147.192L438.345 147.184C438.376 147.145 438.4 147.113 438.424 147.073L438.432 147.066C438.44 147.05 438.448 147.042 438.455 147.026C438.495 146.971 438.526 146.924 438.566 146.868C438.574 146.852 438.582 146.845 438.59 146.829C438.605 146.797 438.621 146.774 438.645 146.742C438.661 146.718 438.669 146.703 438.684 146.679C438.7 146.655 438.716 146.631 438.724 146.608C438.747 146.568 438.771 146.521 438.795 146.482L438.818 146.434L438.866 146.339L438.89 146.292L438.897 146.276C438.913 146.237 438.937 146.197 438.953 146.158V146.15C439.024 146.087 439.071 146.024 439.118 145.969C439.126 145.961 439.134 145.953 439.134 145.945C439.182 145.795 439.213 145.676 439.213 145.566ZM426.514 144.035C426.514 144.027 426.514 144.019 426.506 144.003C426.482 143.869 426.459 143.727 426.451 143.585V143.553C426.427 143.561 426.403 143.593 426.372 143.632C426.364 143.648 426.348 143.664 426.34 143.688C426.269 143.822 426.206 144.011 426.206 144.011C426.214 143.948 426.222 143.885 426.222 143.822V143.798C426.23 143.735 426.238 143.664 426.245 143.601V143.577C426.253 143.498 426.269 143.427 426.285 143.356C426.285 143.348 426.285 143.34 426.293 143.324V143.317C426.293 143.309 426.293 143.301 426.301 143.293C426.301 143.277 426.309 143.269 426.309 143.253C426.316 143.198 426.332 143.143 426.34 143.088C426.348 143.04 426.356 142.993 426.364 142.954V142.938C426.364 142.93 426.364 142.922 426.372 142.922V142.906C426.372 142.898 426.38 142.882 426.38 142.875C426.38 142.867 426.38 142.859 426.388 142.851C426.388 142.835 426.395 142.819 426.395 142.811C426.395 142.804 426.403 142.788 426.403 142.78C426.403 142.764 426.411 142.748 426.411 142.74C426.411 142.733 426.411 142.725 426.419 142.717C426.419 142.709 426.419 142.701 426.427 142.701C426.427 142.685 426.435 142.677 426.435 142.669V142.646L426.419 142.661C426.403 142.669 426.395 142.685 426.38 142.693L426.364 142.709C426.348 142.725 426.332 142.74 426.324 142.756L426.316 142.764L426.269 142.835L426.261 142.843C426.261 142.851 426.253 142.851 426.253 142.859L426.23 142.906V142.922C426.222 142.946 426.206 142.969 426.198 142.993C426.174 143.056 426.151 143.119 426.135 143.175C426.127 143.19 426.127 143.214 426.119 143.222C426.111 143.253 426.103 143.285 426.103 143.293C426.103 143.269 426.103 143.253 426.111 143.23C426.111 143.19 426.119 143.143 426.119 143.103C426.119 143.072 426.127 143.032 426.135 143.001C426.135 142.993 426.135 142.977 426.143 142.969C426.143 142.954 426.151 142.938 426.151 142.922C426.151 142.906 426.159 142.89 426.159 142.875V142.851C426.159 142.835 426.167 142.811 426.167 142.796V142.756V142.74C426.167 142.733 426.167 142.725 426.174 142.717C426.182 142.693 426.19 142.661 426.19 142.638V142.63C426.198 142.614 426.198 142.59 426.206 142.575V142.567C426.214 142.527 426.23 142.488 426.238 142.448V142.433C426.238 142.425 426.238 142.417 426.245 142.409C426.261 142.346 426.285 142.283 426.301 142.227V142.219C426.316 142.172 426.34 142.117 426.356 142.07V142.062C426.364 142.038 426.372 142.022 426.38 141.999C426.395 141.967 426.403 141.935 426.419 141.904C426.419 141.896 426.427 141.88 426.443 141.849C426.451 141.841 426.451 141.825 426.459 141.817C426.466 141.801 426.474 141.785 426.482 141.762L426.49 141.746L426.624 141.501C426.632 141.493 426.632 141.478 426.64 141.47V141.462L426.648 141.446C426.664 141.422 426.68 141.391 426.695 141.367C426.719 141.328 426.735 141.288 426.758 141.257C426.798 141.186 426.83 141.122 426.853 141.091C426.861 141.067 426.869 141.059 426.877 141.051C426.869 141.051 426.83 141.02 426.766 140.98C426.687 140.933 426.577 140.87 426.443 140.807C426.395 140.783 426.356 140.767 426.309 140.744C426.253 140.72 426.19 140.696 426.127 140.673C426.111 140.665 426.096 140.665 426.08 140.657C426.024 140.641 425.977 140.625 425.922 140.609C425.882 140.602 425.843 140.594 425.811 140.586C425.78 140.578 425.748 140.578 425.717 140.57C425.701 140.57 425.685 140.57 425.669 140.562C425.654 140.562 425.638 140.562 425.622 140.554C425.582 140.554 425.535 140.546 425.496 140.546H425.433C425.338 140.546 425.251 140.554 425.164 140.57H425.148C424.991 140.594 424.841 140.633 424.691 140.688C424.643 140.704 424.596 140.728 424.541 140.751C424.525 140.759 424.517 140.767 424.501 140.767L424.454 140.791C424.312 140.862 424.178 140.957 424.051 141.059H424.043C423.933 141.146 423.838 141.249 423.751 141.351L423.68 141.446C423.649 141.485 423.625 141.525 423.601 141.564C423.554 141.635 423.507 141.714 423.467 141.793C423.451 141.825 423.436 141.849 423.428 141.88C423.428 141.888 423.42 141.888 423.42 141.896C423.341 142.085 423.278 142.283 423.254 142.496C423.246 142.535 423.246 142.575 423.238 142.622V142.638C423.238 142.669 423.23 142.701 423.23 142.74V142.882C423.23 142.914 423.23 142.946 423.238 142.977V143.017C423.238 143.04 423.246 143.064 423.246 143.088V143.096C423.246 143.111 423.246 143.119 423.254 143.135C423.254 143.159 423.262 143.182 423.262 143.198C423.262 143.214 423.27 143.23 423.27 143.246C423.278 143.269 423.278 143.285 423.286 143.309C423.286 143.324 423.294 143.34 423.302 143.356V143.364L423.309 143.38V143.396L423.317 143.411C423.325 143.427 423.325 143.443 423.333 143.459C423.341 143.474 423.341 143.498 423.349 143.514C423.357 143.53 423.365 143.545 423.365 143.569L423.373 143.585C423.38 143.601 423.38 143.609 423.388 143.624C423.396 143.64 423.404 143.656 423.412 143.68L423.436 143.727C423.444 143.735 423.444 143.743 423.451 143.751C423.459 143.759 423.459 143.766 423.467 143.774L423.491 143.822C423.499 143.837 423.507 143.861 423.522 143.877C423.53 143.893 423.538 143.909 423.546 143.916C423.554 143.932 423.57 143.956 423.578 143.972C423.586 143.987 423.594 143.995 423.601 144.011C423.609 144.027 423.625 144.051 423.641 144.066C423.649 144.082 423.657 144.09 423.665 144.098C423.68 144.114 423.688 144.137 423.704 144.153C423.712 144.161 423.72 144.177 423.728 144.185C423.743 144.201 423.759 144.224 423.775 144.24C423.783 144.248 423.791 144.256 423.799 144.272C423.815 144.287 423.83 144.311 423.846 144.327L423.87 144.351C423.886 144.366 423.901 144.39 423.925 144.406L423.949 144.429L424.004 144.485C424.012 144.493 424.02 144.5 424.028 144.5C424.043 144.516 424.067 144.532 424.091 144.556C424.099 144.564 424.107 144.564 424.114 144.572C424.138 144.587 424.154 144.603 424.178 144.619C424.185 144.627 424.193 144.627 424.193 144.635L424.264 144.682L424.28 144.69L424.351 144.737L424.367 144.745C424.391 144.761 424.422 144.777 424.446 144.793L424.462 144.8C424.485 144.816 424.517 144.832 424.541 144.84L424.556 144.848C424.588 144.864 424.612 144.871 424.643 144.887L424.651 144.895C424.683 144.911 424.714 144.919 424.738 144.935H424.746C424.777 144.942 424.809 144.958 424.841 144.966H424.848C424.864 144.974 424.88 144.974 424.896 144.982C424.912 144.99 424.927 144.99 424.951 144.998H424.959C424.991 145.006 425.03 145.013 425.062 145.021C425.093 145.029 425.133 145.037 425.164 145.037C425.275 145.053 425.385 145.061 425.496 145.069H425.575C425.614 145.069 425.646 145.069 425.685 145.061C425.732 145.053 425.788 145.053 425.843 145.045C425.89 145.037 425.938 145.029 425.977 145.021C426.048 145.006 426.119 144.99 426.182 144.966C426.388 144.911 426.561 144.832 426.672 144.745C426.672 144.745 426.601 144.429 426.545 144.114C426.53 144.098 426.522 144.066 426.514 144.035Z" fill="#90694C"/>
<path d="M431.58 132.306L431.556 131.99L431.714 131.643L431.777 131.627C431.675 131.58 431.549 131.548 431.407 131.525C431.122 131.485 430.759 131.525 430.349 131.627C429.938 131.73 429.473 131.912 428.983 132.156C427.997 132.646 426.908 133.395 425.85 134.358C425.479 134.69 425.14 135.037 424.824 135.376C424.516 135.708 424.24 136.047 423.987 136.371C423.474 137.042 423.088 137.689 422.835 138.273C422.669 138.66 422.567 139.015 422.527 139.323C422.496 139.544 422.504 139.741 422.543 139.899C422.559 139.954 422.575 139.994 422.59 140.041C422.63 140.136 422.677 140.215 422.74 140.286L423.38 140.957L423.451 141.028L423.459 141.02C423.474 140.996 423.498 140.972 423.522 140.957L423.53 140.949L423.553 140.925C423.569 140.901 423.593 140.886 423.609 140.862C423.624 140.846 423.632 140.838 423.648 140.83C423.664 140.822 423.672 140.807 423.688 140.799L423.703 140.783C423.719 140.775 423.727 140.759 423.743 140.751C423.759 140.736 423.782 140.72 423.798 140.704C423.806 140.696 423.822 140.688 423.83 140.68H423.837C423.861 140.665 423.877 140.649 423.901 140.633C423.916 140.625 423.924 140.617 423.94 140.601C423.964 140.586 423.98 140.57 424.003 140.554C424.019 140.546 424.027 140.538 424.043 140.53C424.066 140.515 424.09 140.499 424.114 140.491C424.13 140.483 424.137 140.475 424.153 140.467C424.177 140.451 424.201 140.444 424.224 140.428C424.24 140.42 424.248 140.412 424.264 140.404L424.279 140.396C424.429 139.978 424.658 139.512 424.958 139.039C425.321 138.455 425.787 137.839 426.339 137.223C426.687 136.837 427.066 136.45 427.476 136.079C428.005 135.597 428.549 135.163 429.086 134.784C429.449 134.532 429.804 134.303 430.152 134.106C430.183 134.09 430.215 134.066 430.254 134.05C430.349 133.995 430.436 133.948 430.53 133.901C430.728 133.798 430.925 133.703 431.115 133.624L431.02 133.514L431.004 133.498L430.886 133.364L430.231 132.575L430.238 132.006L430.231 131.998L430.696 131.856L431.58 132.306Z" fill="#2F83C1"/>
<path d="M439.214 145.565C439.214 145.565 439.23 145.447 439.167 145.337C439.167 145.329 439.159 145.321 439.159 145.321L439.151 145.313L439.128 145.289C439.112 145.273 439.096 145.258 439.072 145.242C439.064 145.234 439.049 145.226 439.033 145.218C438.993 145.202 438.954 145.187 438.899 145.179C438.859 145.171 438.82 145.171 438.772 145.171H438.709V145.187C438.709 145.194 438.717 145.202 438.717 145.218C438.717 145.226 438.717 145.234 438.725 145.234C438.733 145.258 438.741 145.297 438.749 145.329C438.749 145.329 438.749 145.337 438.741 145.352V145.36C438.717 145.415 438.654 145.542 438.512 145.7C438.488 145.731 438.465 145.755 438.433 145.786C438.038 146.197 437.186 146.773 435.386 147.097C434.779 147.183 434.21 147.191 433.737 147.128C433.027 147.041 432.498 146.812 432.245 146.505C432.221 146.481 432.206 146.449 432.182 146.426C432.166 146.402 432.158 146.386 432.143 146.363C432.135 146.355 432.135 146.347 432.127 146.339C432.024 146.149 431.977 145.944 431.977 145.747C431.977 145.502 432.056 145.273 432.182 145.1C432.285 144.958 432.419 144.847 432.585 144.8C432.663 144.776 432.75 144.76 432.837 144.768C432.853 144.768 432.877 144.768 432.908 144.776C432.963 144.784 433.05 144.792 433.153 144.808C433.161 144.808 433.176 144.808 433.184 144.816C433.524 144.855 434.06 144.91 434.708 144.871C435.892 144.8 437.446 144.429 438.859 143.15V143.142C438.867 143.032 438.851 142.842 438.717 142.692C438.693 142.669 438.67 142.645 438.638 142.621C438.622 142.606 438.599 142.598 438.583 142.582C438.559 142.574 438.544 142.558 438.528 142.55L438.457 142.503V142.495C438.449 142.479 438.441 142.464 438.425 142.448C438.062 141.895 437.557 141.572 437.352 141.422C437.257 141.351 437.194 141.319 437.194 141.319C436.76 141.051 436.697 140.964 436.736 140.246C436.752 139.985 436.776 139.646 436.807 139.18C436.807 139.117 436.815 139.062 436.815 139.007V138.967V138.778C436.815 138.738 436.807 138.699 436.807 138.667C436.807 138.651 436.807 138.636 436.799 138.62C436.791 138.58 436.791 138.541 436.783 138.501C436.783 138.486 436.776 138.462 436.776 138.446C436.776 138.423 436.768 138.407 436.76 138.383C436.752 138.367 436.752 138.344 436.744 138.328C436.736 138.304 436.728 138.28 436.728 138.257C436.728 138.249 436.72 138.241 436.72 138.233C436.72 138.225 436.712 138.217 436.712 138.209V138.202L436.705 138.178C436.697 138.162 436.689 138.146 436.689 138.131V138.123L436.681 138.107L436.673 138.091C436.657 138.059 436.649 138.028 436.633 138.004L436.626 137.981C436.61 137.957 436.594 137.925 436.578 137.902L436.57 137.894L436.562 137.886C436.547 137.87 436.539 137.854 436.523 137.839L436.507 137.815C436.491 137.791 436.476 137.775 436.46 137.76L436.397 137.696C436.373 137.681 436.349 137.665 436.326 137.657C436.318 137.649 436.31 137.649 436.302 137.649L436.255 137.625C436.247 137.625 436.239 137.618 436.231 137.618C436.215 137.61 436.199 137.61 436.191 137.602C436.184 137.602 436.176 137.594 436.16 137.594C436.144 137.594 436.136 137.586 436.12 137.586H435.947C435.939 137.586 435.931 137.586 435.923 137.594C435.915 137.594 435.907 137.594 435.899 137.602C435.884 137.602 435.868 137.61 435.844 137.618H435.828C435.781 137.633 435.742 137.649 435.694 137.665L435.678 137.673C435.663 137.681 435.647 137.689 435.623 137.696L435.6 137.704L435.552 137.728L435.529 137.744L435.481 137.767L435.457 137.783C435.442 137.791 435.426 137.807 435.41 137.815L435.394 137.823C435.379 137.839 435.355 137.846 435.339 137.862L435.331 137.87C435.308 137.886 435.292 137.902 435.268 137.91C435.229 137.933 435.189 137.965 435.15 137.988C435.118 138.012 435.087 138.036 435.047 138.059L435.031 138.067C435 138.091 434.96 138.115 434.929 138.131L434.913 138.138C434.881 138.162 434.842 138.178 434.81 138.202L434.794 138.209C434.763 138.233 434.723 138.249 434.684 138.265L434.668 138.273C434.629 138.288 434.597 138.304 434.558 138.32L434.542 138.328C434.502 138.344 434.463 138.352 434.424 138.367H434.416C434.376 138.375 434.329 138.383 434.289 138.391C434.218 138.399 434.139 138.407 434.068 138.407C433.95 138.407 433.832 138.399 433.705 138.383L433.587 138.359C433.571 138.359 433.555 138.352 433.547 138.352C433.445 138.328 433.334 138.304 433.232 138.28C433.184 138.273 433.145 138.257 433.098 138.249C433.027 138.233 432.956 138.217 432.877 138.202C432.861 138.202 432.845 138.194 432.837 138.194C432.829 138.194 432.813 138.186 432.806 138.186C432.79 138.186 432.774 138.178 432.758 138.178C432.742 138.178 432.727 138.17 432.711 138.17H432.695C432.679 138.17 432.663 138.162 432.656 138.162C432.624 138.154 432.592 138.146 432.553 138.146C432.545 138.146 432.529 138.146 432.521 138.138C432.498 138.138 432.474 138.131 432.45 138.131C432.435 138.131 432.427 138.131 432.411 138.123C432.387 138.123 432.371 138.115 432.348 138.115H431.985C431.945 138.115 431.914 138.123 431.874 138.123H431.843C431.819 138.123 431.795 138.131 431.772 138.131H431.764C431.748 138.131 431.74 138.138 431.724 138.138C431.701 138.146 431.677 138.146 431.653 138.154C431.637 138.154 431.622 138.162 431.614 138.162C431.59 138.17 431.566 138.178 431.543 138.178C431.527 138.178 431.519 138.186 431.503 138.194C431.48 138.202 431.448 138.209 431.424 138.217C431.409 138.225 431.401 138.225 431.393 138.233C431.353 138.249 431.314 138.265 431.282 138.28C430.982 138.454 430.722 138.691 430.525 138.959C430.454 139.054 430.39 139.149 430.335 139.243C430.272 139.346 430.225 139.456 430.177 139.567C430.162 139.599 430.154 139.63 430.138 139.662C430.122 139.717 430.098 139.772 430.083 139.827C430.083 139.835 430.083 139.843 430.075 139.843C430.059 139.906 430.043 139.97 430.027 140.041C430.012 140.112 430.004 140.175 429.996 140.246C429.988 140.285 429.988 140.317 429.988 140.356C429.98 140.459 429.98 140.554 429.988 140.656V140.68C429.988 140.704 429.988 140.727 429.996 140.759C430.004 140.83 430.012 140.901 430.027 140.972C430.035 140.996 430.043 141.019 430.043 141.051C430.051 141.074 430.051 141.098 430.059 141.122C430.106 141.303 430.177 141.469 430.264 141.611C430.588 142.172 431.124 142.511 431.519 142.692C431.669 142.756 431.827 142.819 431.993 142.874L431.977 142.89C431.945 142.898 431.914 142.906 431.874 142.913C431.819 142.929 431.748 142.953 431.677 142.977C431.598 143 431.503 143.04 431.409 143.079C431.156 143.182 430.872 143.332 430.619 143.537C430.588 143.561 430.556 143.592 430.525 143.616C430.469 143.663 430.422 143.711 430.375 143.766L430.359 143.782L430.335 143.805C430.319 143.829 430.296 143.845 430.28 143.868L430.256 143.892C430.233 143.924 430.209 143.955 430.193 143.987C430.169 144.018 430.154 144.05 430.13 144.082C429.98 144.342 429.893 144.658 429.917 145.037V145.021C429.917 145.013 429.917 145.005 429.925 144.997V144.989C429.925 144.981 429.933 144.973 429.933 144.958V144.95C429.933 144.942 429.941 144.926 429.941 144.91C429.941 144.895 429.948 144.887 429.956 144.871V144.863C429.964 144.847 429.964 144.831 429.972 144.816V144.808C429.98 144.792 429.98 144.776 429.988 144.76V144.752C429.996 144.737 430.004 144.721 430.012 144.697L430.019 144.689C430.027 144.674 430.035 144.65 430.051 144.634C430.067 144.603 430.083 144.579 430.098 144.547C430.106 144.539 430.114 144.524 430.122 144.516L430.13 144.508L430.177 144.437C430.193 144.421 430.209 144.397 430.225 144.382L430.24 144.366C430.256 144.35 430.264 144.334 430.28 144.326L430.296 144.31C430.311 144.295 430.335 144.279 430.351 144.255C430.351 144.255 430.012 145.029 430.162 145.636V145.629V145.613V145.589V145.558V145.518C430.162 145.502 430.162 145.486 430.169 145.471C430.169 145.455 430.169 145.439 430.177 145.423V145.415C430.177 145.4 430.185 145.376 430.185 145.36V145.344C430.193 145.321 430.193 145.305 430.201 145.281V145.273C430.209 145.25 430.217 145.226 430.217 145.21C430.217 145.202 430.225 145.194 430.225 145.187L430.233 145.171C430.24 145.155 430.248 145.131 430.256 145.116C430.264 145.092 430.28 145.068 430.296 145.045C430.296 145.037 430.304 145.029 430.304 145.029L430.351 144.958C430.351 144.958 430.335 145.147 430.335 145.376C430.335 145.415 430.335 145.447 430.343 145.486C430.343 145.51 430.343 145.534 430.351 145.558C430.343 145.715 430.343 145.873 430.359 146.039C430.382 146.315 430.454 146.615 430.572 146.923C430.572 146.923 430.461 146.568 430.619 146.213L430.667 146.307C430.682 146.41 430.698 146.56 430.73 146.726C430.761 147.002 430.888 147.831 431.456 148.407C431.456 148.407 431.243 148.131 431.274 147.775C431.298 147.823 431.322 147.862 431.338 147.902C431.432 148.083 431.622 148.415 431.835 148.651C431.835 148.651 431.669 148.328 431.708 148.257C431.708 148.257 432.261 148.943 432.435 149.007L432.206 148.628L432.198 148.62C432.995 149.204 434.1 149.417 435.457 149.038C435.694 148.975 435.931 148.888 436.184 148.786C436.334 148.722 436.484 148.644 436.633 148.565L436.657 148.549C436.76 148.494 436.862 148.43 436.965 148.367C437.044 148.32 437.123 148.265 437.194 148.217C437.32 148.131 437.446 148.036 437.573 147.933C437.581 147.925 437.588 147.917 437.596 147.917C437.715 147.815 437.833 147.704 437.936 147.594C438.078 147.444 438.204 147.294 438.315 147.144L438.323 147.136C438.354 147.097 438.378 147.065 438.401 147.026L438.409 147.018C438.417 147.002 438.425 146.994 438.433 146.978C438.472 146.923 438.504 146.876 438.544 146.82C438.551 146.805 438.559 146.797 438.567 146.781C438.583 146.749 438.599 146.726 438.622 146.694C438.638 146.67 438.646 146.655 438.662 146.631C438.678 146.607 438.693 146.584 438.701 146.56C438.725 146.52 438.749 146.473 438.772 146.434L438.796 146.386L438.843 146.292L438.867 146.244L438.875 146.228C438.891 146.189 438.914 146.149 438.93 146.11V146.102C439.001 146.039 439.049 145.976 439.096 145.921C439.104 145.913 439.112 145.905 439.112 145.897C439.183 145.794 439.214 145.676 439.214 145.565ZM426.452 143.553C426.428 143.561 426.405 143.592 426.373 143.632C426.365 143.648 426.349 143.663 426.341 143.687C426.27 143.821 426.207 144.011 426.207 144.011C426.215 143.947 426.223 143.884 426.223 143.821V143.797C426.231 143.734 426.239 143.663 426.247 143.6V143.576C426.255 143.498 426.27 143.427 426.286 143.355C426.286 143.348 426.286 143.34 426.294 143.324V143.316C426.294 143.308 426.294 143.3 426.302 143.292C426.302 143.277 426.31 143.269 426.31 143.253C426.318 143.198 426.334 143.142 426.341 143.087C426.349 143.04 426.357 142.992 426.365 142.953V142.937C426.365 142.929 426.365 142.921 426.373 142.921V142.906C426.373 142.898 426.381 142.882 426.381 142.874C426.381 142.866 426.381 142.858 426.389 142.85C426.389 142.835 426.397 142.819 426.397 142.811C426.397 142.803 426.405 142.787 426.405 142.779C426.405 142.764 426.412 142.748 426.412 142.74C426.412 142.732 426.412 142.724 426.42 142.716C426.42 142.708 426.42 142.7 426.428 142.7C426.428 142.685 426.436 142.677 426.436 142.669V142.645L426.42 142.661C426.405 142.669 426.397 142.685 426.381 142.692L426.365 142.708C426.349 142.724 426.334 142.74 426.326 142.756L426.318 142.764L426.27 142.835L426.263 142.842C426.263 142.85 426.255 142.85 426.255 142.858L426.231 142.906V142.921C426.223 142.945 426.207 142.969 426.199 142.992C426.176 143.056 426.152 143.119 426.136 143.174C426.128 143.19 426.128 143.213 426.12 143.221C426.113 143.253 426.105 143.284 426.105 143.292C426.105 143.269 426.105 143.253 426.113 143.229C426.113 143.19 426.12 143.142 426.12 143.103C426.12 143.071 426.128 143.032 426.136 143C426.136 142.992 426.136 142.977 426.144 142.969C426.144 142.953 426.152 142.937 426.152 142.921C426.152 142.906 426.16 142.89 426.16 142.874V142.85C426.16 142.835 426.168 142.811 426.168 142.795V142.756V142.74C426.168 142.732 426.168 142.724 426.176 142.716C426.184 142.692 426.191 142.661 426.191 142.637V142.629C426.199 142.614 426.199 142.59 426.207 142.574V142.566C426.215 142.527 426.231 142.487 426.239 142.448V142.432C426.239 142.424 426.239 142.416 426.247 142.408C426.263 142.345 426.286 142.282 426.302 142.227V142.219C426.318 142.172 426.341 142.116 426.357 142.069V142.061C426.365 142.037 426.373 142.022 426.381 141.998C426.397 141.966 426.405 141.935 426.42 141.903C426.42 141.895 426.428 141.88 426.444 141.848C426.452 141.84 426.452 141.824 426.46 141.816C426.468 141.801 426.476 141.785 426.484 141.761L426.491 141.745C426.484 141.737 426.468 141.737 426.46 141.73H426.452L426.436 141.722C426.365 141.69 426.286 141.659 426.207 141.635H426.191C426.136 141.619 426.089 141.611 426.034 141.603C426.002 141.603 425.971 141.595 425.939 141.595H425.86C425.821 141.595 425.781 141.603 425.742 141.603C425.726 141.603 425.718 141.603 425.702 141.611C425.686 141.611 425.663 141.619 425.647 141.619C425.639 141.619 425.631 141.619 425.623 141.627C425.607 141.627 425.6 141.635 425.584 141.635C425.56 141.643 425.529 141.651 425.505 141.659C425.497 141.659 425.481 141.666 425.473 141.666C425.442 141.682 425.402 141.69 425.371 141.706C425.355 141.714 425.347 141.722 425.331 141.722L425.284 141.745L425.268 141.753C425.252 141.761 425.236 141.769 425.221 141.785C425.205 141.793 425.189 141.801 425.173 141.816C425.158 141.824 425.142 141.84 425.126 141.848C425.118 141.856 425.102 141.864 425.094 141.872C425.071 141.895 425.039 141.919 425.015 141.943L424.976 141.982C424.952 142.006 424.937 142.03 424.913 142.053L424.905 142.061C424.897 142.077 424.881 142.085 424.873 142.101L424.85 142.124C424.81 142.179 424.771 142.243 424.739 142.306C424.731 142.314 424.731 142.322 424.723 142.329C424.708 142.361 424.7 142.393 424.684 142.424C424.676 142.44 424.676 142.448 424.668 142.464C424.66 142.495 424.645 142.527 424.637 142.566V142.598C424.629 142.621 424.629 142.645 424.621 142.669C424.621 142.685 424.621 142.692 424.613 142.708C424.613 142.724 424.613 142.732 424.605 142.748V142.779C424.605 142.819 424.597 142.858 424.605 142.898C424.605 142.929 424.605 142.961 424.613 142.992V143.008C424.613 143.024 424.621 143.04 424.621 143.056C424.629 143.119 424.645 143.174 424.66 143.237C424.676 143.284 424.692 143.324 424.708 143.363C424.739 143.442 424.779 143.513 424.826 143.584C424.921 143.726 425.047 143.853 425.197 143.947C425.276 144.003 425.371 144.042 425.465 144.074C425.552 144.105 425.647 144.129 425.75 144.137C425.773 144.137 425.797 144.145 425.813 144.145H425.915C425.947 144.145 425.978 144.137 426.01 144.137C426.026 144.137 426.049 144.137 426.065 144.129C426.113 144.121 426.152 144.113 426.199 144.105H426.207C426.223 144.097 426.239 144.097 426.263 144.089C426.318 144.074 426.373 144.05 426.42 144.026L426.428 144.018C426.444 144.011 426.46 144.003 426.468 144.003C426.444 143.868 426.42 143.726 426.412 143.584C426.452 143.569 426.452 143.561 426.452 143.553Z" fill="#FCE9CD"/>
<path d="M438.735 145.242C438.735 145.235 438.735 145.227 438.727 145.227C438.719 145.211 438.719 145.203 438.719 145.195C438.679 145.069 438.632 144.974 438.585 144.903C438.529 144.816 438.482 144.769 438.482 144.769L438.506 144.674C438.514 144.635 438.521 144.595 438.521 144.556C438.553 144.272 438.482 144.051 438.419 143.924C438.411 143.901 438.403 143.885 438.395 143.869C438.348 143.901 438.308 143.932 438.261 143.964C437.409 144.54 436.454 144.911 435.42 145.069C434.709 145.179 433.96 145.187 433.178 145.093L433.194 145.1C433.194 145.1 432.72 145.164 432.594 145.613L432.602 145.621L432.562 145.921C432.578 146.332 432.76 146.584 432.973 146.718C433.194 146.805 433.462 146.868 433.762 146.908C434.275 146.971 434.875 146.955 435.475 146.86C436.28 146.75 437.416 146.324 438.229 145.771C438.411 145.645 438.585 145.511 438.727 145.377L438.735 145.369L438.742 145.361C438.742 145.306 438.735 145.274 438.735 145.242Z" fill="white"/>
<path d="M437.195 141.344C436.761 141.076 436.698 140.989 436.738 140.27C436.753 140.01 436.777 139.671 436.809 139.205C436.809 139.142 436.816 139.087 436.816 139.031V138.992V138.802C436.816 138.763 436.809 138.724 436.809 138.692C436.809 138.676 436.809 138.66 436.801 138.645C436.793 138.605 436.793 138.566 436.785 138.526C436.785 138.51 436.777 138.487 436.777 138.471C436.777 138.447 436.769 138.431 436.761 138.408C436.753 138.392 436.753 138.368 436.745 138.353C436.682 138.258 436.611 138.179 436.524 138.108L436.509 138.092L436.493 138.084H436.485C436.469 138.076 436.461 138.068 436.445 138.061C436.43 138.053 436.414 138.045 436.406 138.037C436.28 137.958 436.13 137.911 435.98 137.887C435.893 137.871 435.806 137.871 435.719 137.871C435.68 137.871 435.633 137.879 435.593 137.879C435.483 137.895 435.372 137.918 435.254 137.95C435.214 137.974 435.175 138.005 435.135 138.029C435.104 138.053 435.072 138.076 435.033 138.1L435.017 138.108C434.985 138.132 434.946 138.155 434.914 138.171L434.899 138.179C434.867 138.203 434.827 138.218 434.796 138.242L434.78 138.25C434.749 138.274 434.709 138.289 434.67 138.305L434.654 138.313C434.614 138.329 434.583 138.345 434.543 138.36L434.528 138.368C434.488 138.384 434.449 138.392 434.409 138.408H434.401C434.362 138.416 434.314 138.424 434.275 138.431C434.204 138.439 434.125 138.447 434.054 138.447C433.936 138.447 433.817 138.439 433.691 138.424L433.573 138.4C433.557 138.4 433.541 138.392 433.533 138.392C433.43 138.368 433.32 138.345 433.217 138.321C433.17 138.313 433.131 138.297 433.083 138.289C433.012 138.274 432.941 138.258 432.862 138.242C432.846 138.242 432.831 138.234 432.823 138.234C432.76 138.234 432.696 138.242 432.641 138.25H432.625C432.444 138.274 432.27 138.313 432.089 138.376C432.081 138.376 432.073 138.384 432.057 138.384C432.026 138.392 432.002 138.408 431.97 138.416C431.931 138.431 431.899 138.447 431.86 138.463C431.599 138.574 431.355 138.731 431.118 138.929C431.023 139.008 430.936 139.094 430.85 139.181C430.723 139.315 430.613 139.458 430.51 139.607C430.502 139.615 430.502 139.623 430.494 139.631C430.439 139.71 430.392 139.797 430.352 139.876C430.337 139.907 430.321 139.939 430.305 139.963V139.971C430.258 140.073 430.218 140.168 430.187 140.27C430.187 140.278 430.187 140.286 430.179 140.286C430.171 140.302 430.171 140.318 430.163 140.334C430.147 140.381 430.131 140.428 430.123 140.476C430.108 140.523 430.1 140.57 430.092 140.626C430.092 140.634 430.084 140.649 430.084 140.657C430.076 140.689 430.076 140.72 430.068 140.744C430.052 140.855 430.045 140.965 430.037 141.076V141.154C430.084 141.336 430.155 141.502 430.242 141.644C430.565 142.204 431.102 142.544 431.497 142.725C431.647 142.788 431.805 142.851 431.97 142.907L431.978 142.915L431.986 142.907C432.01 142.891 432.026 142.875 432.049 142.859C432.057 142.851 432.065 142.851 432.073 142.843L432.144 142.796C432.152 142.788 432.16 142.788 432.168 142.78L432.239 142.733C432.247 142.725 432.254 142.725 432.262 142.717C432.286 142.701 432.31 142.686 432.341 142.67C432.349 142.662 432.357 142.662 432.365 142.654C432.389 142.638 432.42 142.622 432.444 142.607C432.452 142.599 432.46 142.599 432.468 142.591C432.491 142.575 432.523 142.559 432.547 142.544C432.554 142.536 432.57 142.536 432.578 142.528C432.602 142.512 432.633 142.496 432.657 142.48C432.665 142.473 432.681 142.465 432.689 142.465C432.712 142.449 432.744 142.433 432.775 142.417C432.791 142.409 432.799 142.401 432.815 142.401C432.846 142.386 432.87 142.37 432.902 142.362C432.917 142.354 432.925 142.346 432.941 142.346C432.973 142.33 432.996 142.323 433.028 142.307L433.075 142.283C433.107 142.267 433.131 142.259 433.162 142.244C433.178 142.236 433.194 142.228 433.217 142.22C433.249 142.212 433.273 142.196 433.304 142.188C433.32 142.18 433.344 142.173 433.359 142.165C433.391 142.157 433.415 142.141 433.446 142.133C433.47 142.125 433.486 142.117 433.509 142.109C433.541 142.102 433.565 142.086 433.596 142.078L433.667 142.054C433.691 142.046 433.723 142.038 433.746 142.023C433.77 142.015 433.801 142.007 433.825 141.999C433.849 141.991 433.88 141.983 433.904 141.975C433.936 141.967 433.967 141.959 433.991 141.952C434.015 141.944 434.038 141.936 434.07 141.928C434.101 141.92 434.133 141.912 434.172 141.896C434.188 141.888 434.204 141.888 434.22 141.881C434.346 141.557 434.733 140.752 435.388 140.665C435.459 140.657 435.522 140.649 435.585 140.649H435.633C435.625 140.602 435.617 140.555 435.617 140.499C435.593 140.152 435.704 139.86 435.854 139.852C435.972 139.844 436.067 140.018 436.082 140.073C436.13 140.176 436.161 140.31 436.169 140.46C436.177 140.594 436.161 140.72 436.138 140.831C436.153 140.847 436.161 140.862 436.177 140.87C436.327 141.06 436.351 141.312 436.343 141.502C436.398 141.494 436.461 141.494 436.524 141.486C436.54 141.486 436.556 141.486 436.572 141.478H436.603C436.674 141.47 436.753 141.462 436.832 141.462C437.006 141.446 437.179 141.439 437.361 141.431C437.258 141.375 437.195 141.344 437.195 141.344ZM438.845 146.206C438.561 146.458 438.261 146.664 437.961 146.829C437.811 146.908 437.661 146.979 437.519 147.042C437.195 147.184 436.887 147.279 436.611 147.35C436.003 147.5 435.585 147.5 435.585 147.5C435.917 147.682 436.335 147.682 436.619 147.658C436.816 147.642 436.951 147.603 436.951 147.603C436.943 147.721 436.927 147.832 436.911 147.942C436.887 148.061 436.856 148.163 436.816 148.258V148.266C436.769 148.384 436.706 148.487 436.643 148.581C436.635 148.589 436.627 148.605 436.619 148.613L436.643 148.597C436.745 148.542 436.848 148.479 436.951 148.416C437.03 148.368 437.108 148.313 437.179 148.266C437.306 148.179 437.432 148.084 437.558 147.982C437.566 147.974 437.574 147.966 437.582 147.966C437.7 147.863 437.819 147.753 437.921 147.642C438.063 147.492 438.19 147.342 438.3 147.192L438.308 147.184C438.34 147.145 438.363 147.113 438.387 147.074L438.395 147.066C438.403 147.05 438.411 147.042 438.419 147.027C438.458 146.971 438.49 146.924 438.529 146.869C438.537 146.853 438.545 146.845 438.553 146.829C438.569 146.798 438.584 146.774 438.608 146.742C438.624 146.719 438.632 146.703 438.648 146.679C438.663 146.656 438.679 146.632 438.687 146.608C438.711 146.569 438.734 146.521 438.758 146.482L438.782 146.435L438.829 146.34L438.853 146.293L438.861 146.277C438.876 146.237 438.9 146.198 438.916 146.158C438.884 146.166 438.869 146.182 438.845 146.206ZM431.647 143.025C431.568 143.049 431.473 143.088 431.378 143.128C431.126 143.23 430.842 143.38 430.589 143.585C430.558 143.609 430.526 143.641 430.494 143.664C430.439 143.712 430.392 143.759 430.344 143.814L430.329 143.83L430.305 143.854C430.289 143.877 430.266 143.893 430.25 143.917L430.226 143.941C430.202 143.972 430.179 144.004 430.163 144.035C430.139 144.067 430.123 144.098 430.1 144.13C429.95 144.39 429.863 144.706 429.887 145.085V145.069C429.887 145.061 429.887 145.053 429.895 145.046V145.038C429.895 145.03 429.902 145.022 429.902 145.006V144.998C429.902 144.99 429.91 144.974 429.91 144.959C429.91 144.943 429.918 144.935 429.926 144.919V144.911C429.934 144.896 429.934 144.88 429.942 144.864V144.856C429.95 144.84 429.95 144.825 429.958 144.809V144.801C429.966 144.785 429.973 144.769 429.981 144.746L429.989 144.738C429.997 144.722 430.005 144.698 430.021 144.682C430.037 144.651 430.052 144.627 430.068 144.596C430.076 144.588 430.084 144.572 430.092 144.564L430.1 144.556L430.147 144.485C430.163 144.469 430.179 144.446 430.194 144.43L430.21 144.414C430.226 144.398 430.234 144.383 430.25 144.375L430.266 144.359C430.281 144.343 430.305 144.327 430.321 144.304C430.321 144.304 429.981 145.077 430.131 145.685V145.677V145.661V145.637V145.606V145.566C430.131 145.551 430.131 145.535 430.139 145.519C430.139 145.503 430.139 145.488 430.147 145.472V145.464C430.147 145.448 430.155 145.424 430.155 145.409V145.393C430.163 145.369 430.163 145.353 430.171 145.33V145.322C430.179 145.298 430.187 145.274 430.187 145.259C430.187 145.251 430.194 145.243 430.194 145.235L430.202 145.219C430.21 145.203 430.218 145.18 430.226 145.164C430.234 145.14 430.25 145.117 430.266 145.093C430.266 145.085 430.273 145.077 430.273 145.077L430.321 145.006C430.321 145.006 430.305 145.195 430.305 145.424C430.305 145.464 430.305 145.495 430.313 145.535C430.313 145.559 430.313 145.582 430.321 145.606C430.337 145.361 430.384 145.132 430.447 144.919C430.463 144.864 430.487 144.801 430.502 144.746C430.502 144.738 430.51 144.73 430.51 144.722C430.534 144.667 430.55 144.619 430.573 144.564C430.581 144.556 430.581 144.548 430.589 144.532C430.613 144.485 430.636 144.43 430.66 144.383C430.668 144.375 430.668 144.367 430.668 144.359C430.723 144.256 430.779 144.162 430.834 144.075C430.842 144.067 430.842 144.059 430.85 144.051C430.873 144.019 430.897 143.988 430.921 143.948C430.929 143.941 430.929 143.933 430.936 143.925C430.944 143.917 430.944 143.909 430.952 143.901C430.984 143.862 431.007 143.822 431.039 143.783C431.047 143.775 431.047 143.767 431.055 143.767C431.086 143.727 431.118 143.688 431.15 143.656C431.189 143.609 431.228 143.57 431.268 143.522C431.299 143.491 431.323 143.459 431.355 143.435L431.386 143.404C431.449 143.341 431.513 143.278 431.576 143.222C431.749 143.064 431.891 142.962 431.939 142.93C431.907 142.938 431.876 142.946 431.836 142.954C431.789 142.978 431.726 143.001 431.647 143.025Z" fill="#F2D2AC"/>
<path d="M436.191 141.313C436.191 141.313 436.191 141.297 436.183 141.265C436.152 141.155 436.041 140.886 435.607 140.926C435.149 140.973 434.991 141.344 434.952 141.47C434.944 141.494 434.944 141.51 434.944 141.51L434.96 141.518C435.015 141.47 435.126 141.47 435.228 141.541C435.276 141.573 435.307 141.605 435.339 141.644C435.378 141.707 435.386 141.77 435.362 141.818L435.339 141.841C435.339 141.841 435.355 141.849 435.386 141.857C435.512 141.897 435.868 141.968 436.057 141.723C436.065 141.707 436.073 141.699 436.081 141.683C436.041 141.668 436.025 141.612 436.025 141.541C436.025 141.51 436.033 141.478 436.041 141.439C436.065 141.344 436.136 141.289 436.191 141.313ZM433.91 144.691C433.61 144.754 433.35 144.801 433.152 144.833C433.16 144.833 433.176 144.833 433.184 144.841C433.523 144.88 434.06 144.935 434.707 144.896C435.891 144.825 437.446 144.454 438.859 143.175V143.167C438.867 143.057 438.851 142.867 438.717 142.717C438.693 142.694 438.669 142.67 438.638 142.646C438.63 142.646 438.63 142.639 438.622 142.639C438.583 142.615 438.551 142.599 438.52 142.575L438.448 142.528V142.52C438.362 142.646 438.259 142.765 438.149 142.875C438.109 142.915 438.07 142.954 438.022 142.994C437.636 143.341 437.13 143.641 436.586 143.878C435.686 144.272 434.676 144.533 433.91 144.691ZM426.428 142.631C426.412 142.639 426.404 142.654 426.388 142.662L426.373 142.678C426.357 142.694 426.341 142.71 426.333 142.725L426.325 142.733L426.278 142.804L426.27 142.812C426.27 142.82 426.262 142.82 426.262 142.828L426.239 142.875V142.891C426.231 142.915 426.215 142.938 426.207 142.962C426.183 143.025 426.16 143.088 426.144 143.144C426.136 143.159 426.136 143.183 426.128 143.191C426.12 143.223 426.112 143.254 426.112 143.262C426.112 143.238 426.112 143.223 426.12 143.199C426.12 143.159 426.128 143.112 426.128 143.073C426.128 143.041 426.136 143.002 426.144 142.97C426.144 142.962 426.144 142.946 426.152 142.938C426.152 142.923 426.16 142.907 426.16 142.891C426.16 142.875 426.167 142.86 426.167 142.844V142.82C426.167 142.804 426.175 142.781 426.175 142.765V142.725V142.71C426.175 142.702 426.175 142.694 426.183 142.686C426.191 142.662 426.199 142.631 426.199 142.607V142.599C426.207 142.583 426.207 142.56 426.215 142.544V142.536C426.223 142.496 426.239 142.457 426.246 142.418V142.402C426.246 142.394 426.246 142.386 426.254 142.378C426.27 142.315 426.294 142.252 426.31 142.197V142.189C426.325 142.141 426.349 142.086 426.365 142.039V142.031C426.373 142.007 426.381 141.991 426.388 141.968C426.404 141.936 426.412 141.904 426.428 141.873C426.428 141.865 426.436 141.849 426.452 141.818C426.46 141.81 426.46 141.794 426.467 141.786C426.475 141.77 426.483 141.755 426.491 141.731L426.499 141.715C426.491 141.707 426.475 141.707 426.467 141.699H426.46L426.444 141.691C426.373 141.66 426.294 141.628 426.215 141.605H426.199C426.144 141.589 426.096 141.581 426.041 141.573C426.01 141.573 425.978 141.565 425.946 141.565H425.868C425.828 141.565 425.789 141.573 425.749 141.573C425.733 141.573 425.726 141.573 425.71 141.581C425.694 141.581 425.67 141.589 425.654 141.589C425.647 141.589 425.639 141.589 425.631 141.597C425.615 141.597 425.607 141.605 425.591 141.605C425.568 141.612 425.536 141.62 425.512 141.628C425.505 141.628 425.489 141.636 425.481 141.636C425.449 141.652 425.41 141.66 425.378 141.676C425.362 141.683 425.355 141.691 425.339 141.691L425.291 141.715L425.276 141.723C425.26 141.731 425.244 141.739 425.228 141.755C425.212 141.762 425.197 141.77 425.181 141.786C425.165 141.794 425.149 141.81 425.134 141.818C425.126 141.826 425.11 141.833 425.102 141.841C425.078 141.865 425.047 141.889 425.023 141.912L424.984 141.952C424.96 141.976 424.944 141.999 424.92 142.023L424.913 142.031C424.905 142.047 424.889 142.054 424.881 142.07L424.857 142.094C424.818 142.149 424.778 142.212 424.747 142.275C424.739 142.283 424.739 142.291 424.731 142.299C424.715 142.331 424.707 142.362 424.692 142.394C424.684 142.41 424.684 142.418 424.676 142.433C424.676 142.441 424.684 142.449 424.684 142.457C424.692 142.489 424.699 142.512 424.707 142.544V142.56C424.715 142.583 424.731 142.615 424.739 142.639C424.77 142.717 424.802 142.788 424.842 142.852C424.849 142.86 424.849 142.867 424.857 142.875V142.883L424.865 142.891C424.889 142.938 424.913 142.978 424.936 143.009C424.976 143.065 425.007 143.104 425.031 143.136L425.047 143.152C425.047 143.159 425.055 143.159 425.055 143.159L425.07 143.175C425.07 143.159 425.063 143.144 425.063 143.136C425.039 143.033 425.031 142.938 425.031 142.836V142.82C425.031 142.757 425.031 142.694 425.039 142.639L425.063 142.71C425.07 142.741 425.086 142.773 425.094 142.804V142.82C425.141 142.954 425.197 143.065 425.252 143.152C425.315 143.262 425.37 143.333 425.41 143.38C425.418 143.388 425.426 143.396 425.426 143.404L425.441 143.42C425.418 143.309 425.402 143.207 425.402 143.104V143.002C425.402 142.954 425.402 142.915 425.41 142.875C425.426 142.946 425.449 143.017 425.473 143.08V143.088C425.56 143.317 425.662 143.483 425.733 143.586L425.741 143.594C425.757 143.609 425.765 143.625 425.773 143.641C425.781 143.649 425.789 143.657 425.789 143.665L425.804 143.68L425.812 143.688V143.672C425.812 143.657 425.804 143.641 425.804 143.625C425.797 143.57 425.789 143.515 425.781 143.467C425.781 143.436 425.773 143.396 425.773 143.365V143.27V143.254V143.191C425.773 143.152 425.781 143.104 425.781 143.065C425.789 143.088 425.797 143.12 425.804 143.144C425.812 143.159 425.82 143.183 425.828 143.199V143.207L425.836 143.215C425.844 143.238 425.852 143.262 425.86 143.278C425.875 143.317 425.891 143.357 425.915 143.388C425.939 143.436 425.954 143.475 425.978 143.507C425.994 143.53 426.002 143.546 426.01 143.562C426.025 143.586 426.041 143.609 426.049 143.625C426.065 143.641 426.073 143.657 426.081 143.672L426.089 143.68C426.096 143.696 426.112 143.704 426.12 143.72C426.128 143.728 426.136 143.736 426.136 143.743C426.152 143.759 426.16 143.775 426.167 143.775L426.175 143.783V143.759C426.183 143.696 426.191 143.625 426.199 143.562V143.538C426.207 143.459 426.223 143.388 426.239 143.317C426.239 143.309 426.239 143.301 426.246 143.286V143.278C426.246 143.27 426.246 143.262 426.254 143.254C426.254 143.238 426.262 143.23 426.262 143.215C426.27 143.159 426.286 143.104 426.294 143.049C426.302 143.002 426.31 142.954 426.317 142.915V142.899C426.317 142.891 426.317 142.883 426.325 142.883V142.867C426.325 142.86 426.333 142.844 426.333 142.836C426.333 142.828 426.333 142.82 426.341 142.812C426.341 142.796 426.349 142.781 426.349 142.773C426.349 142.765 426.357 142.749 426.357 142.741C426.357 142.725 426.365 142.71 426.365 142.702C426.365 142.694 426.365 142.686 426.373 142.678C426.373 142.67 426.373 142.662 426.381 142.662C426.381 142.646 426.388 142.639 426.388 142.631V142.607L426.428 142.631ZM435.994 145.93C436.104 145.89 436.199 145.859 436.278 145.827C436.428 145.764 436.507 145.717 436.507 145.701C436.499 145.685 436.412 145.693 436.254 145.732C436.175 145.748 436.081 145.764 435.962 145.796C435.907 145.811 435.844 145.819 435.781 145.827C435.718 145.835 435.647 145.851 435.576 145.859C435.433 145.882 435.276 145.898 435.102 145.914L434.842 145.938C434.755 145.946 434.66 145.946 434.565 145.953C434.186 145.961 433.768 145.946 433.342 145.867C433.121 145.827 432.813 145.725 432.6 145.606L432.592 145.598C432.718 145.148 433.192 145.085 433.192 145.085L433.176 145.077H433.152C433.081 145.069 433.026 145.062 432.971 145.054C432.932 145.046 432.9 145.046 432.876 145.038C432.853 145.038 432.829 145.03 432.821 145.03C432.537 145.014 432.379 145.251 432.332 145.354L432.308 145.401C432.269 145.496 432.237 145.598 432.229 145.717C432.213 145.93 432.269 146.159 432.434 146.356C432.545 146.49 432.734 146.609 432.979 146.703C432.766 146.569 432.576 146.309 432.568 145.906C432.813 146.009 433.089 146.072 433.302 146.111C433.752 146.198 434.194 146.206 434.581 146.182C434.676 146.174 434.778 146.167 434.865 146.159C434.96 146.143 435.047 146.135 435.134 146.127C435.307 146.095 435.457 146.072 435.607 146.04C435.678 146.024 435.749 146.009 435.812 145.985C435.883 145.969 435.939 145.953 435.994 145.93Z" fill="#F2D2AC"/>
<path d="M435.623 140.657C435.86 140.665 436.018 140.736 436.128 140.846C436.152 140.744 436.168 140.617 436.16 140.475C436.152 140.325 436.12 140.191 436.073 140.088C436.057 140.025 435.962 139.86 435.844 139.867C435.694 139.875 435.584 140.167 435.607 140.515C435.607 140.562 435.615 140.609 435.623 140.657ZM436.018 141.549C436.018 141.612 436.041 141.667 436.073 141.691C436.128 141.722 436.199 141.659 436.231 141.556C436.231 141.549 436.239 141.541 436.239 141.533C436.262 141.438 436.239 141.343 436.183 141.32C436.128 141.288 436.057 141.351 436.025 141.454C436.025 141.485 436.018 141.517 436.018 141.549ZM434.944 141.722C434.968 141.762 435.007 141.801 435.055 141.833C435.157 141.896 435.268 141.904 435.331 141.849L435.355 141.825C435.378 141.777 435.37 141.714 435.331 141.651C435.307 141.612 435.268 141.572 435.22 141.549C435.118 141.485 435.007 141.478 434.952 141.525C434.944 141.533 434.936 141.541 434.928 141.556C434.905 141.596 434.913 141.659 434.944 141.722ZM438.867 143.167C438.859 143.167 438.859 143.167 438.867 143.167ZM438.741 145.353C438.591 145.495 438.425 145.629 438.235 145.755C437.422 146.308 436.286 146.742 435.481 146.845C434.873 146.939 434.281 146.955 433.768 146.892C433.468 146.852 433.208 146.789 432.979 146.703C432.734 146.608 432.545 146.489 432.434 146.355C432.269 146.158 432.221 145.921 432.229 145.716C432.237 145.605 432.261 145.495 432.308 145.4L432.332 145.353C432.387 145.25 432.537 145.006 432.821 145.029C432.829 145.029 432.853 145.029 432.876 145.037C432.9 145.037 432.939 145.045 432.971 145.053C433.026 145.061 433.082 145.069 433.153 145.077H433.176C433.958 145.171 434.707 145.163 435.418 145.053C436.452 144.895 437.407 144.524 438.259 143.948C438.306 143.916 438.346 143.885 438.393 143.853L438.859 143.159C437.446 144.445 435.891 144.816 434.707 144.887C434.06 144.927 433.524 144.879 433.184 144.832C433.168 144.832 433.16 144.832 433.153 144.824C433.05 144.808 432.971 144.8 432.908 144.792C432.876 144.792 432.853 144.785 432.837 144.785C432.75 144.777 432.663 144.792 432.584 144.816C432.426 144.864 432.284 144.974 432.182 145.116C432.055 145.29 431.977 145.526 431.977 145.763C431.977 145.961 432.024 146.166 432.127 146.355C432.134 146.363 432.134 146.371 432.142 146.379C432.158 146.403 432.166 146.418 432.182 146.442C432.198 146.466 432.221 146.497 432.245 146.521C432.49 146.829 433.026 147.05 433.737 147.144C434.218 147.208 434.778 147.2 435.386 147.113C437.186 146.789 438.038 146.205 438.433 145.803C438.464 145.771 438.488 145.747 438.512 145.716C438.654 145.55 438.717 145.424 438.741 145.377V145.369C438.748 145.353 438.748 145.345 438.748 145.345L438.741 145.353Z" fill="#664F44"/>
<path d="M433.018 139.117C432.963 139.086 432.9 139.062 432.837 139.046C432.797 139.039 432.758 139.031 432.71 139.023C432.695 139.023 432.679 139.023 432.663 139.015C432.45 138.999 432.268 139.031 432.268 139.031C432.229 139.039 432.189 139.046 432.158 139.062C431.874 139.149 431.676 139.299 431.534 139.473C431.424 139.615 431.345 139.765 431.305 139.915C431.298 139.93 431.298 139.938 431.298 139.954C431.29 139.994 431.274 140.033 431.266 140.065C431.242 140.191 431.227 140.301 431.227 140.396C431.227 140.522 431.234 140.601 431.234 140.601C431.282 140.491 431.337 140.396 431.392 140.301C431.526 140.072 431.669 139.883 431.819 139.733C432.103 139.441 432.395 139.283 432.616 139.204C432.852 139.125 433.018 139.117 433.018 139.117ZM436.436 138.715L436.428 138.699C436.396 138.66 436.357 138.62 436.309 138.589C436.199 138.518 436.049 138.478 435.844 138.518C435.844 138.518 435.599 138.573 435.457 138.739C435.457 138.739 435.883 138.557 436.341 138.881C436.38 138.912 436.428 138.944 436.467 138.983C436.507 139.023 436.554 139.062 436.594 139.117C436.594 139.117 436.578 138.92 436.459 138.746C436.452 138.731 436.444 138.723 436.436 138.715Z" fill="#E9B784"/>
<path d="M433.074 141.856C433.24 141.808 433.413 141.761 433.611 141.714C433.642 141.564 433.65 141.382 433.626 141.185C433.571 140.727 433.366 140.372 433.161 140.396C432.956 140.419 432.837 140.814 432.892 141.272C432.924 141.509 432.987 141.714 433.074 141.856Z" fill="#664F44"/>
<path d="M432.133 131.541L431.707 131.636L431.794 132.409L430.665 131.833L430.199 131.975L430.207 131.983L431.58 133.546L431.596 133.538L431.612 133.53C431.651 133.506 431.699 133.475 431.738 133.451C431.754 133.443 431.77 133.435 431.786 133.419C431.849 133.38 431.912 133.341 431.975 133.309L431.391 132.638L432.33 133.096C432.362 133.08 432.385 133.064 432.417 133.049L432.33 132.378L432.756 132.875H432.764C432.804 132.859 432.835 132.835 432.875 132.82L432.891 132.812L432.906 132.804C432.914 132.804 432.922 132.796 432.922 132.796L432.97 132.772C432.97 132.772 432.977 132.772 432.977 132.764C433.025 132.741 433.08 132.717 433.127 132.693L432.133 131.541Z" fill="#FFD250"/>
<path d="M431.715 131.635L431.778 131.62C431.675 131.572 431.549 131.541 431.407 131.517C431.123 131.478 430.759 131.517 430.349 131.62C429.939 131.722 429.473 131.904 428.984 132.148C427.997 132.638 426.908 133.388 425.85 134.35C425.479 134.682 425.14 135.029 424.824 135.369L426.103 136.947C426.45 136.568 426.821 136.189 427.231 135.819C427.776 135.321 428.329 134.879 428.873 134.5C429.402 134.129 429.931 133.814 430.428 133.561L430.207 132.551L430.215 131.983L430.207 131.975L430.673 131.833L431.58 132.298L431.557 131.983L431.715 131.635Z" fill="#4D9ED7"/>
<path d="M431.714 131.635L431.556 131.982L431.58 132.306L431.801 132.416L431.714 131.635ZM431.391 132.637L432.338 133.103L431.975 133.308L431.391 132.637ZM432.338 132.377L432.425 133.048L432.764 132.874L432.338 132.377Z" fill="#132134"/>
<path d="M435.907 132.133H436.08C436.238 132.133 436.388 132.157 436.53 132.188C436.538 132.188 436.546 132.188 436.554 132.196H436.562L436.578 132.204H436.593C436.578 132.196 436.562 132.18 436.546 132.173C436.388 132.109 436.222 132.07 436.049 132.046C435.196 131.936 434.218 132.251 433.665 132.472C433.634 132.488 433.602 132.496 433.571 132.512C433.523 132.536 433.476 132.551 433.428 132.575C433.35 132.607 433.271 132.646 433.184 132.686C433.168 132.693 433.16 132.693 433.144 132.701C433.097 132.725 433.042 132.749 432.994 132.772C432.994 132.772 432.986 132.772 432.986 132.78L432.939 132.804C432.931 132.804 432.923 132.812 432.923 132.812H432.892L432.884 132.82C432.844 132.835 432.813 132.851 432.773 132.875H432.765C432.758 132.883 432.75 132.883 432.742 132.891H432.734C432.726 132.891 432.718 132.899 432.718 132.899C432.663 132.93 432.608 132.954 432.552 132.985C432.513 133.009 432.473 133.025 432.434 133.049H432.426C432.395 133.064 432.371 133.08 432.339 133.096C432.245 133.143 432.158 133.199 432.063 133.254C432.055 133.262 432.047 133.262 432.031 133.27C432.024 133.277 432.016 133.277 432.008 133.285C432 133.293 431.992 133.293 431.984 133.301L431.976 133.309C431.913 133.349 431.85 133.38 431.787 133.42C431.771 133.427 431.755 133.435 431.739 133.451C431.7 133.475 431.653 133.506 431.613 133.53L431.597 133.538L431.582 133.546L431.226 133.783C431.029 133.917 430.84 134.051 430.65 134.193C430.627 134.209 430.603 134.232 430.579 134.248C430.082 134.619 429.608 135.022 429.151 135.432C428.669 135.874 428.204 136.324 427.769 136.782C427.533 137.019 427.327 137.232 427.17 137.405C426.838 137.761 426.657 137.981 426.664 137.989C426.664 137.989 426.696 137.966 426.751 137.91C426.712 137.958 426.664 138.013 426.625 138.06C427.351 137.287 428.148 136.498 429.009 135.756C429.529 135.306 430.074 134.872 430.634 134.469C430.879 134.296 431.132 134.122 431.384 133.956C431.463 133.901 431.55 133.854 431.629 133.798C431.668 133.775 431.708 133.751 431.755 133.727C431.779 133.712 431.803 133.696 431.826 133.688C431.874 133.664 431.913 133.633 431.96 133.609C432 133.585 432.047 133.562 432.087 133.53C432.11 133.514 432.134 133.506 432.158 133.491L432.324 133.396C432.355 133.38 432.387 133.356 432.418 133.341C432.521 133.285 432.623 133.23 432.734 133.175C432.742 133.167 432.75 133.167 432.758 133.159L432.805 133.135C432.829 133.128 432.844 133.112 432.868 133.104C432.876 133.096 432.884 133.096 432.892 133.088L432.939 133.064C432.939 133.064 432.947 133.064 432.947 133.056H432.955C433.002 133.033 433.05 133.009 433.089 132.993C433.097 132.993 433.105 132.985 433.113 132.978L433.16 132.954C433.215 132.93 433.263 132.907 433.318 132.883C433.334 132.875 433.35 132.867 433.357 132.859C433.365 132.859 433.373 132.851 433.381 132.851C433.397 132.843 433.413 132.835 433.428 132.835C433.492 132.812 433.547 132.78 433.61 132.757C433.665 132.733 433.713 132.709 433.768 132.686C434.068 132.559 434.344 132.457 434.604 132.37C435.094 132.236 435.528 132.149 435.907 132.133Z" fill="white"/>
</g>
<defs>
<filter id="filter0_f_1582_553" x="607.531" y="95.7559" width="90.5508" height="21.3809" filterUnits="userSpaceOnUse" color-interpolation-filters="sRGB">
<feFlood flood-opacity="0" result="BackgroundImageFix"/>
<feBlend mode="normal" in="SourceGraphic" in2="BackgroundImageFix" result="shape"/>
<feGaussianBlur stdDeviation="4" result="effect1_foregroundBlur_1582_553"/>
</filter>
<filter id="filter1_f_1582_553" x="280" y="90.9961" width="22" height="22" filterUnits="userSpaceOnUse" color-interpolation-filters="sRGB">
<feFlood flood-opacity="0" result="BackgroundImageFix"/>
<feBlend mode="normal" in="SourceGraphic" in2="BackgroundImageFix" result="shape"/>
<feGaussianBlur stdDeviation="2" result="effect1_foregroundBlur_1582_553"/>
</filter>
<filter id="filter2_f_1582_553" x="91" y="132.996" width="18" height="18" filterUnits="userSpaceOnUse" color-interpolation-filters="sRGB">
<feFlood flood-opacity="0" result="BackgroundImageFix"/>
<feBlend mode="normal" in="SourceGraphic" in2="BackgroundImageFix" result="shape"/>
<feGaussianBlur stdDeviation="2" result="effect1_foregroundBlur_1582_553"/>
</filter>
<filter id="filter3_f_1582_553" x="115" y="276.996" width="22" height="22" filterUnits="userSpaceOnUse" color-interpolation-filters="sRGB">
<feFlood flood-opacity="0" result="BackgroundImageFix"/>
<feBlend mode="normal" in="SourceGraphic" in2="BackgroundImageFix" result="shape"/>
<feGaussianBlur stdDeviation="2" result="effect1_foregroundBlur_1582_553"/>
</filter>
<filter id="filter4_f_1582_553" x="511" y="328.996" width="22" height="22" filterUnits="userSpaceOnUse" color-interpolation-filters="sRGB">
<feFlood flood-opacity="0" result="BackgroundImageFix"/>
<feBlend mode="normal" in="SourceGraphic" in2="BackgroundImageFix" result="shape"/>
<feGaussianBlur stdDeviation="2" result="effect1_foregroundBlur_1582_553"/>
</filter>
<filter id="filter5_f_1582_553" x="766" y="331.996" width="18" height="18" filterUnits="userSpaceOnUse" color-interpolation-filters="sRGB">
<feFlood flood-opacity="0" result="BackgroundImageFix"/>
<feBlend mode="normal" in="SourceGraphic" in2="BackgroundImageFix" result="shape"/>
<feGaussianBlur stdDeviation="2" result="effect1_foregroundBlur_1582_553"/>
</filter>
<filter id="filter6_f_1582_553" x="1033" y="304.996" width="22" height="22" filterUnits="userSpaceOnUse" color-interpolation-filters="sRGB">
<feFlood flood-opacity="0" result="BackgroundImageFix"/>
<feBlend mode="normal" in="SourceGraphic" in2="BackgroundImageFix" result="shape"/>
<feGaussianBlur stdDeviation="2" result="effect1_foregroundBlur_1582_553"/>
</filter>
<filter id="filter7_f_1582_553" x="1183" y="127.996" width="22" height="22" filterUnits="userSpaceOnUse" color-interpolation-filters="sRGB">
<feFlood flood-opacity="0" result="BackgroundImageFix"/>
<feBlend mode="normal" in="SourceGraphic" in2="BackgroundImageFix" result="shape"/>
<feGaussianBlur stdDeviation="2" result="effect1_foregroundBlur_1582_553"/>
</filter>
<filter id="filter8_f_1582_553" x="969" y="88.9961" width="18" height="18" filterUnits="userSpaceOnUse" color-interpolation-filters="sRGB">
<feFlood flood-opacity="0" result="BackgroundImageFix"/>
<feBlend mode="normal" in="SourceGraphic" in2="BackgroundImageFix" result="shape"/>
<feGaussianBlur stdDeviation="2" result="effect1_foregroundBlur_1582_553"/>
</filter>
<filter id="filter9_f_1582_553" x="420" y="185.996" width="22" height="22" filterUnits="userSpaceOnUse" color-interpolation-filters="sRGB">
<feFlood flood-opacity="0" result="BackgroundImageFix"/>
<feBlend mode="normal" in="SourceGraphic" in2="BackgroundImageFix" result="shape"/>
<feGaussianBlur stdDeviation="2" result="effect1_foregroundBlur_1582_553"/>
</filter>
<filter id="filter10_f_1582_553" x="663" y="208.996" width="18" height="18" filterUnits="userSpaceOnUse" color-interpolation-filters="sRGB">
<feFlood flood-opacity="0" result="BackgroundImageFix"/>
<feBlend mode="normal" in="SourceGraphic" in2="BackgroundImageFix" result="shape"/>
<feGaussianBlur stdDeviation="2" result="effect1_foregroundBlur_1582_553"/>
</filter>
<filter id="filter11_f_1582_553" x="868" y="184.996" width="22" height="22" filterUnits="userSpaceOnUse" color-interpolation-filters="sRGB">
<feFlood flood-opacity="0" result="BackgroundImageFix"/>
<feBlend mode="normal" in="SourceGraphic" in2="BackgroundImageFix" result="shape"/>
<feGaussianBlur stdDeviation="2" result="effect1_foregroundBlur_1582_553"/>
</filter>
<filter id="filter12_d_1582_553" x="1003" y="197.996" width="80" height="80" filterUnits="userSpaceOnUse" color-interpolation-filters="sRGB">
<feFlood flood-opacity="0" result="BackgroundImageFix"/>
<feColorMatrix in="SourceAlpha" type="matrix" values="0 0 0 0 0 0 0 0 0 0 0 0 0 0 0 0 0 0 127 0" result="hardAlpha"/>
<feOffset/>
<feGaussianBlur stdDeviation="2.5"/>
<feComposite in2="hardAlpha" operator="out"/>
<feColorMatrix type="matrix" values="0 0 0 0 0 0 0 0 0 0 0 0 0 0 0 0 0 0 0.1 0"/>
<feBlend mode="normal" in2="BackgroundImageFix" result="effect1_dropShadow_1582_553"/>
<feBlend mode="normal" in="SourceGraphic" in2="effect1_dropShadow_1582_553" result="shape"/>
</filter>
<clipPath id="clip0_1582_553">
<rect width="90.6901" height="90.6901" fill="white" transform="translate(604)"/>
</clipPath>
<clipPath id="clip1_1582_553">
<rect width="30" height="30" fill="white" transform="translate(112 200.996)"/>
</clipPath>
<clipPath id="clip2_1582_553">
<rect width="39.9201" height="40" fill="white" transform="translate(502 246.996)"/>
</clipPath>
<clipPath id="clip3_1582_553">
<rect width="35.072" height="40" fill="white" transform="translate(1025 217.996)"/>
</clipPath>
<clipPath id="clip4_1582_553">
<rect width="21.4684" height="20" fill="white" transform="translate(1184 72.9961)"/>
</clipPath>
<clipPath id="clip5_1582_553">
<rect width="17.688" height="20" fill="white" transform="translate(422 130.996)"/>
</clipPath>
</defs>
</svg>
