<svg width="93" height="93" viewBox="0 0 93 93" fill="none" xmlns="http://www.w3.org/2000/svg">
<g clip-path="url(#clip0_694_409)">
<path d="M36.5647 9.03734L1.68969 13.5673C0.717364 13.6928 -0.00792678 14.5245 6.54101e-05 15.5048V42.6298C6.54101e-05 43.6998 0.867581 44.5673 1.93763 44.5673H36.8126C37.8827 44.5673 38.7502 43.6998 38.7502 42.6298V10.9555C38.7495 10.3989 38.5095 9.86962 38.0914 9.50234C37.6702 9.14015 37.1163 8.97141 36.5647 9.03734Z" fill="#F44336"/>
<path d="M92.3412 2.42672C91.926 2.05254 91.3694 1.87598 90.8145 1.94228L44.3145 8.00672C43.3424 8.13223 42.6169 8.96396 42.6251 9.94428V42.63C42.6251 43.7 43.4926 44.5675 44.5626 44.5675H91.0626C92.1327 44.5675 93.0002 43.7 93.0002 42.63V3.87984C92.9993 3.32329 92.7591 2.79399 92.3412 2.42672Z" fill="#7FBA00"/>
<path d="M36.8126 48.4423H1.93763C0.867581 48.4423 6.54102e-05 49.3098 6.54102e-05 50.3799V77.5048C-0.00792678 78.4851 0.717364 79.3168 1.6895 79.4424L36.5645 83.9915C36.6472 83.9972 36.73 83.9972 36.8124 83.9915C37.8825 83.9915 38.75 83.124 38.75 82.054V50.3799C38.7502 49.3098 37.8827 48.4423 36.8126 48.4423Z" fill="#2196F3"/>
<path d="M91.0626 48.4423H44.5626C43.4926 48.4423 42.6251 49.3098 42.6251 50.3799V83.0655C42.6171 84.0459 43.3424 84.8776 44.3145 85.0031L90.8145 91.0675C90.8971 91.0732 90.98 91.0732 91.0624 91.0675C92.1325 91.0675 93 90.2 93 89.13V50.3799C93 49.3098 92.1327 48.4423 91.0626 48.4423Z" fill="#FFC107"/>
</g>
<defs>
<clipPath id="clip0_694_409">
<rect width="93" height="93" fill="white"/>
</clipPath>
</defs>
</svg>
