<svg width="490" height="492" viewBox="0 0 490 492" fill="none" xmlns="http://www.w3.org/2000/svg">
<path d="M451.861 418.149L153.534 434.088C143.982 434.597 136.254 427.058 136.254 417.21V207.297C136.254 197.477 143.982 189.105 153.534 188.595L451.861 172.656C461.413 172.146 469.141 179.686 469.141 189.534V399.447C469.141 409.241 461.413 417.639 451.861 418.149Z" fill="white"/>
<path d="M152.622 434.705C148.275 434.705 144.224 433.095 141.084 430.116C137.596 426.816 135.664 422.228 135.664 417.21V207.297C135.664 197.181 143.66 188.514 153.508 188.005L451.834 172.066C456.53 171.824 460.957 173.434 464.312 176.628C467.8 179.928 469.732 184.516 469.732 189.534V399.447C469.732 409.563 461.736 418.23 451.888 418.739L153.562 434.678C153.266 434.678 152.944 434.705 152.622 434.705ZM452.773 173.22C452.478 173.22 452.183 173.22 451.888 173.247L153.562 189.185C144.331 189.668 136.845 197.799 136.845 207.297V417.21C136.845 421.879 138.642 426.172 141.889 429.258C145.002 432.209 149.134 433.712 153.508 433.497L451.834 417.559C461.065 417.076 468.551 408.945 468.551 399.447V189.507C468.551 184.838 466.753 180.545 463.507 177.459C460.582 174.696 456.798 173.22 452.773 173.22Z" fill="black"/>
<path d="M430.504 57.2755C446.174 47.5084 454.278 34.736 458.249 9.24487C460.932 18.2338 461.764 24.9152 460.422 31.9722L468.955 27.2228C469.143 34.1457 467.801 42.4906 462.032 47.7767L472.739 42.8395C467.426 54.5654 461.254 76.4341 437.856 66.7474L430.504 57.2755Z" fill="white"/>
<path d="M448.454 69.7527C445.288 69.7527 441.692 69.0282 437.614 67.3109C437.506 67.2841 437.426 67.2036 437.372 67.1231L430.047 57.6243C429.939 57.4901 429.913 57.3291 429.939 57.1681C429.966 57.0071 430.074 56.8461 430.208 56.7656C446.415 46.6497 453.847 33.7431 457.684 9.13751C457.738 8.86918 457.953 8.65452 458.221 8.62769C458.489 8.62769 458.758 8.78868 458.838 9.05701C461.521 17.9923 462.246 24.4322 461.253 30.8452L468.686 26.713C468.874 26.6056 469.088 26.6056 469.276 26.713C469.464 26.8203 469.571 27.0081 469.571 27.2228C469.732 32.8845 468.927 40.3977 464.527 46.0057L472.496 42.3296C472.711 42.2223 472.979 42.276 473.167 42.4369C473.355 42.5979 473.382 42.8663 473.301 43.1078C472.764 44.2884 472.228 45.5495 471.664 46.8912C467.613 56.3363 461.924 69.7527 448.454 69.7527ZM438.204 66.2644C458.57 74.6094 465.493 58.3219 470.51 46.4082C470.859 45.5764 471.181 44.7982 471.53 44.0469L462.246 48.3402C461.978 48.4743 461.656 48.367 461.495 48.1255C461.334 47.884 461.361 47.562 461.602 47.3742C467.183 42.2759 468.391 34.3603 468.364 28.2424L460.717 32.482C460.529 32.5893 460.26 32.5893 460.073 32.4552C459.885 32.321 459.804 32.0795 459.831 31.8648C460.958 25.8543 460.556 19.9511 458.382 11.9549C454.438 34.7091 446.71 47.6693 431.361 57.4365L438.204 66.2644Z" fill="black"/>
<path d="M380.571 63.7959C364.9 54.0288 356.797 41.2564 352.826 15.7653C350.142 24.7542 349.311 31.4356 350.652 38.4926L342.119 33.7432C341.932 40.666 343.273 49.011 349.042 54.2971L338.336 49.3599C343.649 61.0858 349.82 82.9545 373.219 73.2678L380.571 63.7959Z" fill="white"/>
<path d="M362.618 76.2731C349.148 76.2731 343.486 62.8835 339.461 53.4116C338.898 52.0699 338.361 50.8088 337.824 49.6282C337.717 49.4135 337.771 49.1452 337.958 48.9573C338.146 48.7963 338.388 48.7427 338.629 48.85L346.599 52.5261C342.198 46.918 341.393 39.4049 341.554 33.7432C341.554 33.5285 341.661 33.3407 341.849 33.2333C342.037 33.126 342.252 33.126 342.439 33.2333L349.872 37.3656C348.879 30.9526 349.604 24.5395 352.287 15.5774C352.368 15.3091 352.609 15.1481 352.904 15.1481C353.173 15.1749 353.414 15.3627 353.441 15.6579C357.278 40.2635 364.711 53.1701 380.918 63.286C381.052 63.3665 381.159 63.5275 381.186 63.6885C381.213 63.8495 381.186 64.0105 381.079 64.1447L373.753 73.6435C373.7 73.724 373.619 73.7776 373.512 73.8313C369.38 75.5218 365.784 76.2731 362.618 76.2731ZM339.542 50.5673C339.864 51.3186 340.212 52.1236 340.561 52.9286C345.606 64.8423 352.502 81.1566 372.868 72.7848L379.71 63.93C364.335 54.1629 356.607 41.2027 352.69 18.4485C350.516 26.4447 350.114 32.3479 351.241 38.3584C351.294 38.5731 351.187 38.8146 350.999 38.9487C350.811 39.0829 350.57 39.1097 350.355 38.9756L342.708 34.7091C342.654 40.8002 343.888 48.7427 349.47 53.8409C349.684 54.0287 349.738 54.3507 349.577 54.5922C349.416 54.8337 349.094 54.9142 348.826 54.8069L339.542 50.5673Z" fill="black"/>
<path d="M406.702 113.007C427.137 113.007 443.704 96.4766 443.704 76.0852C443.704 55.6938 427.137 39.1633 406.702 39.1633C386.266 39.1633 369.699 55.6938 369.699 76.0852C369.699 96.4766 386.266 113.007 406.702 113.007Z" fill="black"/>
<path d="M408.152 110.619C427.98 110.619 444.054 94.581 444.054 74.7972C444.054 55.0134 427.98 38.9755 408.152 38.9755C388.324 38.9755 372.25 55.0134 372.25 74.7972C372.25 94.581 388.324 110.619 408.152 110.619Z" fill="white"/>
<path d="M408.125 111.209C389.825 111.209 373.994 97.444 371.901 78.8758C370.8 69.216 373.564 59.6903 379.628 52.0967C385.72 44.503 394.386 39.6999 404.073 38.6266C424.064 36.3727 442.176 50.7819 444.43 70.7186C445.53 80.3784 442.766 89.904 436.702 97.4977C430.611 105.091 421.944 109.894 412.257 110.968C410.862 111.129 409.493 111.209 408.125 111.209ZM408.178 39.5926C406.864 39.5926 405.549 39.6731 404.207 39.8073C394.843 40.8538 386.444 45.4958 380.541 52.848C374.664 60.2002 372.008 69.4038 373.054 78.7416C375.228 98.0343 392.75 111.987 412.096 109.814C421.461 108.767 429.859 104.125 435.763 96.7732C441.639 89.421 444.295 80.2174 443.249 70.8796C441.21 52.9017 425.888 39.5926 408.178 39.5926Z" fill="black"/>
<path d="M408.153 104.85C424.795 104.85 438.286 91.395 438.286 74.7973C438.286 58.1997 424.795 44.7446 408.153 44.7446C391.511 44.7446 378.02 58.1997 378.02 74.7973C378.02 91.395 391.511 104.85 408.153 104.85Z" fill="white"/>
<path d="M435.145 88.7502C435.064 88.7502 434.957 88.7234 434.876 88.6965C434.581 88.5624 434.474 88.1867 434.608 87.8916C435.869 85.3693 436.755 82.686 437.238 79.9222C437.291 79.6002 437.586 79.3856 437.935 79.4392C438.257 79.4929 438.472 79.8149 438.418 80.1369C437.908 83.008 436.996 85.7986 435.681 88.4282C435.574 88.6429 435.386 88.7502 435.145 88.7502Z" fill="black"/>
<path d="M382.017 60.4686C381.91 60.4686 381.802 60.4418 381.722 60.3881C381.427 60.2271 381.346 59.8515 381.507 59.5831C386.364 51.1308 395.058 45.4423 404.744 44.3421C416.551 43.0273 427.821 48.4207 434.153 58.4293C434.341 58.6977 434.234 59.0733 433.965 59.2343C433.697 59.4221 433.321 59.3148 433.16 59.0465C427.042 49.4135 416.229 44.2348 404.879 45.496C395.568 46.5424 387.223 52.0163 382.554 60.1466C382.42 60.3613 382.205 60.4686 382.017 60.4686Z" fill="black"/>
<path d="M408.123 105.467C392.721 105.467 379.385 93.8754 377.614 78.2587C377.024 73.0531 377.802 67.7403 379.815 62.9372C379.949 62.642 380.297 62.5079 380.593 62.6152C380.888 62.7494 381.022 63.0982 380.915 63.3934C378.956 68.0086 378.231 73.1068 378.795 78.1245C380.619 94.2778 395.27 105.923 411.45 104.099C411.772 104.072 412.067 104.286 412.094 104.608C412.121 104.93 411.906 105.226 411.584 105.252C410.431 105.387 409.277 105.467 408.123 105.467Z" fill="black"/>
<path d="M407.801 96.2098L407.237 91.2994C403.749 91.5409 400.288 90.9774 398.168 90.0651L399.027 83.8399C401.334 84.779 404.527 85.5303 407.881 85.1547C410.833 84.8327 412.738 83.4642 412.497 81.3981C412.282 79.4393 410.484 78.3928 406.486 77.5073C400.744 76.273 396.665 74.0996 396.102 69.1087C395.592 64.5471 398.41 60.6295 403.83 58.9122L403.266 54.0018L408.338 53.4384L408.847 57.9999C412.336 57.7584 414.751 58.2146 416.548 58.8586L415.717 64.8691C414.295 64.4398 411.799 63.5275 408.069 63.9568C404.688 64.3325 403.776 65.9156 403.937 67.3646C404.125 69.0818 406.057 69.9405 410.645 71.1211C417.058 72.5969 419.876 75.1729 420.386 79.8149C420.895 84.4033 418.078 88.6966 412.255 90.4139L412.846 95.6731L407.801 96.2098Z" fill="#09B850"/>
<path d="M347.242 177.379C366.615 165.304 376.678 149.5 381.561 117.944C384.889 129.053 385.908 137.317 384.271 146.065L394.817 140.189C395.058 148.748 393.395 159.079 386.23 165.626L399.459 159.508C392.885 174.025 385.237 201.099 356.312 189.105L347.242 177.379Z" fill="white"/>
<path d="M369.566 192.7C365.461 192.7 360.979 191.681 356.096 189.668C355.989 189.641 355.908 189.561 355.854 189.48L346.785 177.728C346.678 177.593 346.651 177.432 346.678 177.271C346.704 177.11 346.812 176.949 346.946 176.869C366.775 164.499 376.328 147.943 380.997 117.837C381.05 117.569 381.265 117.354 381.533 117.327C381.802 117.327 382.07 117.488 382.151 117.756C385.505 128.946 386.363 136.942 385.075 144.938L394.52 139.679C394.708 139.571 394.923 139.571 395.111 139.679C395.299 139.786 395.406 139.974 395.406 140.189C395.621 147.326 394.547 156.879 388.805 163.801L399.216 158.998C399.431 158.891 399.699 158.945 399.887 159.106C400.075 159.267 400.102 159.535 400.021 159.776C399.377 161.225 398.706 162.809 398.009 164.472C394.896 171.798 391.032 180.947 384.7 186.743C380.299 190.715 375.308 192.7 369.566 192.7ZM356.686 188.622C382.07 199.033 390.63 178.774 396.882 163.989C397.365 162.862 397.821 161.762 398.277 160.716L386.471 166.163C386.202 166.297 385.88 166.189 385.719 165.948C385.558 165.706 385.585 165.384 385.827 165.17C392.857 158.757 394.306 148.775 394.225 141.155L384.539 146.548C384.351 146.655 384.082 146.655 383.895 146.521C383.707 146.387 383.626 146.145 383.653 145.931C385.102 138.31 384.539 130.851 381.694 120.601C376.864 149.177 367.285 165.331 348.073 177.486L356.686 188.622Z" fill="black"/>
<path d="M288.474 167.209C265.049 152.612 252.921 133.534 247.018 95.4048C242.993 108.821 241.759 118.83 243.771 129.375L231.026 122.291C230.73 132.622 232.743 145.126 241.383 153.015L225.391 145.636C233.306 163.157 242.564 195.867 277.527 181.377L288.474 167.209Z" fill="white"/>
<path d="M261.509 185.616C254.586 185.616 248.576 183.228 243.343 178.425C235.696 171.422 231.054 160.421 227.297 151.566C226.439 149.553 225.634 147.648 224.855 145.904C224.748 145.689 224.802 145.421 224.99 145.233C225.177 145.072 225.419 145.019 225.66 145.126L238.755 151.163C231.51 142.791 230.195 131.039 230.437 122.291C230.437 122.077 230.544 121.889 230.732 121.781C230.92 121.674 231.134 121.674 231.322 121.781L242.968 128.275C241.358 118.535 242.377 108.848 246.456 95.2438C246.536 94.9755 246.778 94.8145 247.073 94.8145C247.341 94.8413 247.583 95.0291 247.61 95.3243C253.271 131.736 264.809 151.754 288.798 166.726C288.932 166.807 289.039 166.968 289.066 167.129C289.093 167.29 289.066 167.451 288.959 167.585L278.011 181.779C277.957 181.86 277.877 181.914 277.77 181.967C271.84 184.382 266.446 185.616 261.509 185.616ZM226.546 146.843C227.136 148.185 227.727 149.607 228.371 151.083C235.964 169.007 246.349 193.559 277.126 180.894L287.59 167.343C264.219 152.585 252.654 132.971 246.832 98.0881C243.263 110.753 242.538 119.93 244.309 129.268C244.363 129.482 244.256 129.724 244.068 129.858C243.88 129.992 243.638 130.019 243.424 129.885L231.564 123.284C231.43 132.514 233.174 144.75 241.76 152.585C241.975 152.773 242.028 153.095 241.867 153.364C241.706 153.605 241.384 153.686 241.116 153.578L226.546 146.843Z" fill="black"/>
<path d="M311.632 229.944C340.308 229.944 363.554 206.758 363.554 178.157C363.554 149.556 340.308 126.37 311.632 126.37C282.957 126.37 259.711 149.556 259.711 178.157C259.711 206.758 282.957 229.944 311.632 229.944Z" fill="black"/>
<path d="M313.857 226.885C341.673 226.885 364.222 204.384 364.222 176.627C364.222 148.871 341.673 126.37 313.857 126.37C286.041 126.37 263.492 148.871 263.492 176.627C263.492 204.384 286.041 226.885 313.857 226.885Z" fill="white"/>
<path d="M313.857 227.476C285.763 227.476 262.875 204.668 262.875 176.627C262.875 148.587 285.736 125.779 313.857 125.779C341.978 125.779 364.839 148.587 364.839 176.627C364.813 204.668 341.951 227.476 313.857 227.476ZM313.857 126.96C286.407 126.96 264.082 149.231 264.082 176.627C264.082 204.024 286.407 226.295 313.857 226.295C341.307 226.295 363.632 204.024 363.632 176.627C363.632 149.231 341.307 126.96 313.857 126.96Z" fill="black"/>
<path d="M313.859 218.809C337.214 218.809 356.147 199.923 356.147 176.627C356.147 153.332 337.214 134.446 313.859 134.446C290.503 134.446 271.57 153.332 271.57 176.627C271.57 199.923 290.503 218.809 313.859 218.809Z" fill="white"/>
<path d="M349.385 200.052C349.278 200.052 349.171 200.026 349.063 199.945C348.795 199.757 348.715 199.409 348.876 199.113C351.049 195.759 352.713 192.137 353.813 188.353C353.893 188.031 354.242 187.87 354.537 187.951C354.859 188.031 355.02 188.38 354.94 188.675C353.786 192.593 352.069 196.323 349.842 199.757C349.761 199.972 349.573 200.052 349.385 200.052Z" fill="black"/>
<path d="M351.907 158.811C351.692 158.811 351.478 158.676 351.37 158.489C344.34 144.026 329.958 135.037 313.858 135.037C300.63 135.037 288.045 141.396 280.21 152.049C280.022 152.317 279.647 152.371 279.378 152.183C279.11 151.995 279.056 151.619 279.244 151.351C287.294 140.403 300.227 133.856 313.831 133.856C330.387 133.856 345.172 143.087 352.417 157.979C352.551 158.274 352.444 158.623 352.149 158.784C352.068 158.811 351.988 158.811 351.907 158.811Z" fill="black"/>
<path d="M313.859 219.399C290.22 219.399 270.98 200.213 270.98 176.627C270.98 169.302 272.859 162.084 276.454 155.725C276.615 155.43 276.964 155.349 277.259 155.51C277.554 155.671 277.635 156.02 277.474 156.315C274.013 162.487 272.161 169.517 272.161 176.627C272.161 199.569 290.864 218.218 313.859 218.218C314.181 218.218 314.45 218.487 314.45 218.809C314.45 219.131 314.181 219.399 313.859 219.399Z" fill="black"/>
<path d="M309.966 206.412V199.489C305.056 199.274 300.306 197.96 297.516 196.35L299.716 187.817C302.802 189.507 307.095 191.037 311.871 191.037C316.03 191.037 318.901 189.427 318.901 186.502C318.901 183.738 316.567 181.967 311.147 180.143C303.311 177.513 297.972 173.864 297.972 166.78C297.972 160.367 302.506 155.322 310.342 153.793V146.87H317.506V153.283C322.416 153.498 325.69 154.517 328.105 155.698L325.985 163.936C324.08 163.131 320.726 161.467 315.44 161.467C310.69 161.467 309.161 163.506 309.161 165.546C309.161 167.961 311.71 169.49 317.935 171.824C326.629 174.883 330.144 178.908 330.144 185.482C330.144 191.976 325.529 197.53 317.13 198.979V206.412H309.966Z" fill="#09B850"/>
<path d="M459.698 439.159H151.658C141.837 439.159 133.895 431.217 133.895 421.396V211.43C133.895 201.609 141.837 193.666 151.658 193.666H459.698C469.519 193.666 477.461 201.609 477.461 211.43V421.396C477.461 431.19 469.519 439.159 459.698 439.159Z" fill="white"/>
<path d="M459.698 439.749H151.658C141.542 439.749 133.305 431.512 133.305 421.396V211.43C133.305 201.314 141.542 193.076 151.658 193.076H459.698C469.814 193.076 478.052 201.314 478.052 211.43V421.396C478.052 431.512 469.814 439.749 459.698 439.749ZM151.658 194.257C142.186 194.257 134.485 201.958 134.485 211.43V421.396C134.485 430.868 142.186 438.569 151.658 438.569H459.698C469.17 438.569 476.871 430.868 476.871 421.396V211.43C476.871 201.958 469.17 194.257 459.698 194.257H151.658Z" fill="black"/>
<path d="M455.996 431.458H448.912C448.59 431.458 448.321 431.19 448.321 430.868C448.321 430.546 448.59 430.277 448.912 430.277H456.022C456.774 430.277 457.525 430.197 458.25 430.09C458.572 430.036 458.867 430.251 458.947 430.573C459.001 430.895 458.786 431.19 458.464 431.27C457.659 431.378 456.827 431.458 455.996 431.458ZM441.801 431.458H434.69C434.368 431.458 434.1 431.19 434.1 430.868C434.1 430.546 434.368 430.277 434.69 430.277H441.801C442.123 430.277 442.391 430.546 442.391 430.868C442.391 431.19 442.123 431.458 441.801 431.458ZM427.58 431.458H420.469C420.147 431.458 419.879 431.19 419.879 430.868C419.879 430.546 420.147 430.277 420.469 430.277H427.58C427.902 430.277 428.17 430.546 428.17 430.868C428.17 431.19 427.902 431.458 427.58 431.458ZM413.385 431.458H406.275C405.953 431.458 405.684 431.19 405.684 430.868C405.684 430.546 405.953 430.277 406.275 430.277H413.385C413.707 430.277 413.976 430.546 413.976 430.868C413.976 431.19 413.707 431.458 413.385 431.458ZM399.164 431.458H392.053C391.731 431.458 391.463 431.19 391.463 430.868C391.463 430.546 391.731 430.277 392.053 430.277H399.164C399.486 430.277 399.754 430.546 399.754 430.868C399.754 431.19 399.486 431.458 399.164 431.458ZM384.942 431.458H377.832C377.51 431.458 377.242 431.19 377.242 430.868C377.242 430.546 377.51 430.277 377.832 430.277H384.942C385.264 430.277 385.533 430.546 385.533 430.868C385.533 431.19 385.291 431.458 384.942 431.458ZM370.748 431.458H363.637C363.315 431.458 363.047 431.19 363.047 430.868C363.047 430.546 363.315 430.277 363.637 430.277H370.748C371.07 430.277 371.338 430.546 371.338 430.868C371.338 431.19 371.07 431.458 370.748 431.458ZM356.527 431.458H349.416C349.094 431.458 348.826 431.19 348.826 430.868C348.826 430.546 349.094 430.277 349.416 430.277H356.527C356.849 430.277 357.117 430.546 357.117 430.868C357.117 431.19 356.849 431.458 356.527 431.458ZM342.305 431.458H335.195C334.873 431.458 334.604 431.19 334.604 430.868C334.604 430.546 334.873 430.277 335.195 430.277H342.305C342.627 430.277 342.896 430.546 342.896 430.868C342.922 431.19 342.654 431.458 342.305 431.458ZM328.111 431.458H321C320.678 431.458 320.41 431.19 320.41 430.868C320.41 430.546 320.678 430.277 321 430.277H328.111C328.433 430.277 328.701 430.546 328.701 430.868C328.701 431.19 328.433 431.458 328.111 431.458ZM313.889 431.458H306.779C306.457 431.458 306.188 431.19 306.188 430.868C306.188 430.546 306.457 430.277 306.779 430.277H313.889C314.211 430.277 314.48 430.546 314.48 430.868C314.48 431.19 314.211 431.458 313.889 431.458ZM299.695 431.458H292.584C292.262 431.458 291.994 431.19 291.994 430.868C291.994 430.546 292.262 430.277 292.584 430.277H299.695C300.017 430.277 300.285 430.546 300.285 430.868C300.285 431.19 300.017 431.458 299.695 431.458ZM285.474 431.458H278.363C278.041 431.458 277.772 431.19 277.772 430.868C277.772 430.546 278.041 430.277 278.363 430.277H285.474C285.795 430.277 286.064 430.546 286.064 430.868C286.064 431.19 285.795 431.458 285.474 431.458ZM271.252 431.458H264.141C263.819 431.458 263.551 431.19 263.551 430.868C263.551 430.546 263.819 430.277 264.141 430.277H271.252C271.574 430.277 271.842 430.546 271.842 430.868C271.842 431.19 271.574 431.458 271.252 431.458ZM257.058 431.458H249.947C249.625 431.458 249.357 431.19 249.357 430.868C249.357 430.546 249.625 430.277 249.947 430.277H257.058C257.38 430.277 257.648 430.546 257.648 430.868C257.648 431.19 257.38 431.458 257.058 431.458ZM242.836 431.458H235.726C235.404 431.458 235.135 431.19 235.135 430.868C235.135 430.546 235.404 430.277 235.726 430.277H242.836C243.158 430.277 243.427 430.546 243.427 430.868C243.427 431.19 243.158 431.458 242.836 431.458ZM228.615 431.458H221.504C221.182 431.458 220.914 431.19 220.914 430.868C220.914 430.546 221.182 430.277 221.504 430.277H228.615C228.937 430.277 229.205 430.546 229.205 430.868C229.205 431.19 228.964 431.458 228.615 431.458ZM214.42 431.458H207.31C206.988 431.458 206.719 431.19 206.719 430.868C206.719 430.546 206.988 430.277 207.31 430.277H214.42C214.742 430.277 215.011 430.546 215.011 430.868C215.011 431.19 214.742 431.458 214.42 431.458ZM200.199 431.458H193.088C192.766 431.458 192.498 431.19 192.498 430.868C192.498 430.546 192.766 430.277 193.088 430.277H200.199C200.521 430.277 200.789 430.546 200.789 430.868C200.789 431.19 200.521 431.458 200.199 431.458ZM186.004 431.458H178.894C178.572 431.458 178.303 431.19 178.303 430.868C178.303 430.546 178.572 430.277 178.894 430.277H186.004C186.326 430.277 186.595 430.546 186.595 430.868C186.595 431.19 186.326 431.458 186.004 431.458ZM171.783 431.458H164.672C164.35 431.458 164.082 431.19 164.082 430.868C164.082 430.546 164.35 430.277 164.672 430.277H171.783C172.105 430.277 172.373 430.546 172.373 430.868C172.373 431.19 172.105 431.458 171.783 431.458ZM157.562 431.431H157.535C155.039 431.297 152.651 430.465 150.585 429.07C150.317 428.882 150.236 428.506 150.424 428.238C150.612 427.97 150.988 427.889 151.256 428.077C153.134 429.365 155.335 430.116 157.589 430.224C157.911 430.251 158.152 430.519 158.152 430.841C158.152 431.19 157.884 431.431 157.562 431.431ZM464.663 428.184C464.502 428.184 464.341 428.104 464.206 427.97C463.992 427.728 464.019 427.353 464.26 427.138C465.977 425.635 467.239 423.703 467.936 421.53C468.044 421.208 468.366 421.047 468.688 421.154C469.009 421.262 469.17 421.584 469.063 421.906C468.312 424.267 466.917 426.387 465.038 428.05C464.958 428.131 464.797 428.184 464.663 428.184ZM146.399 423.811C146.185 423.811 145.97 423.677 145.863 423.462C145.031 421.664 144.602 419.732 144.602 417.72V416.298C144.602 415.976 144.87 415.707 145.192 415.707C145.514 415.707 145.782 415.976 145.782 416.298V417.72C145.782 419.544 146.158 421.315 146.936 422.979C147.07 423.274 146.936 423.623 146.641 423.757C146.56 423.784 146.48 423.811 146.399 423.811ZM469.144 415.278C468.822 415.278 468.553 415.01 468.553 414.688V407.577C468.553 407.255 468.822 406.987 469.144 406.987C469.466 406.987 469.734 407.255 469.734 407.577V414.688C469.734 415.01 469.466 415.278 469.144 415.278ZM145.192 409.777C144.87 409.777 144.602 409.509 144.602 409.187V402.076C144.602 401.754 144.87 401.486 145.192 401.486C145.514 401.486 145.782 401.754 145.782 402.076V409.187C145.782 409.509 145.514 409.777 145.192 409.777ZM469.144 401.057C468.822 401.057 468.553 400.788 468.553 400.466V393.356C468.553 393.034 468.822 392.765 469.144 392.765C469.466 392.765 469.734 393.034 469.734 393.356V400.466C469.734 400.788 469.466 401.057 469.144 401.057ZM145.192 395.556C144.87 395.556 144.602 395.288 144.602 394.966V387.855C144.602 387.533 144.87 387.265 145.192 387.265C145.514 387.265 145.782 387.533 145.782 387.855V394.966C145.782 395.288 145.514 395.556 145.192 395.556ZM469.144 386.862C468.822 386.862 468.553 386.594 468.553 386.272V379.161C468.553 378.839 468.822 378.571 469.144 378.571C469.466 378.571 469.734 378.839 469.734 379.161V386.272C469.734 386.594 469.466 386.862 469.144 386.862ZM145.192 381.361C144.87 381.361 144.602 381.093 144.602 380.771V373.66C144.602 373.338 144.87 373.07 145.192 373.07C145.514 373.07 145.782 373.338 145.782 373.66V380.771C145.782 381.093 145.514 381.361 145.192 381.361ZM469.144 372.641C468.822 372.641 468.553 372.372 468.553 372.05V364.94C468.553 364.618 468.822 364.349 469.144 364.349C469.466 364.349 469.734 364.618 469.734 364.94V372.05C469.734 372.372 469.466 372.641 469.144 372.641ZM145.192 367.14C144.87 367.14 144.602 366.872 144.602 366.55V359.439C144.602 359.117 144.87 358.849 145.192 358.849C145.514 358.849 145.782 359.117 145.782 359.439V366.55C145.782 366.872 145.514 367.14 145.192 367.14ZM469.144 358.419C468.822 358.419 468.553 358.151 468.553 357.829V350.718C468.553 350.396 468.822 350.128 469.144 350.128C469.466 350.128 469.734 350.396 469.734 350.718V357.829C469.734 358.178 469.466 358.419 469.144 358.419ZM145.192 352.919C144.87 352.919 144.602 352.65 144.602 352.328V345.218C144.602 344.896 144.87 344.627 145.192 344.627C145.514 344.627 145.782 344.896 145.782 345.218V352.328C145.782 352.677 145.514 352.919 145.192 352.919ZM469.144 344.225C468.822 344.225 468.553 343.956 468.553 343.634V336.524C468.553 336.202 468.822 335.933 469.144 335.933C469.466 335.933 469.734 336.202 469.734 336.524V343.634C469.734 343.956 469.466 344.225 469.144 344.225ZM145.192 338.724C144.87 338.724 144.602 338.456 144.602 338.134V331.023C144.602 330.701 144.87 330.433 145.192 330.433C145.514 330.433 145.782 330.701 145.782 331.023V338.134C145.782 338.456 145.514 338.724 145.192 338.724ZM469.144 330.003C468.822 330.003 468.553 329.735 468.553 329.413V322.302C468.553 321.98 468.822 321.712 469.144 321.712C469.466 321.712 469.734 321.98 469.734 322.302V329.413C469.734 329.735 469.466 330.003 469.144 330.003ZM145.192 324.503C144.87 324.503 144.602 324.234 144.602 323.912V316.802C144.602 316.48 144.87 316.211 145.192 316.211C145.514 316.211 145.782 316.48 145.782 316.802V323.912C145.782 324.234 145.514 324.503 145.192 324.503ZM469.144 315.809C468.822 315.809 468.553 315.541 468.553 315.219V308.108C468.553 307.786 468.822 307.518 469.144 307.518C469.466 307.518 469.734 307.786 469.734 308.108V315.219C469.734 315.541 469.466 315.809 469.144 315.809ZM145.192 310.308C144.87 310.308 144.602 310.04 144.602 309.718V302.607C144.602 302.285 144.87 302.017 145.192 302.017C145.514 302.017 145.782 302.285 145.782 302.607V309.718C145.782 310.04 145.514 310.308 145.192 310.308ZM469.144 301.588C468.822 301.588 468.553 301.319 468.553 300.997V293.887C468.553 293.565 468.822 293.296 469.144 293.296C469.466 293.296 469.734 293.565 469.734 293.887V300.997C469.734 301.319 469.466 301.588 469.144 301.588ZM145.192 296.087C144.87 296.087 144.602 295.819 144.602 295.497V288.386C144.602 288.064 144.87 287.796 145.192 287.796C145.514 287.796 145.782 288.064 145.782 288.386V295.497C145.782 295.819 145.514 296.087 145.192 296.087ZM469.144 287.366C468.822 287.366 468.553 287.098 468.553 286.776V279.665C468.553 279.343 468.822 279.075 469.144 279.075C469.466 279.075 469.734 279.343 469.734 279.665V286.776C469.734 287.098 469.466 287.366 469.144 287.366ZM145.192 281.866C144.87 281.866 144.602 281.597 144.602 281.275V274.165C144.602 273.843 144.87 273.574 145.192 273.574C145.514 273.574 145.782 273.843 145.782 274.165V281.275C145.782 281.597 145.514 281.866 145.192 281.866ZM469.144 273.172C468.822 273.172 468.553 272.903 468.553 272.581V265.471C468.553 265.149 468.822 264.88 469.144 264.88C469.466 264.88 469.734 265.149 469.734 265.471V272.581C469.734 272.903 469.466 273.172 469.144 273.172ZM145.192 267.671C144.87 267.671 144.602 267.403 144.602 267.081V259.97C144.602 259.648 144.87 259.38 145.192 259.38C145.514 259.38 145.782 259.648 145.782 259.97V267.081C145.782 267.403 145.514 267.671 145.192 267.671ZM469.144 258.95C468.822 258.95 468.553 258.682 468.553 258.36V251.249C468.553 250.927 468.822 250.659 469.144 250.659C469.466 250.659 469.734 250.927 469.734 251.249V258.36C469.734 258.682 469.466 258.95 469.144 258.95ZM145.192 253.45C144.87 253.45 144.602 253.181 144.602 252.859V245.749C144.602 245.427 144.87 245.158 145.192 245.158C145.514 245.158 145.782 245.427 145.782 245.749V252.859C145.782 253.181 145.514 253.45 145.192 253.45ZM469.144 244.729C468.822 244.729 468.553 244.461 468.553 244.139V237.028C468.553 236.706 468.822 236.438 469.144 236.438C469.466 236.438 469.734 236.706 469.734 237.028V244.139C469.734 244.461 469.466 244.729 469.144 244.729ZM145.192 239.228C144.87 239.228 144.602 238.96 144.602 238.638V231.527C144.602 231.205 144.87 230.937 145.192 230.937C145.514 230.937 145.782 231.205 145.782 231.527V238.638C145.782 238.987 145.514 239.228 145.192 239.228ZM469.144 230.534C468.822 230.534 468.553 230.266 468.553 229.944V222.833C468.553 222.511 468.822 222.243 469.144 222.243C469.466 222.243 469.734 222.511 469.734 222.833V229.944C469.734 230.266 469.466 230.534 469.144 230.534ZM145.192 225.034C144.87 225.034 144.602 224.765 144.602 224.443V217.333C144.602 217.011 144.87 216.742 145.192 216.742C145.514 216.742 145.782 217.011 145.782 217.333V224.443C145.782 224.765 145.514 225.034 145.192 225.034ZM469.144 216.313C468.822 216.313 468.553 216.045 468.553 215.723V215.481C468.553 213.281 467.99 211.134 466.89 209.229C466.729 208.934 466.836 208.585 467.104 208.424C467.4 208.263 467.748 208.371 467.909 208.639C469.09 210.705 469.734 213.066 469.734 215.481V215.723C469.734 216.045 469.466 216.313 469.144 216.313ZM146.212 210.947C146.131 210.947 146.051 210.92 145.97 210.893C145.675 210.759 145.541 210.41 145.648 210.115C146.614 207.834 148.197 205.848 150.21 204.373C150.478 204.185 150.854 204.238 151.041 204.507C151.229 204.775 151.176 205.151 150.907 205.339C149.056 206.68 147.634 208.505 146.748 210.598C146.668 210.812 146.453 210.947 146.212 210.947ZM462.409 204.587C462.301 204.587 462.221 204.56 462.113 204.507C460.262 203.46 458.142 202.924 456.022 202.924H455.593C455.271 202.924 455.003 202.655 455.003 202.333C455.003 202.011 455.271 201.743 455.593 201.743H456.022C458.357 201.743 460.665 202.333 462.704 203.487C462.999 203.648 463.079 203.997 462.945 204.292C462.811 204.48 462.596 204.587 462.409 204.587ZM157.132 202.977C156.837 202.977 156.569 202.736 156.542 202.441C156.515 202.119 156.757 201.823 157.079 201.797C157.481 201.77 157.884 201.743 158.313 201.743H164.243C164.565 201.743 164.833 202.011 164.833 202.333C164.833 202.655 164.565 202.924 164.243 202.924H158.313C157.937 202.924 157.562 202.95 157.186 202.977C157.186 202.977 157.159 202.977 157.132 202.977ZM448.482 202.924H441.372C441.05 202.924 440.781 202.655 440.781 202.333C440.781 202.011 441.05 201.743 441.372 201.743H448.482C448.804 201.743 449.073 202.011 449.073 202.333C449.073 202.655 448.804 202.924 448.482 202.924ZM434.261 202.924H427.15C426.828 202.924 426.56 202.655 426.56 202.333C426.56 202.011 426.828 201.743 427.15 201.743H434.261C434.583 201.743 434.851 202.011 434.851 202.333C434.851 202.655 434.583 202.924 434.261 202.924ZM420.04 202.924H412.956C412.634 202.924 412.366 202.655 412.366 202.333C412.366 202.011 412.634 201.743 412.956 201.743H420.067C420.389 201.743 420.657 202.011 420.657 202.333C420.657 202.655 420.389 202.924 420.04 202.924ZM405.845 202.924H398.735C398.413 202.924 398.144 202.655 398.144 202.333C398.144 202.011 398.413 201.743 398.735 201.743H405.845C406.167 201.743 406.436 202.011 406.436 202.333C406.436 202.655 406.167 202.924 405.845 202.924ZM391.624 202.924H384.513C384.191 202.924 383.923 202.655 383.923 202.333C383.923 202.011 384.191 201.743 384.513 201.743H391.624C391.946 201.743 392.214 202.011 392.214 202.333C392.214 202.655 391.946 202.924 391.624 202.924ZM377.429 202.924H370.319C369.997 202.924 369.728 202.655 369.728 202.333C369.728 202.011 369.997 201.743 370.319 201.743H377.429C377.751 201.743 378.02 202.011 378.02 202.333C378.02 202.655 377.751 202.924 377.429 202.924ZM363.208 202.924H356.097C355.775 202.924 355.507 202.655 355.507 202.333C355.507 202.011 355.775 201.743 356.097 201.743H363.208C363.53 201.743 363.798 202.011 363.798 202.333C363.798 202.655 363.53 202.924 363.208 202.924ZM348.987 202.924H341.876C341.554 202.924 341.286 202.655 341.286 202.333C341.286 202.011 341.554 201.743 341.876 201.743H348.987C349.309 201.743 349.577 202.011 349.577 202.333C349.577 202.655 349.335 202.924 348.987 202.924ZM334.792 202.924H327.681C327.359 202.924 327.091 202.655 327.091 202.333C327.091 202.011 327.359 201.743 327.681 201.743H334.792C335.114 201.743 335.382 202.011 335.382 202.333C335.382 202.655 335.114 202.924 334.792 202.924ZM320.571 202.924H313.46C313.138 202.924 312.87 202.655 312.87 202.333C312.87 202.011 313.138 201.743 313.46 201.743H320.571C320.893 201.743 321.161 202.011 321.161 202.333C321.161 202.655 320.893 202.924 320.571 202.924ZM306.349 202.924H299.239C298.917 202.924 298.648 202.655 298.648 202.333C298.648 202.011 298.917 201.743 299.239 201.743H306.349C306.671 201.743 306.94 202.011 306.94 202.333C306.94 202.655 306.698 202.924 306.349 202.924ZM292.155 202.924H285.044C284.722 202.924 284.454 202.655 284.454 202.333C284.454 202.011 284.722 201.743 285.044 201.743H292.155C292.477 201.743 292.745 202.011 292.745 202.333C292.745 202.655 292.477 202.924 292.155 202.924ZM277.934 202.924H270.823C270.501 202.924 270.232 202.655 270.232 202.333C270.232 202.011 270.501 201.743 270.823 201.743H277.934C278.255 201.743 278.524 202.011 278.524 202.333C278.524 202.655 278.255 202.924 277.934 202.924ZM263.739 202.924H256.628C256.306 202.924 256.038 202.655 256.038 202.333C256.038 202.011 256.306 201.743 256.628 201.743H263.739C264.061 201.743 264.329 202.011 264.329 202.333C264.329 202.655 264.061 202.924 263.739 202.924ZM249.518 202.924H242.407C242.085 202.924 241.817 202.655 241.817 202.333C241.817 202.011 242.085 201.743 242.407 201.743H249.518C249.84 201.743 250.108 202.011 250.108 202.333C250.108 202.655 249.84 202.924 249.518 202.924ZM235.296 202.924H228.186C227.864 202.924 227.595 202.655 227.595 202.333C227.595 202.011 227.864 201.743 228.186 201.743H235.296C235.618 201.743 235.887 202.011 235.887 202.333C235.887 202.655 235.618 202.924 235.296 202.924ZM221.102 202.924H213.991C213.669 202.924 213.401 202.655 213.401 202.333C213.401 202.011 213.669 201.743 213.991 201.743H221.102C221.424 201.743 221.692 202.011 221.692 202.333C221.692 202.655 221.424 202.924 221.102 202.924ZM206.88 202.924H199.77C199.448 202.924 199.179 202.655 199.179 202.333C199.179 202.011 199.448 201.743 199.77 201.743H206.88C207.202 201.743 207.471 202.011 207.471 202.333C207.471 202.655 207.202 202.924 206.88 202.924ZM192.659 202.924H185.548C185.226 202.924 184.958 202.655 184.958 202.333C184.958 202.011 185.226 201.743 185.548 201.743H192.659C192.981 201.743 193.249 202.011 193.249 202.333C193.249 202.655 193.008 202.924 192.659 202.924ZM178.464 202.924H171.354C171.032 202.924 170.763 202.655 170.763 202.333C170.763 202.011 171.032 201.743 171.354 201.743H178.464C178.786 201.743 179.055 202.011 179.055 202.333C179.055 202.655 178.786 202.924 178.464 202.924Z" fill="black"/>
<path d="M478.695 340.119H412.633C406.757 340.119 401.98 335.343 401.98 329.467V303.359C401.98 297.482 406.757 292.706 412.633 292.706H478.695C484.572 292.706 489.348 297.482 489.348 303.359V329.467C489.348 335.343 484.572 340.119 478.695 340.119Z" fill="white"/>
<path d="M478.696 340.71H412.634C406.435 340.71 401.391 335.665 401.391 329.467V303.359C401.391 297.16 406.435 292.116 412.634 292.116H478.696C484.894 292.116 489.939 297.16 489.939 303.359V329.467C489.939 335.665 484.894 340.71 478.696 340.71ZM412.634 293.269C407.079 293.269 402.571 297.777 402.571 303.332V329.44C402.571 334.994 407.079 339.502 412.634 339.502H478.696C484.25 339.502 488.758 334.994 488.758 329.44V303.332C488.758 297.777 484.25 293.269 478.696 293.269H412.634Z" fill="black"/>
<path d="M420.979 325.898C426.225 325.898 430.478 321.645 430.478 316.399C430.478 311.153 426.225 306.901 420.979 306.901C415.733 306.901 411.48 311.153 411.48 316.399C411.48 321.645 415.733 325.898 420.979 325.898Z" fill="#09B850"/>
<path d="M308.36 359.144C308.226 359.144 308.092 359.09 307.985 359.01C307.743 358.795 307.689 358.419 307.904 358.178L331.436 329.064C331.651 328.823 332.027 328.769 332.268 328.984C332.51 329.198 332.563 329.574 332.349 329.816L308.816 358.929C308.709 359.063 308.548 359.144 308.36 359.144Z" fill="black"/>
<path d="M336.188 324.744C336.054 324.744 335.92 324.691 335.813 324.61C335.571 324.395 335.517 324.02 335.732 323.778L363.907 288.949C364.121 288.708 364.497 288.654 364.738 288.869C364.98 289.084 365.033 289.459 364.819 289.701L336.644 324.53C336.51 324.664 336.349 324.744 336.188 324.744Z" fill="black"/>
<path d="M368.575 284.656C368.441 284.656 368.307 284.602 368.199 284.522C367.958 284.307 367.904 283.932 368.119 283.69L376.786 272.984C377 272.742 377.376 272.689 377.618 272.903C377.859 273.118 377.913 273.494 377.698 273.735L369.031 284.441C368.924 284.576 368.736 284.656 368.575 284.656Z" fill="black"/>
<path d="M215.036 356.165C214.902 356.165 214.768 356.112 214.66 356.031C214.419 355.817 214.365 355.441 214.58 355.199L231.028 334.833C231.243 334.592 231.619 334.538 231.86 334.753C232.102 334.968 232.155 335.343 231.941 335.585L215.492 355.951C215.385 356.085 215.224 356.165 215.036 356.165Z" fill="black"/>
<path d="M234.731 331.828C234.597 331.828 234.463 331.774 234.356 331.694C234.114 331.479 234.06 331.104 234.275 330.862L253.595 306.981C253.809 306.739 254.185 306.686 254.427 306.9C254.668 307.115 254.722 307.491 254.507 307.732L235.187 331.613C235.08 331.748 234.892 331.828 234.731 331.828Z" fill="black"/>
<path d="M260.223 300.3C260.089 300.3 259.955 300.246 259.848 300.165C259.606 299.951 259.553 299.575 259.767 299.334L280.133 274.165C280.348 273.923 280.724 273.869 280.965 274.084C281.207 274.299 281.26 274.674 281.046 274.916L260.68 300.085C260.572 300.219 260.384 300.3 260.223 300.3Z" fill="black"/>
<path d="M292.958 415.117C292.824 415.117 292.69 415.063 292.582 414.983C292.341 414.768 292.287 414.393 292.502 414.151L322.098 377.524C322.313 377.283 322.689 377.229 322.93 377.444C323.171 377.658 323.225 378.034 323.011 378.276L293.414 414.902C293.307 415.063 293.119 415.117 292.958 415.117Z" fill="black"/>
<path d="M325.696 374.626C325.562 374.626 325.428 374.573 325.32 374.492C325.079 374.278 325.025 373.902 325.24 373.66L350.543 342.373C350.758 342.132 351.134 342.078 351.375 342.293C351.617 342.508 351.67 342.883 351.456 343.125L326.152 374.412C326.045 374.546 325.884 374.626 325.696 374.626Z" fill="black"/>
<path d="M290.008 39.5122C303.424 52.1773 308.844 66.2913 307.664 92.0776C312.091 83.8131 314.211 77.4269 314.318 70.2357L321.724 76.5682C323.28 69.8332 323.629 61.3809 319.014 55.0484L328.513 61.9981C325.642 49.4672 323.924 26.7935 299.077 31.6771L290.008 39.5122Z" fill="white"/>
<path d="M307.664 92.6411C307.611 92.6411 307.557 92.6411 307.503 92.6143C307.235 92.5338 307.047 92.2923 307.074 92.0239C308.201 67.15 303.478 53.036 289.606 39.9147C289.472 39.8074 289.418 39.6464 289.418 39.4586C289.418 39.2976 289.498 39.1366 289.633 39.0293L298.702 31.1673C298.783 31.0868 298.863 31.0599 298.97 31.0331C321.886 26.5252 325.723 45.335 328.245 57.7854C328.54 59.2075 328.808 60.576 329.104 61.8103C329.157 62.0518 329.05 62.2933 328.862 62.4274C328.647 62.5616 328.379 62.5616 328.191 62.4006L321.107 57.2219C324.301 63.5812 323.63 71.1212 322.342 76.6219C322.288 76.8098 322.154 76.9976 321.939 77.0513C321.751 77.1049 321.537 77.0781 321.376 76.9439L314.909 71.4164C314.614 77.8831 312.628 84.0546 308.228 92.2923C308.067 92.5338 307.879 92.6411 307.664 92.6411ZM290.894 39.5123C304.015 52.1236 309.033 66.345 308.362 89.4212C312.065 82.0153 313.648 76.2999 313.728 70.1821C313.728 69.9406 313.863 69.7528 314.077 69.6454C314.292 69.5381 314.533 69.5918 314.694 69.7259L321.349 75.4145C322.61 69.4576 322.986 61.4346 318.531 55.3436C318.371 55.1021 318.397 54.7801 318.585 54.5654C318.8 54.3508 319.122 54.3239 319.363 54.5118L327.601 60.5491C327.44 59.7441 327.252 58.8855 327.091 58.0269C324.515 45.3618 321 28.0278 299.373 32.1601L290.894 39.5123Z" fill="black"/>
<path d="M242.647 23.4394C224.857 28.3766 213.453 38.3316 202.398 61.6492C202.371 52.2846 203.471 45.6301 206.772 39.2439L197.246 41.3905C199.017 34.7092 202.693 27.0618 209.75 23.6541L198.078 25.3714C206.503 15.6311 218.659 -3.60801 238.327 12.3038L242.647 23.4394Z" fill="white"/>
<path d="M202.4 62.2395C202.346 62.2395 202.32 62.2395 202.266 62.2127C201.998 62.159 201.81 61.9175 201.81 61.6492C201.783 52.3114 202.91 45.952 205.7 40.0757L197.382 41.954C197.194 42.0076 196.98 41.9271 196.819 41.793C196.685 41.632 196.631 41.4173 196.685 41.2295C198.134 35.7556 201.058 28.7791 206.881 24.6468L198.187 25.9348C197.946 25.9616 197.704 25.8543 197.57 25.6396C197.463 25.425 197.49 25.1567 197.651 24.9688C198.482 24.0028 199.368 22.9295 200.307 21.8026C208.384 11.9818 220.566 -2.85674 238.732 11.8208C238.812 11.8744 238.866 11.9818 238.919 12.0623L243.239 23.2247C243.293 23.3857 243.293 23.5467 243.213 23.7077C243.132 23.8687 242.998 23.976 242.837 24.0028C224.43 29.1011 213.616 39.378 202.963 61.8907C202.829 62.1322 202.615 62.2395 202.4 62.2395ZM206.774 38.6535C206.962 38.6535 207.123 38.734 207.23 38.895C207.364 39.0828 207.391 39.3243 207.284 39.539C204.493 44.9861 203.205 50.7551 202.99 59.0464C213.24 38.3315 224.322 28.1083 241.844 23.0905L237.819 12.6258C220.646 -1.13944 209.403 12.5453 201.193 22.527C200.629 23.2247 200.092 23.8687 199.556 24.5127L209.672 23.0369C209.967 22.9832 210.235 23.171 210.316 23.4394C210.396 23.7077 210.262 24.0297 210.021 24.137C203.205 27.4374 199.797 34.7091 198.107 40.5587L206.666 38.6267C206.693 38.6535 206.72 38.6535 206.774 38.6535Z" fill="black"/>
<path d="M265.056 79.5467C286.989 79.5467 304.769 61.8028 304.769 39.9147C304.769 18.0266 286.989 0.282715 265.056 0.282715C243.124 0.282715 225.344 18.0266 225.344 39.9147C225.344 61.8028 243.124 79.5467 265.056 79.5467Z" fill="black"/>
<path d="M266.934 77.5074C288.215 77.5074 305.466 60.2921 305.466 39.0561C305.466 17.82 288.215 0.604736 266.934 0.604736C245.654 0.604736 228.402 17.82 228.402 39.0561C228.402 60.2921 245.654 77.5074 266.934 77.5074Z" fill="white"/>
<path d="M266.962 78.0977C264.735 78.0977 262.481 77.9099 260.227 77.5074C249.923 75.7096 240.961 70.0479 234.924 61.515C228.913 52.9822 226.579 42.6248 228.377 32.3478C232.079 11.15 252.392 -3.09821 273.643 0.577875C283.947 2.37567 292.936 8.03738 298.947 16.5702C304.957 25.103 307.292 35.4604 305.494 45.7374C302.167 64.7081 285.611 78.0977 266.962 78.0977ZM266.908 1.19503C248.823 1.19503 232.75 14.1821 229.557 32.5625C227.813 42.5175 230.067 52.5529 235.89 60.8442C241.712 69.1087 250.433 74.6363 260.415 76.3536C262.615 76.7292 264.789 76.917 266.935 76.917C285.02 76.917 301.093 63.93 304.286 45.5496C306.031 35.5946 303.777 25.5592 297.954 17.2678C292.131 9.00336 283.411 3.47581 273.429 1.75852C271.255 1.38286 269.082 1.19503 266.908 1.19503Z" fill="black"/>
<path d="M266.931 71.309C284.788 71.309 299.265 56.8689 299.265 39.0561C299.265 21.2432 284.788 6.8031 266.931 6.8031C249.074 6.8031 234.598 21.2432 234.598 39.0561C234.598 56.8689 249.074 71.309 266.931 71.309Z" fill="white"/>
<path d="M290.708 61.5151C290.574 61.5151 290.413 61.4614 290.306 61.3541C290.064 61.1394 290.064 60.7638 290.279 60.5223C292.345 58.2951 294.062 55.7997 295.404 53.0896C295.538 52.7944 295.914 52.6871 296.209 52.8213C296.504 52.9554 296.611 53.3311 296.477 53.6263C295.082 56.4437 293.311 59.0196 291.164 61.3272C291.03 61.4614 290.869 61.5151 290.708 61.5151Z" fill="black"/>
<path d="M298.032 30.7647C297.764 30.7647 297.55 30.6037 297.469 30.3354C294.088 18.5558 284.482 9.94249 272.38 7.84953C262.452 6.13224 252.175 9.27167 244.904 16.2482C244.662 16.4628 244.287 16.4628 244.072 16.2214C243.857 15.9799 243.857 15.6042 244.099 15.3895C251.639 8.14469 262.291 4.89793 272.595 6.69573C284.938 8.84235 295.161 17.9923 298.623 30.0134C298.703 30.3354 298.542 30.6574 298.22 30.7379C298.14 30.7647 298.086 30.7647 298.032 30.7647Z" fill="black"/>
<path d="M261.378 71.4163C261.351 71.4163 261.297 71.4163 261.27 71.4163C252.603 69.9137 245.037 65.1375 239.992 57.9463C234.921 50.7551 232.962 42.0613 234.491 33.3943C235.457 27.8399 237.845 22.6344 241.387 18.2875C241.602 18.046 241.978 17.9923 242.219 18.207C242.461 18.4216 242.514 18.7973 242.3 19.0388C238.892 23.2247 236.584 28.2424 235.645 33.5822C234.196 41.9271 236.074 50.3258 240.958 57.2218C245.842 64.1447 253.113 68.7599 261.485 70.2089C261.807 70.2625 262.022 70.5845 261.968 70.9065C261.914 71.2285 261.673 71.4163 261.378 71.4163Z" fill="black"/>
<path d="M260.093 60.9785L261.005 55.7461C257.329 54.9411 253.921 53.3312 252.043 51.748L254.807 45.6033C256.9 47.267 259.959 48.9843 263.527 49.6014C266.667 50.1381 269.028 49.3062 269.404 47.106C269.779 45.013 268.223 43.3762 264.386 41.3101C258.832 38.3048 255.29 34.8434 256.229 29.5305C257.061 24.7006 261.166 21.4807 267.257 21.3465L268.169 16.1141L273.563 17.0533L272.731 21.8832C276.407 22.6882 278.742 23.8956 280.405 25.0763L277.722 31.0063C276.407 30.1477 274.073 28.4572 270.101 27.7595C266.506 27.1424 265.084 28.484 264.815 30.0135C264.493 31.8381 266.237 33.3139 270.611 35.8899C276.756 39.3513 278.876 42.8127 278.017 47.7768C277.158 52.6603 272.973 56.2559 266.425 56.2559L265.459 61.864L260.093 60.9785Z" fill="#09B850"/>
<path d="M130.361 446.511C130.361 446.511 134.332 458.667 138.303 462.37C142.274 466.072 158.079 473.371 158.294 481.287C158.562 490.49 153.195 492.208 138.84 488.88C128.456 486.465 119.896 480.16 116.837 476.537C114.127 473.344 115.656 470.634 116.3 466.904C117.105 462.316 117.266 457.647 117.266 452.978V445.358L130.361 446.511Z" fill="white"/>
<path d="M149.653 491.054C146.835 491.054 143.267 490.517 138.705 489.471C128.106 487.029 119.386 480.482 116.38 476.94C114.019 474.176 114.636 471.627 115.253 468.917C115.414 468.246 115.575 467.548 115.709 466.797C116.541 462.021 116.675 457.137 116.675 452.978V445.358C116.675 445.197 116.756 445.036 116.863 444.928C116.997 444.821 117.158 444.767 117.319 444.767L130.387 445.921C130.628 445.948 130.816 446.109 130.897 446.324C130.924 446.431 134.868 458.371 138.678 461.94C139.725 462.933 141.71 464.221 144.018 465.697C150.216 469.722 158.695 475.222 158.883 481.287C158.991 485.15 158.159 487.673 156.227 489.229C154.751 490.437 152.631 491.054 149.653 491.054ZM117.856 446.002V452.978C117.856 457.191 117.749 462.128 116.89 467.012C116.756 467.79 116.595 468.487 116.434 469.185C115.79 471.895 115.334 473.854 117.293 476.162C120.19 479.596 128.643 485.929 138.973 488.317C147.882 490.383 152.98 490.383 155.502 488.317C157.112 487.002 157.81 484.775 157.703 481.313C157.542 475.893 149.358 470.58 143.374 466.69C141.04 465.16 139 463.872 137.873 462.799C134.17 459.364 130.602 449.168 129.877 447.048L117.856 446.002Z" fill="black"/>
<path d="M157.727 485.714C157.7 485.714 157.7 485.714 157.673 485.714L152.575 485.338C139.373 484.372 127.003 478.711 117.8 469.373C116.565 468.112 115.895 467.334 115.841 467.307C115.626 467.065 115.653 466.69 115.895 466.475C116.136 466.26 116.512 466.287 116.726 466.529C116.726 466.529 117.397 467.307 118.605 468.541C127.62 477.691 139.722 483.245 152.629 484.158L157.727 484.533C158.049 484.56 158.29 484.828 158.263 485.177C158.29 485.472 158.049 485.714 157.727 485.714Z" fill="black"/>
<path d="M126.923 466.18C126.628 466.18 126.386 465.965 126.332 465.697C126.279 465.375 126.493 465.08 126.815 465.026C126.869 465.026 133.497 463.872 135.939 460.679C136.126 460.411 136.502 460.384 136.77 460.572C137.039 460.76 137.066 461.135 136.878 461.404C134.141 464.972 127.298 466.153 127.003 466.207C126.976 466.18 126.95 466.18 126.923 466.18Z" fill="black"/>
<path d="M132.99 470.285C132.722 470.285 132.48 470.097 132.4 469.802C132.319 469.48 132.534 469.158 132.856 469.105C132.91 469.105 139.162 467.736 140.986 464.65C141.147 464.382 141.523 464.275 141.791 464.436C142.06 464.597 142.167 464.972 142.006 465.241C139.913 468.783 133.393 470.178 133.097 470.232C133.071 470.285 133.044 470.285 132.99 470.285Z" fill="black"/>
<path d="M139.534 474.176C139.293 474.176 139.078 474.042 138.971 473.8C138.864 473.505 139.025 473.156 139.32 473.049C139.373 473.022 144.472 471.117 145.947 468.004C146.082 467.709 146.43 467.575 146.726 467.736C147.021 467.87 147.155 468.219 146.994 468.514C145.303 472.029 139.937 474.069 139.722 474.149C139.669 474.149 139.588 474.176 139.534 474.176Z" fill="black"/>
<path d="M99.7173 416.62C99.2343 416.62 92.3114 415.949 88.3402 415.546C86.7839 415.385 85.4154 416.512 85.2276 418.069L84.4494 425.287C84.1811 427.836 83.6713 430.358 82.9468 432.827C81.632 437.308 79.7 445.009 80.7734 448.524C81.9003 452.28 85.4423 457.54 87.7767 460.518C88.85 461.887 90.6746 462.45 92.3383 461.887C95.3167 460.894 100.039 458.989 102.83 456.198C107.096 451.932 102.481 443.748 102.481 443.748L99.7173 416.62Z" fill="white"/>
<path d="M90.9958 462.692C89.5736 462.692 88.1783 462.048 87.266 460.894C84.6901 457.593 81.2823 452.441 80.1553 448.712C79.1088 445.197 80.7725 438.059 82.3288 432.666C83.0533 430.197 83.5631 427.702 83.8314 425.233L84.6096 418.015C84.8242 416.164 86.4878 414.795 88.3661 414.983C95.1012 415.654 99.3407 416.056 99.6896 416.056C99.9847 416.056 100.253 416.298 100.28 416.593L102.99 443.587C103.553 444.66 107.498 452.334 103.178 456.627C100.387 459.391 95.7988 461.323 92.4447 462.45C91.9886 462.611 91.4787 462.692 90.9958 462.692ZM88.0442 416.137C86.9172 416.137 85.9244 416.995 85.817 418.149L85.0389 425.367C84.7706 427.916 84.2339 430.465 83.5094 433.014C82.2483 437.308 80.3163 444.982 81.336 448.39C82.3288 451.717 85.5219 456.708 88.232 460.169C89.1443 461.35 90.7274 461.806 92.1227 461.35C94.7792 460.464 99.6359 458.559 102.373 455.822C106.29 451.932 101.97 444.15 101.944 444.07C101.917 443.989 101.89 443.909 101.863 443.828L99.1797 417.21C97.5161 417.076 92.4984 416.593 88.2588 416.164C88.1783 416.137 88.0978 416.137 88.0442 416.137Z" fill="black"/>
<path d="M94.159 461.484C93.9712 461.484 93.7834 461.404 93.676 461.243C85.2237 449.382 85.7872 446.27 87.0483 439.454C87.3167 438.059 87.585 436.476 87.8265 434.624C88.4705 429.687 90.3756 416.164 90.4024 416.029C90.4561 415.707 90.7513 415.466 91.0732 415.52C91.3952 415.573 91.6099 415.868 91.5831 416.19C91.5562 416.324 89.6511 429.848 89.0071 434.785C88.7656 436.664 88.4705 438.274 88.2021 439.669C87.0215 446.136 86.458 449.087 94.642 460.545C94.8298 460.813 94.7762 461.189 94.5078 461.377C94.4005 461.457 94.2663 461.484 94.159 461.484Z" fill="black"/>
<path d="M93.008 440.796C92.7128 440.796 92.4713 440.581 92.4176 440.286C92.364 439.964 92.6055 439.669 92.9275 439.615L100.709 438.462C101.031 438.408 101.326 438.649 101.38 438.971C101.433 439.293 101.192 439.589 100.87 439.642L93.0885 440.796C93.0616 440.796 93.0348 440.796 93.008 440.796Z" fill="black"/>
<path d="M93.8127 446.404C93.5175 446.404 93.276 446.189 93.2223 445.894C93.1687 445.572 93.4102 445.277 93.7322 445.223L101.514 444.07C101.836 444.016 102.131 444.257 102.184 444.579C102.238 444.901 101.997 445.197 101.675 445.25L93.8932 446.404C93.8663 446.404 93.8395 446.404 93.8127 446.404Z" fill="black"/>
<path d="M102.287 448.98C106.822 452.092 116.428 456.117 132.608 451.288L125.659 259.782L95.2304 253.986C95.2304 253.986 90.803 322.678 95.1231 363.571C99.0675 400.896 99.2285 432.692 99.148 442.808C99.0943 445.277 100.275 447.585 102.287 448.98Z" fill="black"/>
<path d="M102.422 245.4L154.585 228.093L172.08 325.844C170.282 349.913 142.617 413.668 132.206 420.806C115.811 432.075 102.422 245.4 102.422 245.4Z" fill="black"/>
<path d="M132.313 421.879C132.286 421.879 132.286 421.879 132.313 421.879C131.964 421.879 131.723 421.611 131.723 421.262L135.104 287.581C135.104 287.259 135.372 286.991 135.694 286.991C135.694 286.991 135.694 286.991 135.721 286.991C136.043 286.991 136.311 287.259 136.311 287.608L132.93 421.289C132.876 421.637 132.635 421.879 132.313 421.879Z" fill="white"/>
<path d="M205.432 129.67C205.03 129.59 204.734 129.241 204.734 128.812C204.788 126.638 205.244 120.118 208.92 117.113C213.375 113.49 217.131 105.145 219.814 105.95C222.498 106.755 216.594 114 217.265 114.805C217.936 115.61 222.659 111.048 224.134 108.365C225.61 105.682 227.408 100.423 229.555 100.61C232.506 100.852 233.15 105.279 229.26 114.027C225.557 122.345 213.053 124.572 212.087 130.073C212.006 130.529 211.55 130.851 211.067 130.744L205.432 129.67Z" fill="white"/>
<path d="M211.229 131.388C211.148 131.388 211.041 131.388 210.961 131.361L205.353 130.261C204.655 130.126 204.172 129.509 204.172 128.812C204.226 126.182 204.762 119.769 208.572 116.656C210.397 115.181 212.141 112.792 213.698 110.699C216.139 107.426 218.071 104.823 220.003 105.413C220.486 105.548 220.835 105.87 220.996 106.299C221.506 107.56 220.486 109.546 219.01 112.202C218.662 112.819 218.205 113.624 217.991 114.161C219.332 113.356 222.418 110.324 223.626 108.124C223.974 107.506 224.323 106.728 224.699 105.923C226.094 102.945 227.543 99.859 229.609 100.047C230.629 100.127 231.434 100.637 231.944 101.496C233.259 103.723 232.507 108.258 229.797 114.295C227.758 118.83 223.33 121.567 219.386 123.982C216.005 126.075 213.08 127.872 212.651 130.207C212.571 130.583 212.383 130.931 212.061 131.146C211.819 131.28 211.524 131.388 211.229 131.388ZM219.44 106.514C218.259 106.514 216.408 109.009 214.637 111.424C213.054 113.571 211.229 116.012 209.297 117.595C205.782 120.467 205.379 126.933 205.353 128.865C205.353 128.999 205.433 129.107 205.567 129.134L211.175 130.234C211.283 130.261 211.336 130.207 211.39 130.18C211.417 130.153 211.47 130.1 211.497 130.019C212.007 127.121 215.146 125.216 218.769 122.989C222.552 120.654 226.846 118.025 228.724 113.839C232.266 105.896 231.461 102.998 230.924 102.14C230.602 101.603 230.146 101.335 229.529 101.281C229.502 101.281 229.475 101.281 229.475 101.281C228.268 101.281 226.846 104.286 225.799 106.487C225.397 107.319 225.048 108.097 224.672 108.741C223.411 110.995 219.252 115.422 217.642 115.583C217.213 115.637 216.944 115.422 216.837 115.288C216.354 114.698 216.81 113.812 217.991 111.692C218.849 110.163 220.245 107.641 219.923 106.809C219.896 106.755 219.842 106.675 219.681 106.621C219.574 106.514 219.52 106.514 219.44 106.514Z" fill="black"/>
<path d="M211.873 128.892L205.621 127.658C204.253 127.389 202.884 128.248 202.562 129.59C200.603 137.586 194.056 162.594 189.065 164.606C183.108 167.021 178.252 160.877 168.136 155.805C162.715 153.095 154.451 152.102 147.931 151.754C142.215 151.432 136.5 151.941 130.919 153.202L113.102 157.227C110.928 157.603 103.657 158.972 95.714 163.345C96.2239 164.15 87.9057 167.263 88.3619 168.095C94.5871 179.982 95.1505 197.262 93.8626 210.625C100.007 219.587 110.016 223.209 106.098 229.273C98.2095 241.455 95.7945 248.942 95.553 259.889C105.749 252.403 121.232 243.012 141.732 236.921C153.19 233.54 163.655 231.93 172.402 231.232C170.792 228.495 168.458 223.987 167.089 218.057C165.05 209.283 166.74 204.48 165.479 194.391C165.023 190.661 164.03 185.053 161.535 178.318C173.019 188.863 188.099 193.505 199.449 188.863C216.086 181.994 226.148 154.571 211.873 128.892Z" fill="white"/>
<path d="M95.5282 260.399C95.4477 260.399 95.3403 260.372 95.2598 260.319C95.072 260.211 94.9378 259.997 94.9378 259.782C95.1793 248.432 97.7821 240.919 105.564 228.871C107.683 225.624 105.403 223.29 100.868 219.104C98.3993 216.823 95.6087 214.247 93.3279 210.893C93.2474 210.786 93.2205 210.651 93.2205 210.49C93.9987 202.414 95.0452 182.101 87.8003 168.309C87.7198 168.121 87.693 167.934 87.7467 167.719C87.9613 167.075 89.0078 166.512 91.7179 165.143C92.8986 164.553 94.6695 163.667 95.072 163.265C95.072 163.211 95.072 163.184 95.0988 163.131C95.1525 162.97 95.233 162.835 95.394 162.755C102.666 158.757 109.535 157.174 112.969 156.583L130.76 152.585C136.421 151.297 142.19 150.814 147.933 151.136C154.158 151.485 162.771 152.451 168.379 155.269C171.733 156.932 174.47 158.703 176.912 160.259C181.849 163.453 185.123 165.546 188.852 164.043C192.636 162.513 198.11 145.153 202.001 129.429C202.403 127.765 204.067 126.719 205.757 127.041L212.009 128.275C212.17 128.302 212.331 128.409 212.412 128.57C219.71 141.718 221.293 156.664 216.759 169.597C213.431 179.042 207.206 186.207 199.666 189.293C188.879 193.693 174.631 190.097 162.852 180.143C164.408 184.811 165.481 189.534 166.071 194.203C166.635 198.711 166.608 202.092 166.581 205.365C166.554 209.444 166.528 212.986 167.655 217.816C168.701 222.35 170.472 226.724 172.914 230.83C173.021 231.017 173.021 231.232 172.941 231.393C172.833 231.581 172.672 231.688 172.458 231.715C162.1 232.52 151.823 234.425 141.922 237.377C125.393 242.314 109.937 249.988 95.877 260.292C95.7697 260.372 95.6623 260.399 95.5282 260.399ZM94.4549 210.41C96.6551 213.549 99.3384 216.045 101.7 218.245C105.966 222.189 109.32 225.302 106.583 229.542C99.2043 240.946 96.5746 248.19 96.1722 258.628C110.072 248.62 125.339 241.107 141.546 236.303C151.233 233.432 161.268 231.554 171.384 230.669C169.13 226.697 167.494 222.485 166.474 218.138C165.32 213.174 165.347 209.39 165.374 205.392C165.401 202.145 165.401 198.818 164.864 194.391C164.22 189.078 162.905 183.711 160.946 178.452C160.839 178.184 160.946 177.915 161.161 177.754C161.376 177.593 161.698 177.62 161.886 177.808C173.45 188.434 188.45 192.647 199.183 188.246C206.401 185.294 212.385 178.372 215.605 169.248C220.005 156.718 218.503 142.201 211.472 129.402L205.489 128.221C204.415 128.007 203.369 128.677 203.101 129.724C200.632 139.679 194.38 163.077 189.255 165.17C184.962 166.914 181.312 164.553 176.241 161.306C173.826 159.75 171.116 158.006 167.842 156.369C162.422 153.659 153.997 152.693 147.879 152.371C142.244 152.075 136.582 152.558 131.028 153.793L113.211 157.818C109.857 158.381 103.283 159.911 96.2527 163.721C96.0112 164.338 94.911 164.928 92.2814 166.27C91.1544 166.833 89.4908 167.665 89.0078 168.095C96.1722 181.994 95.233 202.119 94.4549 210.41Z" fill="black"/>
<path d="M140.473 232.52C140.392 232.52 140.285 232.493 140.204 232.466C139.909 232.332 139.802 231.957 139.936 231.661L155.231 200.589C155.365 200.294 155.741 200.187 156.036 200.321C156.331 200.455 156.438 200.831 156.304 201.126L141.009 232.198C140.902 232.413 140.687 232.52 140.473 232.52Z" fill="black"/>
<path d="M153.834 222.27C153.754 222.27 153.673 222.243 153.62 222.216C153.325 222.082 153.164 221.733 153.298 221.438L157.484 211.322C157.618 211.027 157.967 210.866 158.262 211C158.557 211.134 158.718 211.483 158.584 211.778L154.398 221.894C154.291 222.136 154.076 222.27 153.834 222.27Z" fill="black"/>
<path d="M95.7161 163.318C95.7161 163.318 35.0205 191.654 52.1934 225.919C65.6366 252.725 99.5801 220.499 99.5801 220.499L91.9596 207.271C91.9596 207.271 77.443 218.406 76.0477 212.664C74.7061 207.029 81.4679 200.053 100.492 203.675L104.678 208.478C104.678 208.478 111.252 193.049 97.1114 165.787L95.7161 163.318Z" fill="white"/>
<path d="M93.8359 210.571L102.288 201.528C109.909 201.877 115.678 203.594 120.159 206.224C121.366 206.949 121.098 208.773 119.703 209.041C117.18 209.524 113.451 210.383 108.916 211.778C100.168 214.489 98.2633 216.367 98.2633 216.367L93.8359 210.571Z" fill="white"/>
<path d="M98.2651 216.984C98.2383 216.984 98.2383 216.984 98.2115 216.984C98.0505 216.984 97.8895 216.877 97.7821 216.742L93.3547 210.92C93.1669 210.678 93.1937 210.356 93.3816 210.168L101.834 201.126C101.941 200.992 102.129 200.938 102.29 200.938C109.615 201.287 115.545 202.843 120.429 205.714C121.207 206.17 121.61 207.029 121.449 207.915C121.288 208.773 120.644 209.444 119.785 209.632C117.451 210.088 113.694 210.92 109.052 212.369C100.68 214.972 98.6676 216.796 98.6408 216.823C98.5603 216.93 98.4261 216.984 98.2651 216.984ZM94.6159 210.625L98.3725 215.562C99.4189 214.837 102.21 213.254 108.73 211.242C113.399 209.793 117.209 208.934 119.597 208.478C120.187 208.371 120.295 207.888 120.322 207.727C120.375 207.405 120.268 207.002 119.865 206.761C115.197 204.024 109.535 202.521 102.532 202.145L94.6159 210.625Z" fill="black"/>
<path d="M131.753 338.402L118.417 347.928L107.926 306.793L104.84 261.285L110.689 265.176L131.753 338.402Z" fill="white"/>
<path d="M118.417 348.518C118.336 348.518 118.283 348.518 118.202 348.491C118.014 348.411 117.88 348.276 117.826 348.089L107.335 306.954C107.335 306.927 107.308 306.874 107.308 306.847L104.222 261.312C104.195 261.097 104.33 260.882 104.517 260.748C104.705 260.641 104.947 260.641 105.134 260.775L110.984 264.666C111.091 264.746 111.199 264.853 111.226 264.988L132.289 338.214C132.37 338.456 132.262 338.724 132.075 338.858L118.739 348.384C118.658 348.491 118.551 348.518 118.417 348.518ZM108.515 306.713L118.766 346.962L131.055 338.161L110.179 265.551L105.51 262.439L108.515 306.713Z" fill="black"/>
<path d="M35.4453 353.589L53.5037 262.761L104.835 261.285L118.412 347.928L35.4453 353.589Z" fill="white"/>
<path d="M35.4473 354.18C35.2863 354.18 35.1253 354.099 34.9912 353.992C34.857 353.858 34.8302 353.67 34.857 353.482L52.9423 262.653C52.9959 262.385 53.2374 262.197 53.5058 262.17L104.837 260.668C105.132 260.668 105.4 260.882 105.427 261.177L119.005 347.847C119.031 348.008 118.978 348.169 118.87 348.303C118.763 348.438 118.602 348.518 118.441 348.518L35.4742 354.18H35.4473ZM54.0156 263.351L36.1986 352.945L117.743 347.391L104.354 261.875L54.0156 263.351Z" fill="black"/>
<path d="M95.8763 267.134C95.5811 267.134 95.3128 266.92 95.286 266.624L90.6976 227.985C90.6707 227.663 90.8854 227.368 91.2074 227.315C91.5294 227.288 91.8245 227.502 91.8782 227.824L96.4666 266.464C96.4934 266.785 96.2788 267.081 95.9568 267.134C95.9031 267.134 95.8763 267.134 95.8763 267.134Z" fill="black"/>
<path d="M63.6509 266.678C63.6241 266.678 63.6241 266.678 63.5973 266.678C63.2753 266.651 63.0338 266.383 63.0606 266.061C63.1948 264.424 77.2283 219.238 81.9777 211C82.9705 209.31 84.6878 209.605 85.5196 209.739C85.6538 209.766 85.8685 209.82 85.9221 209.793C86.2441 209.712 86.5393 209.927 86.6198 210.249C86.7003 210.571 86.4856 210.893 86.1636 210.973C85.9221 211.027 85.6538 210.973 85.3318 210.92C84.3658 210.759 83.534 210.705 82.9974 211.617C78.3285 219.694 64.4828 264.236 64.2413 266.195C64.2144 266.437 63.9461 266.678 63.6509 266.678Z" fill="black"/>
<path d="M75.0574 327.642L56.9453 335.021L62.8217 305.586L75.9966 268.422L78.2505 271.964L75.0574 327.642Z" fill="white"/>
<path d="M56.947 335.638C56.8128 335.638 56.6786 335.585 56.5713 335.504C56.4103 335.37 56.3298 335.155 56.3566 334.941L62.2599 305.505C62.2599 305.478 62.2599 305.451 62.2867 305.425L75.4347 268.261C75.5152 268.047 75.7031 267.886 75.9177 267.859C76.1324 267.832 76.3739 267.939 76.4812 268.127L78.7352 271.669C78.8157 271.776 78.8425 271.911 78.8157 272.018L75.6226 327.696C75.6226 327.91 75.4616 328.125 75.2469 328.206L57.1348 335.611C57.0811 335.611 57.0275 335.638 56.947 335.638ZM63.4137 305.747L57.7519 334.082L74.4956 327.24L77.6618 272.125L76.1592 269.764L63.4137 305.747Z" fill="black"/>
<path d="M38.5392 251.276L75.9977 268.422L56.9464 335.021L0.597656 301.99C0.597656 301.99 29.0404 272.447 38.5392 251.276Z" fill="white"/>
<path d="M56.9458 335.638C56.8385 335.638 56.7311 335.611 56.6506 335.558L0.301868 302.527C0.140872 302.446 0.0335409 302.285 0.00670819 302.097C-0.0201246 301.909 0.0335409 301.748 0.167705 301.614C0.462865 301.319 28.6372 271.884 38.0019 251.061C38.0555 250.927 38.1897 250.793 38.3239 250.739C38.458 250.686 38.6459 250.686 38.78 250.766L76.2385 267.912C76.5069 268.047 76.641 268.342 76.5605 268.61L57.5093 335.209C57.4556 335.397 57.3215 335.531 57.1605 335.585C57.08 335.611 57.0263 335.638 56.9458 335.638ZM1.53617 301.856L56.5701 334.136L75.2726 268.744L38.8337 252.054C29.8984 271.454 5.42692 297.777 1.53617 301.856Z" fill="black"/>
<path d="M67.916 273.118C67.8624 273.118 67.8087 273.118 67.755 273.091C67.433 273.011 67.272 272.662 67.3525 272.367L78.7296 234.023C78.8101 233.701 79.159 233.54 79.4541 233.62C79.7761 233.701 79.9371 234.05 79.8566 234.345L68.4795 272.689C68.4259 272.957 68.1844 273.118 67.916 273.118Z" fill="black"/>
<path d="M44.8432 261.178C44.7358 261.178 44.6285 261.151 44.5212 261.07C44.2528 260.882 44.1724 260.534 44.3602 260.238C45.6213 258.333 75.5935 213.362 78.8939 209.846C80.7186 207.888 82.9993 207.029 84.8508 207.619C86.1924 208.049 87.0779 209.176 87.2657 210.678C87.3194 211 87.0779 211.295 86.7559 211.349C86.4339 211.376 86.1388 211.161 86.0851 210.839C85.9509 209.793 85.3874 209.041 84.4751 208.746C83.375 208.398 81.5772 208.693 79.7526 210.651C76.5326 214.086 45.675 260.426 45.353 260.882C45.2188 261.097 45.031 261.178 44.8432 261.178Z" fill="black"/>
<path d="M67.9959 237.162C66.8957 237.162 65.7956 237.082 64.7223 236.894C59.1411 235.928 54.7405 232.306 51.6816 226.188C48.086 218.996 47.603 211.537 50.2326 203.97C58.4702 180.277 95.1238 162.943 95.4726 162.782C95.7677 162.648 96.1166 162.782 96.2507 163.077C96.3849 163.372 96.2507 163.721 95.9556 163.855C95.5799 164.016 59.4094 181.135 51.3327 204.373C48.8104 211.617 49.2934 218.782 52.728 225.678C55.626 231.447 59.7314 234.828 64.9101 235.74C65.9029 235.901 66.9225 236.008 67.9422 236.008C81.0902 236.008 96.3581 222.646 98.8267 220.419L91.7697 208.183C89.3547 209.981 80.7682 216.072 77.119 214.757C76.2872 214.462 75.6969 213.791 75.4822 212.852C74.9724 210.678 75.5627 208.478 77.1458 206.68C78.9705 204.587 83.8003 201.233 95.3384 202.36C95.6604 202.387 95.9019 202.682 95.8751 203.004C95.8482 203.326 95.5531 203.568 95.2311 203.541C87.1813 202.736 80.9292 204.158 78.0581 207.458C76.7433 208.988 76.2335 210.786 76.6628 212.583C76.797 213.147 77.0653 213.496 77.5483 213.657C80.4731 214.703 88.7107 209.095 91.6355 206.841C91.7697 206.734 91.9575 206.707 92.1185 206.734C92.2795 206.761 92.4405 206.868 92.521 207.029L100.141 220.258C100.276 220.499 100.222 220.794 100.034 220.982C99.2292 221.653 82.7002 237.162 67.9959 237.162Z" fill="black"/>
<path d="M129.603 143.006C129.603 143.006 127.644 145.153 123.539 144.401L129.603 143.006Z" fill="white"/>
<path d="M125.258 145.153C124.694 145.153 124.104 145.099 123.46 144.992C123.138 144.938 122.923 144.616 122.977 144.294C123.031 143.972 123.353 143.757 123.675 143.811C127.404 144.509 129.175 142.604 129.175 142.604C129.39 142.362 129.766 142.335 130.007 142.577C130.249 142.791 130.275 143.167 130.034 143.409C129.98 143.489 128.397 145.153 125.258 145.153Z" fill="black"/>
<path d="M135.935 113.436C135.935 132.595 123.162 154.437 103.977 154.437C84.7915 154.437 65.2305 137.935 65.2305 118.776C65.2305 99.6176 81.3838 81.1835 100.569 81.1835C119.781 81.2103 135.935 94.3047 135.935 113.436Z" fill="black"/>
<path d="M73.2266 129.455C73.2266 131.656 71.4288 133.427 69.2285 133.427C67.0283 133.427 65.2305 131.656 65.2305 129.455C65.2305 127.255 67.0283 125.484 69.2285 125.484C71.4288 125.484 73.2266 127.255 73.2266 129.455Z" fill="black"/>
<path d="M75.2908 143.06C78.6399 143.06 81.355 140.357 81.355 137.022C81.355 133.688 78.6399 130.985 75.2908 130.985C71.9416 130.985 69.2266 133.688 69.2266 137.022C69.2266 140.357 71.9416 143.06 75.2908 143.06Z" fill="black"/>
<path d="M77.7621 138.203C74.9178 141.02 74.9178 145.609 77.7621 148.453C80.6064 151.271 85.1948 151.271 88.0391 148.453C90.8833 145.636 90.8833 141.047 88.0391 138.203C85.1948 135.386 80.5795 135.386 77.7621 138.203Z" fill="black"/>
<path d="M85.7305 147.38C85.7305 151.915 89.4066 155.591 93.9681 155.591C98.5297 155.591 102.206 151.915 102.206 147.38C102.206 142.845 98.5297 139.169 93.9681 139.169C89.4334 139.142 85.7305 142.818 85.7305 147.38Z" fill="black"/>
<path d="M105.694 156.449C110.718 156.449 114.79 152.389 114.79 147.38C114.79 142.371 110.718 138.31 105.694 138.31C100.67 138.31 96.5977 142.371 96.5977 147.38C96.5977 152.389 100.67 156.449 105.694 156.449Z" fill="black"/>
<path d="M69.148 123.15C73.2382 123.15 76.5539 119.834 76.5539 115.744C76.5539 111.654 73.2382 108.338 69.148 108.338C65.0579 108.338 61.7422 111.654 61.7422 115.744C61.7422 119.834 65.0579 123.15 69.148 123.15Z" fill="black"/>
<path d="M73.3076 115.019C77.7534 115.019 81.3575 111.427 81.3575 106.997C81.3575 102.566 77.7534 98.9735 73.3076 98.9735C68.8618 98.9735 65.2578 102.566 65.2578 106.997C65.2578 111.427 68.8618 115.019 73.3076 115.019Z" fill="black"/>
<path d="M69.147 128.409C71.6811 128.409 73.7354 126.355 73.7354 123.821C73.7354 121.287 71.6811 119.232 69.147 119.232C66.6129 119.232 64.5586 121.287 64.5586 123.821C64.5586 126.355 66.6129 128.409 69.147 128.409Z" fill="black"/>
<path d="M131.776 120.789C135.214 120.789 138.001 118.002 138.001 114.563C138.001 111.125 135.214 108.338 131.776 108.338C128.338 108.338 125.551 111.125 125.551 114.563C125.551 118.002 128.338 120.789 131.776 120.789Z" fill="black"/>
<path d="M132.124 113.168C135.77 113.168 138.725 110.213 138.725 106.567C138.725 102.922 135.77 99.9664 132.124 99.9664C128.479 99.9664 125.523 102.922 125.523 106.567C125.523 110.213 128.479 113.168 132.124 113.168Z" fill="black"/>
<path d="M127.538 105.682C131.406 105.682 134.542 102.558 134.542 98.7052C134.542 94.8521 131.406 91.7286 127.538 91.7286C123.671 91.7286 120.535 94.8521 120.535 98.7052C120.535 102.558 123.671 105.682 127.538 105.682Z" fill="black"/>
<path d="M122.571 96.7196C126.187 96.7196 129.118 93.7883 129.118 90.1724C129.118 86.5565 126.187 83.6252 122.571 83.6252C118.955 83.6252 116.023 86.5565 116.023 90.1724C116.023 93.7883 118.955 96.7196 122.571 96.7196Z" fill="black"/>
<path d="M114.282 90.1725C116.757 90.1725 118.763 88.1662 118.763 85.6914C118.763 83.2166 116.757 81.2103 114.282 81.2103C111.807 81.2103 109.801 83.2166 109.801 85.6914C109.801 88.1662 111.807 90.1725 114.282 90.1725Z" fill="black"/>
<path d="M106.259 89.8772C109.386 89.8772 111.921 87.3424 111.921 84.2155C111.921 81.0887 109.386 78.5538 106.259 78.5538C103.132 78.5538 100.598 81.0887 100.598 84.2155C100.598 87.3424 103.132 89.8772 106.259 89.8772Z" fill="black"/>
<path d="M97.2171 95.2706C101.455 95.2706 104.891 91.8468 104.891 87.6233C104.891 83.3998 101.455 79.976 97.2171 79.976C92.9788 79.976 89.543 83.3998 89.543 87.6233C89.543 91.8468 92.9788 95.2706 97.2171 95.2706Z" fill="black"/>
<path d="M88.2017 94.895C91.9807 94.895 95.0441 91.8316 95.0441 88.0527C95.0441 84.2738 91.9807 81.2103 88.2017 81.2103C84.4228 81.2103 81.3594 84.2738 81.3594 88.0527C81.3594 91.8316 84.4228 94.895 88.2017 94.895Z" fill="black"/>
<path d="M81.3579 99.1614C85.4777 99.1614 88.8174 95.8336 88.8174 91.7287C88.8174 87.6237 85.4777 84.296 81.3579 84.296C77.2382 84.296 73.8984 87.6237 73.8984 91.7287C73.8984 95.8336 77.2382 99.1614 81.3579 99.1614Z" fill="black"/>
<path d="M71.4815 102.73C74.2824 102.73 76.5529 100.472 76.5529 97.6855C76.5529 94.8995 74.2824 92.641 71.4815 92.641C68.6807 92.641 66.4102 94.8995 66.4102 97.6855C66.4102 100.472 68.6807 102.73 71.4815 102.73Z" fill="black"/>
<path d="M125.202 114.053C126.677 114.858 127.456 115.019 128.69 115.824C131.185 117.461 134.137 123.096 137.92 123.66C138.672 125.538 137.142 126.075 136.767 127.255C137.384 128.141 138.967 132.461 140.255 135.064C140.711 135.976 140.416 137.076 139.557 137.639C138.108 138.552 136.445 139.303 134.513 139.813C134.513 139.813 126.785 156.288 138.538 162.218L113.637 160.072L120.318 138.257C119.996 138.203 115.783 137.452 114.737 134.285C114.361 133.132 114.254 131.173 115.247 130.582C116.213 129.992 118.171 130.717 119.728 132.729C119.862 132.139 119.942 131.414 120.023 130.582C120.103 129.455 120.103 128.167 119.674 127.604C128.958 123.123 118.332 115.288 125.202 114.053Z" fill="white"/>
<path d="M138.511 162.809C138.484 162.809 138.484 162.809 138.457 162.809L113.556 160.662C113.368 160.635 113.207 160.555 113.127 160.394C113.02 160.233 112.993 160.072 113.046 159.884L119.54 138.686C118.145 138.337 115.086 137.264 114.173 134.446C113.744 133.132 113.583 130.878 114.951 130.046C116.078 129.348 117.849 129.912 119.352 131.387C119.379 131.092 119.406 130.797 119.433 130.529C119.594 128.624 119.298 128.087 119.191 127.953C119.084 127.819 119.057 127.631 119.084 127.47C119.137 127.309 119.245 127.148 119.406 127.067C124.048 124.813 123.296 121.862 122.599 118.991C122.196 117.434 121.848 115.959 122.572 114.832C123.028 114.107 123.86 113.651 125.121 113.436C125.255 113.409 125.389 113.436 125.497 113.49C126.114 113.839 126.597 114.053 127.08 114.268C127.697 114.536 128.287 114.805 129.012 115.288C129.978 115.932 130.997 117.086 132.071 118.347C133.842 120.386 135.827 122.694 138.001 123.042C138.215 123.069 138.376 123.203 138.457 123.418C139.074 125.001 138.376 125.887 137.84 126.558C137.679 126.772 137.518 126.987 137.41 127.202C137.759 127.792 138.215 128.919 138.886 130.529C139.477 131.978 140.174 133.588 140.765 134.795C141.355 135.976 140.952 137.425 139.852 138.122C138.403 139.062 136.74 139.786 134.915 140.296C134.03 142.335 128.448 156.476 138.779 161.682C139.02 161.816 139.155 162.111 139.074 162.379C139.02 162.648 138.779 162.809 138.511 162.809ZM114.388 159.562L136.096 161.44C127.08 154.517 133.869 139.732 133.949 139.598C134.03 139.437 134.164 139.33 134.325 139.276C136.149 138.793 137.786 138.096 139.208 137.156C139.799 136.781 140.013 136.003 139.691 135.359C139.074 134.098 138.376 132.461 137.786 131.012C137.169 129.563 136.552 128.033 136.257 127.631C136.149 127.47 136.123 127.282 136.176 127.094C136.337 126.584 136.632 126.209 136.901 125.86C137.33 125.296 137.625 124.921 137.437 124.196C134.996 123.633 132.956 121.271 131.158 119.179C130.139 117.998 129.2 116.898 128.341 116.334C127.697 115.905 127.16 115.663 126.57 115.395C126.141 115.207 125.658 114.993 125.094 114.697C124.289 114.858 123.779 115.127 123.538 115.529C123.082 116.227 123.377 117.381 123.726 118.749C124.423 121.513 125.363 125.243 120.425 127.899C120.64 128.543 120.694 129.455 120.586 130.663C120.533 131.387 120.452 132.219 120.291 132.89C120.238 133.105 120.05 133.293 119.835 133.319C119.62 133.373 119.379 133.293 119.245 133.105C117.823 131.226 116.159 130.717 115.569 131.092C114.978 131.468 114.925 132.997 115.3 134.124C116.239 136.969 120.238 137.666 120.399 137.693C120.56 137.72 120.721 137.827 120.801 137.961C120.882 138.096 120.908 138.283 120.855 138.444L114.388 159.562Z" fill="black"/>
<path d="M126.195 140.162C126.195 140.162 129.952 141.611 134.191 139.92L126.195 140.162Z" fill="white"/>
<path d="M129.844 141.342C127.617 141.342 126.087 140.779 125.98 140.725C125.685 140.618 125.524 140.269 125.631 139.974C125.738 139.679 126.087 139.518 126.382 139.625C126.409 139.625 129.978 140.94 133.949 139.384C134.244 139.276 134.593 139.41 134.727 139.706C134.835 140.001 134.7 140.35 134.405 140.484C132.742 141.128 131.185 141.342 129.844 141.342Z" fill="black"/>
<path d="M135.668 288.225C135.534 288.225 135.427 288.198 135.32 288.118C135.051 287.93 134.998 287.554 135.185 287.286L142.511 277.25C142.699 276.982 143.074 276.928 143.343 277.116C143.611 277.304 143.665 277.68 143.477 277.948L136.151 287.983C136.044 288.118 135.856 288.225 135.668 288.225Z" fill="white"/>
</svg>
